<svg width="156" height="31" viewBox="0 0 156 31" fill="none" xmlns="http://www.w3.org/2000/svg">
<path d="M11.57 24.67C11.35 24.95 11.18 25.32 11.06 25.78C10.96 26.26 10.93 26.67 10.97 27.01C10.81 26.79 10.69 26.49 10.61 26.11C10.55 25.75 10.55 25.41 10.61 25.09C10.49 25.43 10.32 25.77 10.1 26.11C9.9 26.47 9.68 26.74 9.44 26.92C9.52 26.56 9.51 26.11 9.41 25.57C9.31 25.05 9.15 24.64 8.93 24.34C8.87 24.74 8.69 25.17 8.39 25.63C8.09 26.11 7.77 26.46 7.43 26.68C7.63 26.32 7.72 25.85 7.7 25.27C7.7 24.71 7.6 24.26 7.4 23.92C7.3 24.24 7.1 24.59 6.8 24.97C6.5 25.35 6.2 25.6 5.9 25.72C6.08 25.44 6.19 25.06 6.23 24.58C6.27 24.1 6.26 23.7 6.2 23.38C5.8 23.44 5.39 23.65 4.97 24.01C4.55 24.37 4.23 24.71 4.01 25.03C3.99 24.65 4.05 24.19 4.19 23.65C4.33 23.11 4.53 22.7 4.79 22.42C4.33 22.36 3.77 22.42 3.11 22.6C2.47 22.78 1.99 23.04 1.67 23.38C1.73 22.92 1.96 22.42 2.36 21.88C2.76 21.34 3.15 20.94 3.53 20.68C3.25 20.62 2.92 20.62 2.54 20.68C2.16 20.74 1.85 20.86 1.61 21.04C1.79 20.8 2.05 20.59 2.39 20.41C2.73 20.21 3.04 20.11 3.32 20.11C2.96 19.85 2.47 19.7 1.85 19.66C1.23 19.62 0.7 19.65 0.26 19.75C0.6 19.45 1.07 19.21 1.67 19.03C2.25 18.85 2.76 18.79 3.2 18.85C3.12 18.47 3.12 18.02 3.2 17.5C3.28 16.98 3.44 16.56 3.68 16.24C3.56 16.62 3.55 17.07 3.65 17.59C3.75 18.11 3.92 18.53 4.16 18.85C4.2 18.61 4.32 18.31 4.52 17.95C4.72 17.59 4.91 17.34 5.09 17.2C5.13 17.44 5.25 17.74 5.45 18.1C5.65 18.46 5.85 18.71 6.05 18.85C6.25 18.63 6.39 18.31 6.47 17.89C6.55 17.47 6.57 17.1 6.53 16.78C6.69 17 6.82 17.29 6.92 17.65C7.02 17.99 7.06 18.3 7.04 18.58C7.14 18.12 7.33 17.67 7.61 17.23C7.51 16.97 7.43 16.71 7.37 16.45C7.33 16.17 7.33 15.93 7.37 15.73C7.09 15.85 6.79 16.06 6.47 16.36C6.17 16.64 5.95 16.92 5.81 17.2C5.73 16.94 5.71 16.62 5.75 16.24C5.81 15.84 5.89 15.51 5.99 15.25C5.85 15.51 5.64 15.78 5.36 16.06C5.08 16.32 4.81 16.49 4.55 16.57C4.79 16.37 5 16.08 5.18 15.7C5.38 15.32 5.48 14.97 5.48 14.65C5.34 14.95 5.1 15.24 4.76 15.52C4.42 15.8 4.09 15.98 3.77 16.06C4.05 15.9 4.31 15.64 4.55 15.28C4.81 14.92 4.97 14.58 5.03 14.26C4.73 14.48 4.32 14.66 3.8 14.8C3.3 14.94 2.87 14.98 2.51 14.92C2.83 14.72 3.15 14.42 3.47 14.02C3.81 13.6 4.01 13.21 4.07 12.85C3.77 13.05 3.39 13.21 2.93 13.33C2.47 13.43 2.06 13.45 1.7 13.39C2.06 13.39 2.45 13.28 2.87 13.06C3.31 12.82 3.65 12.56 3.89 12.28C3.61 12.3 3.27 12.25 2.87 12.13C2.47 12.01 2.17 11.86 1.97 11.68C2.25 11.64 2.56 11.51 2.9 11.29C3.26 11.07 3.51 10.84 3.65 10.6C3.25 10.68 2.79 10.64 2.27 10.48C1.75 10.32 1.34 10.11 1.04 9.85C1.42 9.95 1.87 9.98 2.39 9.94C2.93 9.88 3.38 9.75 3.74 9.55C3.56 9.21 3.26 8.87 2.84 8.53C2.42 8.17 2.02 7.94 1.64 7.84C1.98 7.66 2.43 7.58 2.99 7.6C3.55 7.62 3.98 7.7 4.28 7.84C3.96 7.7 3.62 7.48 3.26 7.18C2.92 6.88 2.69 6.57 2.57 6.25C2.83 6.51 3.17 6.74 3.59 6.94C4.01 7.12 4.4 7.23 4.76 7.27C4.54 7.03 4.35 6.68 4.19 6.22C4.03 5.76 3.96 5.38 3.98 5.08C4.18 5.32 4.51 5.54 4.97 5.74C5.43 5.92 5.82 5.99 6.14 5.95C5.92 5.69 5.74 5.35 5.6 4.93C5.48 4.49 5.4 4.05 5.36 3.61C5.34 3.15 5.37 2.75 5.45 2.41C5.55 2.75 5.73 3.1 5.99 3.46C6.27 3.82 6.58 4.14 6.92 4.42C7.28 4.7 7.62 4.9 7.94 5.02C8.12 4.52 8.15 3.92 8.03 3.22C7.93 2.52 7.75 1.94 7.49 1.48C7.83 1.7 8.14 2.04 8.42 2.5C8.7 2.96 8.9 3.43 9.02 3.91C9.04 3.19 9.18 2.6 9.44 2.14C9.5 2.5 9.64 2.91 9.86 3.37C10.08 3.83 10.34 4.17 10.64 4.39C10.9 4.15 11.12 3.78 11.3 3.28C11.48 2.76 11.55 2.33 11.51 1.99C11.77 2.23 12 2.59 12.2 3.07C12.42 3.53 12.54 3.94 12.56 4.3C12.8 4.04 13.02 3.67 13.22 3.19C13.42 2.71 13.51 2.29 13.49 1.93C13.71 2.21 13.87 2.61 13.97 3.13C14.09 3.65 14.1 4.08 14 4.42C14.28 4.24 14.55 3.95 14.81 3.55C15.07 3.15 15.23 2.78 15.29 2.44C15.49 2.72 15.61 3.1 15.65 3.58C15.71 4.06 15.71 4.47 15.65 4.81C16.09 4.57 16.54 4.18 17 3.64C17.48 3.1 17.79 2.58 17.93 2.08C18.07 2.4 18.15 2.78 18.17 3.22C18.19 3.66 18.16 4.1 18.08 4.54C18 4.98 17.86 5.34 17.66 5.62C18.12 5.44 18.6 5.14 19.1 4.72C19.62 4.28 20 3.85 20.24 3.43C20.3 3.91 20.22 4.48 20 5.14C19.8 5.78 19.53 6.27 19.19 6.61C19.61 6.65 20.11 6.58 20.69 6.4C21.29 6.22 21.76 6 22.1 5.74C22.1 6.02 22.02 6.34 21.86 6.7C21.72 7.06 21.54 7.4 21.32 7.72C21.1 8.02 20.87 8.25 20.63 8.41C21.01 8.21 21.49 8.13 22.07 8.17C22.67 8.21 23.16 8.34 23.54 8.56C23.12 8.58 22.65 8.74 22.13 9.04C21.63 9.34 21.25 9.65 20.99 9.97C20.95 10.19 20.8 10.47 20.54 10.81C20.28 11.13 20.05 11.33 19.85 11.41C19.79 11.21 19.63 10.94 19.37 10.6C19.13 10.26 18.91 10.05 18.71 9.97C18.43 10.19 18.2 10.55 18.02 11.05C17.84 11.53 17.75 11.95 17.75 12.31C17.61 12.17 17.47 11.98 17.33 11.74C17.43 11.96 17.5 12.19 17.54 12.43C17.58 12.65 17.59 12.83 17.57 12.97C17.85 12.87 18.15 12.65 18.47 12.31C18.79 11.97 19 11.66 19.1 11.38C19.24 11.66 19.31 12.03 19.31 12.49C19.33 12.95 19.27 13.32 19.13 13.6C19.55 13.48 19.99 13.23 20.45 12.85C20.93 12.45 21.26 12.06 21.44 11.68C21.46 12.1 21.37 12.6 21.17 13.18C20.97 13.76 20.72 14.2 20.42 14.5C20.7 14.18 21.11 13.9 21.65 13.66C22.19 13.4 22.67 13.27 23.09 13.27C22.71 13.47 22.33 13.8 21.95 14.26C21.57 14.7 21.32 15.13 21.2 15.55C21.62 15.31 22.16 15.18 22.82 15.16C23.48 15.12 24.05 15.16 24.53 15.28C24.05 15.34 23.51 15.54 22.91 15.88C22.33 16.22 21.92 16.6 21.68 17.02C22.02 17.04 22.42 17.15 22.88 17.35C23.36 17.55 23.7 17.79 23.9 18.07C23.58 18.07 23.18 18.18 22.7 18.4C22.22 18.62 21.88 18.87 21.68 19.15C21.96 19.55 22.38 19.93 22.94 20.29C23.5 20.65 24.02 20.88 24.5 20.98C24.06 21.16 23.5 21.23 22.82 21.19C22.14 21.13 21.59 20.98 21.17 20.74C21.21 21.08 21.37 21.46 21.65 21.88C21.93 22.3 22.2 22.62 22.46 22.84C22.12 22.9 21.71 22.86 21.23 22.72C20.75 22.56 20.37 22.38 20.09 22.18C20.13 22.64 20.32 23.13 20.66 23.65C21.02 24.15 21.4 24.53 21.8 24.79C21.36 24.63 20.9 24.35 20.42 23.95C19.96 23.55 19.64 23.14 19.46 22.72C19.46 23.2 19.61 23.72 19.91 24.28C20.21 24.84 20.54 25.28 20.9 25.6C20.46 25.4 20.02 25.07 19.58 24.61C19.14 24.13 18.87 23.66 18.77 23.2C18.59 23.52 18.5 23.97 18.5 24.55C18.52 25.13 18.6 25.6 18.74 25.96C18.38 25.82 17.98 25.56 17.54 25.18C17.12 24.8 16.83 24.44 16.67 24.1C16.87 24.52 17.02 25.03 17.12 25.63C17.22 26.25 17.18 26.78 17 27.22C17.04 26.76 16.92 26.25 16.64 25.69C16.36 25.13 16.06 24.68 15.74 24.34C15.5 24.58 15.31 24.94 15.17 25.42C15.03 25.92 14.97 26.34 14.99 26.68C14.69 26.52 14.39 26.22 14.09 25.78C13.81 25.36 13.65 24.99 13.61 24.67C13.31 25.09 13.11 25.65 13.01 26.35C12.93 27.05 12.97 27.65 13.13 28.15C12.85 27.71 12.59 27.15 12.35 26.47C12.13 25.79 11.87 25.19 11.57 24.67ZM12.89 10.03C12.85 10.05 12.8 10.07 12.74 10.09C12.88 10.39 12.99 10.75 13.07 11.17C13.15 11.57 13.15 11.9 13.07 12.16C13.23 11.98 13.37 11.75 13.49 11.47C13.43 11.57 13.37 11.67 13.31 11.77C13.15 11.45 13.07 11.02 13.07 10.48C13.09 9.92 13.17 9.48 13.31 9.16C13.07 9.28 12.85 9.53 12.65 9.91H12.68C12.76 9.95 12.83 9.99 12.89 10.03ZM15.02 10.12C14.92 10.46 14.92 10.87 15.02 11.35C15.12 11.83 15.27 12.21 15.47 12.49C15.71 12.41 15.99 12.21 16.31 11.89C16.63 11.57 16.83 11.29 16.91 11.05C16.97 11.09 17.03 11.16 17.09 11.26C16.91 10.84 16.81 10.46 16.79 10.12C16.75 10.6 16.61 11 16.37 11.32C16.39 11.12 16.36 10.89 16.28 10.63C16.2 10.35 16.09 10.13 15.95 9.97C15.77 10.21 15.64 10.53 15.56 10.93C15.5 11.33 15.51 11.67 15.59 11.95C15.45 11.69 15.33 11.37 15.23 10.99C15.15 10.59 15.15 10.25 15.23 9.97C15.03 10.05 14.82 10.17 14.6 10.33C14.38 10.49 14.17 10.68 13.97 10.9C14.01 11.16 14.02 11.44 14 11.74C14.1 11.44 14.24 11.14 14.42 10.84C14.62 10.54 14.82 10.3 15.02 10.12ZM11.99 10.48C11.97 10.54 11.96 10.59 11.96 10.63C12.04 10.53 12.12 10.44 12.2 10.36C12.12 10.4 12.05 10.44 11.99 10.48ZM10.85 11.5C11.13 11.4 11.45 11.17 11.81 10.81C11.79 10.75 11.76 10.7 11.72 10.66C11.32 10.94 11.03 11.22 10.85 11.5ZM10.1 17.98C10.18 18.16 10.23 18.41 10.25 18.73C10.27 19.03 10.24 19.28 10.16 19.48C10.38 19.38 10.6 19.2 10.82 18.94C11.06 18.68 11.22 18.43 11.3 18.19C11.38 18.49 11.4 18.83 11.36 19.21C11.44 19.01 11.55 18.82 11.69 18.64C11.83 18.46 11.97 18.33 12.11 18.25C12.07 18.43 12.08 18.65 12.14 18.91C12.22 18.67 12.25 18.37 12.23 18.01C12.03 17.97 11.85 17.93 11.69 17.89C11.85 17.85 12.02 17.81 12.2 17.77C12.16 17.37 12.08 17.03 11.96 16.75C11.88 17.07 11.68 17.44 11.36 17.86C11.04 18.28 10.73 18.56 10.43 18.7C10.45 18.38 10.36 17.97 10.16 17.47C9.98 16.97 9.78 16.61 9.56 16.39C9.36 16.47 9.11 16.63 8.81 16.87C8.53 17.09 8.3 17.32 8.12 17.56C8.22 17.8 8.34 18.04 8.48 18.28C8.62 18.52 8.76 18.71 8.9 18.85C9.1 18.83 9.33 18.73 9.59 18.55C9.85 18.35 10.02 18.16 10.1 17.98ZM14.3 17.32C14.16 17.42 14.03 17.54 13.91 17.68C13.95 17.68 13.99 17.69 14.03 17.71C14.11 17.55 14.2 17.42 14.3 17.32ZM12.68 20.05C12.56 19.55 12.6 19.02 12.8 18.46C12.8 18.4 12.8 18.32 12.8 18.22C12.76 18.2 12.71 18.18 12.65 18.16C12.49 18.52 12.32 18.78 12.14 18.94C12.26 19.44 12.44 19.81 12.68 20.05ZM13.67 18.91C13.67 18.83 13.68 18.76 13.7 18.7C13.58 18.62 13.46 18.55 13.34 18.49C13.26 18.63 13.19 18.77 13.13 18.91C13.29 19.37 13.5 19.71 13.76 19.93C13.84 19.61 13.85 19.22 13.79 18.76C13.75 18.8 13.71 18.85 13.67 18.91ZM28.198 24.94C27.998 25.12 27.798 25.38 27.598 25.72C27.418 26.06 27.308 26.37 27.268 26.65C27.128 26.43 27.038 26.11 26.998 25.69C26.978 25.29 27.028 24.96 27.148 24.7C27.008 24.94 26.768 25.21 26.428 25.51C26.088 25.81 25.778 25.99 25.498 26.05C25.618 25.77 25.688 25.41 25.708 24.97C25.728 24.53 25.668 24.18 25.528 23.92C25.148 23.98 24.728 24.15 24.268 24.43C23.808 24.71 23.478 25.01 23.278 25.33C23.318 25.01 23.428 24.66 23.608 24.28C23.788 23.9 23.998 23.57 24.238 23.29C23.998 23.51 23.708 23.69 23.368 23.83C23.048 23.97 22.738 24.04 22.438 24.04C22.778 23.96 23.118 23.76 23.458 23.44C23.818 23.12 24.078 22.81 24.238 22.51C23.978 22.59 23.638 22.62 23.218 22.6C22.798 22.56 22.468 22.47 22.228 22.33C22.488 22.25 22.778 22.08 23.098 21.82C23.418 21.54 23.638 21.27 23.758 21.01C23.498 20.75 23.108 20.55 22.588 20.41C22.068 20.27 21.628 20.23 21.268 20.29C21.588 20.09 21.998 19.93 22.498 19.81C22.998 19.69 23.428 19.67 23.788 19.75C23.508 19.67 23.218 19.5 22.918 19.24C22.598 18.96 22.368 18.69 22.228 18.43C22.468 18.57 22.798 18.65 23.218 18.67C23.658 18.67 24.008 18.62 24.268 18.52C24.248 18.22 24.128 17.89 23.908 17.53C23.688 17.15 23.458 16.87 23.218 16.69C23.518 16.69 23.868 16.77 24.268 16.93C24.668 17.09 24.968 17.29 25.168 17.53C24.928 17.21 24.758 16.76 24.658 16.18C24.578 15.58 24.588 15.09 24.688 14.71C24.888 15.05 25.208 15.42 25.648 15.82C26.108 16.2 26.528 16.43 26.908 16.51C26.928 16.37 27.028 16.17 27.208 15.91C27.388 15.63 27.538 15.46 27.658 15.4C27.738 15.48 27.928 15.59 28.228 15.73C28.528 15.85 28.748 15.9 28.888 15.88C29.028 15.7 29.138 15.43 29.218 15.07C29.318 14.71 29.338 14.42 29.278 14.2C29.398 14.26 29.518 14.36 29.638 14.5C29.778 14.64 29.898 14.79 29.998 14.95C29.898 14.51 29.728 14.18 29.488 13.96C29.328 14.08 29.178 14.28 29.038 14.56C28.898 14.84 28.818 15.08 28.798 15.28C28.638 15.16 28.478 14.96 28.318 14.68C28.158 14.4 28.078 14.16 28.078 13.96C28.078 14.24 27.968 14.58 27.748 14.98C27.548 15.38 27.338 15.67 27.118 15.85C27.138 15.57 27.038 15.23 26.818 14.83C26.618 14.41 26.408 14.12 26.188 13.96C26.088 14.12 25.898 14.28 25.618 14.44C25.338 14.6 25.108 14.69 24.928 14.71C25.008 14.53 25.028 14.28 24.988 13.96C24.968 13.64 24.908 13.4 24.808 13.24C24.768 13 24.648 12.71 24.448 12.37C24.248 12.01 24.048 11.77 23.848 11.65C24.068 11.57 24.378 11.53 24.778 11.53C25.178 11.53 25.488 11.59 25.708 11.71C25.748 11.45 25.708 11.15 25.588 10.81C25.468 10.45 25.318 10.19 25.138 10.03C25.378 10.05 25.658 10.14 25.978 10.3C26.318 10.46 26.568 10.64 26.728 10.84C26.788 10.66 26.788 10.43 26.728 10.15C26.668 9.85 26.588 9.62 26.488 9.46C26.628 9.5 26.778 9.58 26.938 9.7C27.118 9.82 27.268 9.95 27.388 10.09C27.208 9.81 27.068 9.49 26.968 9.13C26.868 8.77 26.848 8.45 26.908 8.17C26.928 8.51 27.058 8.88 27.298 9.28C27.538 9.66 27.808 9.94 28.108 10.12C27.968 9.74 27.898 9.27 27.898 8.71C27.918 8.13 28.028 7.67 28.228 7.33C28.308 7.73 28.508 8.16 28.828 8.62C29.168 9.08 29.498 9.41 29.818 9.61C29.778 9.29 29.838 8.88 29.998 8.38C30.158 7.86 30.358 7.48 30.598 7.24C30.658 7.58 30.818 7.97 31.078 8.41C31.338 8.85 31.598 9.18 31.858 9.4C31.818 9.2 31.838 8.84 31.918 8.32C31.998 7.8 32.108 7.23 32.248 6.61C32.388 5.99 32.538 5.43 32.698 4.93C32.858 4.43 33.008 4.1 33.148 3.94C33.088 4.14 33.078 4.5 33.118 5.02C33.178 5.54 33.258 6.11 33.358 6.73C33.458 7.35 33.568 7.92 33.688 8.44C33.808 8.96 33.918 9.31 34.018 9.49C34.318 9.31 34.618 9.01 34.918 8.59C35.238 8.15 35.418 7.76 35.458 7.42C35.678 7.68 35.838 8.07 35.938 8.59C36.038 9.11 36.068 9.54 36.028 9.88C36.168 9.52 36.468 9.15 36.928 8.77C37.408 8.37 37.838 8.12 38.218 8.02C37.998 8.36 37.878 8.84 37.858 9.46C37.838 10.06 37.898 10.54 38.038 10.9C38.198 10.62 38.468 10.36 38.848 10.12C39.248 9.88 39.608 9.75 39.928 9.73C39.688 9.93 39.448 10.22 39.208 10.6C38.988 10.98 38.858 11.33 38.818 11.65C38.998 11.41 39.258 11.2 39.598 11.02C39.958 10.82 40.288 10.73 40.588 10.75C40.308 10.87 40.028 11.06 39.748 11.32C39.468 11.58 39.278 11.85 39.178 12.13C39.518 11.89 39.958 11.7 40.498 11.56C41.058 11.42 41.538 11.39 41.938 11.47C41.538 11.55 41.108 11.77 40.648 12.13C40.188 12.47 39.878 12.83 39.718 13.21C39.918 13.17 40.178 13.2 40.498 13.3C40.818 13.38 41.058 13.49 41.218 13.63C41.018 13.69 40.788 13.83 40.528 14.05C40.268 14.25 40.098 14.44 40.018 14.62C40.238 14.8 40.538 14.94 40.918 15.04C41.298 15.14 41.628 15.17 41.908 15.13C41.688 15.31 41.398 15.48 41.038 15.64C40.678 15.78 40.358 15.84 40.078 15.82C40.378 15.82 40.738 15.95 41.158 16.21C41.578 16.47 41.878 16.72 42.058 16.96C41.758 16.98 41.398 17.12 40.978 17.38C40.558 17.62 40.258 17.86 40.078 18.1C40.358 18.1 40.698 18.21 41.098 18.43C41.498 18.65 41.778 18.88 41.938 19.12C41.658 19.12 41.318 19.24 40.918 19.48C40.538 19.7 40.258 19.91 40.078 20.11C40.338 20.37 40.718 20.62 41.218 20.86C41.718 21.1 42.148 21.21 42.508 21.19C42.288 21.49 41.918 21.75 41.398 21.97C40.878 22.19 40.438 22.29 40.078 22.27C40.378 22.59 40.818 22.87 41.398 23.11C41.998 23.33 42.518 23.4 42.958 23.32C42.618 23.6 42.158 23.84 41.578 24.04C40.998 24.24 40.488 24.34 40.048 24.34C40.028 24.54 40.058 24.78 40.138 25.06C40.238 25.34 40.358 25.56 40.498 25.72C40.298 25.64 40.088 25.5 39.868 25.3C39.668 25.1 39.528 24.9 39.448 24.7C39.448 24.94 39.338 25.22 39.118 25.54C38.918 25.88 38.728 26.13 38.548 26.29C38.528 26.05 38.428 25.75 38.248 25.39C38.068 25.05 37.868 24.82 37.648 24.7C37.708 25.12 37.628 25.62 37.408 26.2C37.208 26.8 36.958 27.24 36.658 27.52C36.678 27.1 36.588 26.59 36.388 25.99C36.188 25.41 35.938 24.98 35.638 24.7C35.638 25.04 35.518 25.42 35.278 25.84C35.058 26.28 34.828 26.61 34.588 26.83C34.628 26.51 34.588 26.11 34.468 25.63C34.348 25.17 34.178 24.81 33.958 24.55C33.838 24.49 33.708 24.44 33.568 24.4C33.568 24.56 33.598 24.68 33.658 24.76C33.398 24.74 33.098 24.62 32.758 24.4C32.698 24.4 32.648 24.41 32.608 24.43C32.648 24.41 32.678 24.39 32.698 24.37C32.558 24.25 32.448 24.15 32.368 24.07C32.328 24.43 32.368 24.86 32.488 25.36C32.628 25.88 32.838 26.27 33.118 26.53C32.778 26.39 32.428 26.12 32.068 25.72C31.728 25.34 31.508 24.97 31.408 24.61C31.528 25.01 31.528 25.52 31.408 26.14C31.288 26.78 31.108 27.28 30.868 27.64C30.788 27.2 30.538 26.71 30.118 26.17C29.718 25.63 29.078 25.22 28.198 24.94ZM31.558 14.23C31.358 14.25 31.098 14.2 30.778 14.08C31.098 14.54 31.248 15 31.228 15.46C31.328 15.4 31.458 15.28 31.618 15.1C31.778 14.9 31.898 14.72 31.978 14.56C31.678 14.52 31.428 14.45 31.228 14.35C31.468 14.35 31.738 14.31 32.038 14.23L32.008 14.17L32.068 14.2C31.968 13.72 31.828 13.36 31.648 13.12C31.588 13.24 31.538 13.43 31.498 13.69C31.478 13.93 31.498 14.11 31.558 14.23ZM30.478 13.93C30.518 14.11 30.508 14.33 30.448 14.59C30.388 14.85 30.298 15.07 30.178 15.25C30.238 15.37 30.278 15.49 30.298 15.61C30.418 15.41 30.498 15.15 30.538 14.83C30.598 14.51 30.598 14.22 30.538 13.96L30.478 13.93ZM31.588 21.16C31.528 20.98 31.508 20.77 31.528 20.53C31.548 20.27 31.598 20.06 31.678 19.9C31.718 20.06 31.808 20.25 31.948 20.47C32.108 20.69 32.258 20.84 32.398 20.92C32.438 20.84 32.448 20.71 32.428 20.53C32.428 20.33 32.408 20.19 32.368 20.11C32.548 20.05 32.778 20.06 33.058 20.14C32.878 20.06 32.698 19.95 32.518 19.81C32.358 19.67 32.238 19.53 32.158 19.39C32.318 19.49 32.528 19.55 32.788 19.57C33.048 19.59 33.268 19.57 33.448 19.51C33.388 19.41 33.278 19.3 33.118 19.18C32.978 19.06 32.848 19 32.728 19C32.808 18.94 32.908 18.88 33.028 18.82C32.988 18.78 32.958 18.73 32.938 18.67C32.858 18.65 32.788 18.63 32.728 18.61C32.728 18.61 32.778 18.6 32.878 18.58C32.858 18.54 32.828 18.46 32.788 18.34C32.708 18.48 32.658 18.68 32.638 18.94C32.618 19.18 32.638 19.38 32.698 19.54C32.538 19.44 32.398 19.28 32.278 19.06C32.178 18.84 32.118 18.64 32.098 18.46C32.018 18.62 31.968 18.82 31.948 19.06C31.928 19.3 31.948 19.51 32.008 19.69C31.668 19.41 31.478 19.05 31.438 18.61C31.378 18.71 31.318 18.87 31.258 19.09C31.218 19.29 31.208 19.45 31.228 19.57C31.108 19.55 30.948 19.49 30.748 19.39C30.568 19.27 30.448 19.16 30.388 19.06C30.408 19.2 30.468 19.36 30.568 19.54C30.688 19.72 30.808 19.85 30.928 19.93C30.788 19.95 30.608 19.93 30.388 19.87C30.188 19.81 30.038 19.74 29.938 19.66C30.018 19.74 30.128 19.82 30.268 19.9C30.428 19.98 30.568 20.01 30.688 19.99C30.608 20.07 30.508 20.13 30.388 20.17C30.548 20.17 30.668 20.18 30.748 20.2C30.688 20.28 30.638 20.42 30.598 20.62C30.578 20.8 30.578 20.94 30.598 21.04C30.738 20.96 30.858 20.82 30.958 20.62C31.058 20.42 31.118 20.25 31.138 20.11C31.238 20.23 31.308 20.4 31.348 20.62C31.408 20.82 31.488 21 31.588 21.16ZM45.0929 24.07C44.8929 24.09 44.6629 24.06 44.4029 23.98C44.1429 23.9 43.9429 23.79 43.8029 23.65C44.0029 23.67 44.2329 23.64 44.4929 23.56C44.7529 23.48 44.9529 23.37 45.0929 23.23C44.8929 22.99 44.5729 22.79 44.1329 22.63C43.7129 22.45 43.3529 22.35 43.0529 22.33C43.2529 22.09 43.5629 21.88 43.9829 21.7C44.4229 21.5 44.7929 21.41 45.0929 21.43C44.7129 21.19 44.2329 21.03 43.6529 20.95C43.0729 20.85 42.5629 20.85 42.1229 20.95C42.5029 20.71 42.9829 20.53 43.5629 20.41C44.1629 20.29 44.6729 20.31 45.0929 20.47C44.7929 20.21 44.3729 20.03 43.8329 19.93C43.2929 19.81 42.8329 19.81 42.4529 19.93C42.7129 19.75 43.0429 19.61 43.4429 19.51C43.8429 19.39 44.2329 19.33 44.6129 19.33C44.3729 19.29 44.1329 19.22 43.8929 19.12C43.6729 19 43.4929 18.87 43.3529 18.73C43.6129 18.77 43.9229 18.72 44.2829 18.58C44.6429 18.44 44.9129 18.27 45.0929 18.07C44.6529 18.11 44.1229 18.02 43.5029 17.8C42.8829 17.56 42.4229 17.27 42.1229 16.93C42.5229 16.95 42.9829 16.87 43.5029 16.69C43.3029 16.43 43.1429 16.07 43.0229 15.61C42.8029 15.53 42.6329 15.44 42.5129 15.34C42.1929 15.82 41.8429 16.16 41.4629 16.36C41.7029 16.08 41.8929 15.71 42.0329 15.25C42.1929 14.77 42.2529 14.34 42.2129 13.96C41.8729 14.06 41.4529 14.04 40.9529 13.9C40.4529 13.74 40.0529 13.56 39.7529 13.36C40.1129 13.42 40.5429 13.38 41.0429 13.24C41.5429 13.1 41.9329 12.91 42.2129 12.67C41.9929 12.49 41.7029 12.33 41.3429 12.19C40.9629 12.05 40.6329 11.99 40.3529 12.01C40.5529 11.83 40.8429 11.67 41.2229 11.53C41.6029 11.39 41.9329 11.34 42.2129 11.38C41.9729 11.04 41.5929 10.75 41.0729 10.51C40.5329 10.25 40.0529 10.13 39.6329 10.15C39.9729 9.93 40.4329 9.78 41.0129 9.7C41.5929 9.6 42.0729 9.62 42.4529 9.76C42.4129 9.54 42.4029 9.29 42.4229 9.01C42.3229 8.97 42.2329 8.92 42.1529 8.86C42.2529 8.88 42.3429 8.9 42.4229 8.92C42.4829 8.54 42.5829 8.16 42.7229 7.78C42.6829 7.76 42.6329 7.73 42.5729 7.69C42.6329 7.71 42.6929 7.72 42.7529 7.72C42.8929 7.34 43.0529 7.05 43.2329 6.85C42.8929 6.69 42.5729 6.54 42.2729 6.4C41.9929 6.24 41.8129 6.11 41.7329 6.01C41.8529 6.09 42.0829 6.17 42.4229 6.25C42.7829 6.31 43.1729 6.37 43.5929 6.43C44.0129 6.47 44.3929 6.5 44.7329 6.52C45.0929 6.52 45.3429 6.49 45.4829 6.43C45.2829 6.07 44.9829 5.71 44.5829 5.35C44.1829 4.97 43.7929 4.71 43.4129 4.57C43.8129 4.51 44.2829 4.55 44.8229 4.69C45.3629 4.83 45.7929 5.03 46.1129 5.29C46.0329 4.89 45.8329 4.47 45.5129 4.03C45.2129 3.59 44.8829 3.28 44.5229 3.1C44.9229 3.18 45.3429 3.37 45.7829 3.67C46.2229 3.95 46.5529 4.26 46.7729 4.6C46.8129 4.18 46.7129 3.71 46.4729 3.19C46.2329 2.67 45.9529 2.28 45.6329 2.02C46.0129 2.18 46.4029 2.46 46.8029 2.86C47.2029 3.26 47.4529 3.66 47.5529 4.06C47.7329 3.7 47.8529 3.23 47.9129 2.65C47.9729 2.07 47.9229 1.61 47.7629 1.27C48.1029 1.43 48.4629 1.73 48.8429 2.17C49.2429 2.59 49.4929 2.99 49.5929 3.37C49.7529 2.99 49.8329 2.54 49.8329 2.02C49.8329 1.5 49.7329 1.07 49.5329 0.73C49.7929 1.07 50.0029 1.49 50.1629 1.99C50.2029 1.59 50.2929 1.24 50.4329 0.939999C50.3529 1.26 50.3729 1.65 50.4929 2.11C50.6129 2.57 50.7929 2.92 51.0329 3.16C51.0529 2.9 51.1429 2.58 51.3029 2.2C51.4829 1.82 51.6729 1.54 51.8729 1.36C51.9129 1.62 52.0229 1.94 52.2029 2.32C52.4029 2.68 52.6129 2.94 52.8329 3.1C52.7929 2.84 52.8329 2.54 52.9529 2.2C53.0729 1.86 53.2229 1.6 53.4029 1.42C53.3629 1.66 53.4029 1.95 53.5229 2.29C53.6629 2.63 53.8229 2.9 54.0029 3.1C54.2229 2.76 54.3929 2.33 54.5129 1.81C54.6329 1.27 54.6529 0.799999 54.5729 0.399998C54.8129 0.739999 54.9929 1.18 55.1129 1.72C55.2329 2.24 55.2429 2.7 55.1429 3.1C55.3229 3.2 55.5829 3.25 55.9229 3.25C56.2629 3.25 56.5229 3.2 56.7029 3.1C56.6829 3.3 56.5829 3.54 56.4029 3.82C56.2229 4.1 56.0529 4.3 55.8929 4.42C56.2529 4.68 56.7229 4.89 57.3029 5.05C57.8829 5.21 58.3929 5.26 58.8329 5.2C58.4929 5.48 58.0229 5.7 57.4229 5.86C56.8429 6.02 56.3329 6.05 55.8929 5.95C56.0329 6.17 56.2729 6.4 56.6129 6.64C56.9729 6.88 57.2829 7.03 57.5429 7.09C57.3229 7.25 57.0129 7.4 56.6129 7.54C56.2329 7.66 55.9129 7.71 55.6529 7.69C55.5329 7.89 55.4429 8.15 55.3829 8.47C55.3229 8.79 55.3329 9.06 55.4129 9.28C55.3529 9.22 55.3029 9.15 55.2629 9.07C55.2229 9.23 55.2429 9.45 55.3229 9.73C55.4029 10.01 55.4929 10.21 55.5929 10.33C55.7329 10.49 55.9529 10.65 56.2529 10.81C56.5729 10.97 56.8429 11.06 57.0629 11.08C56.9229 11.26 56.6929 11.43 56.3729 11.59C56.0729 11.75 55.8129 11.84 55.5929 11.86C55.8729 11.84 56.2029 11.94 56.5829 12.16C56.9829 12.36 57.2729 12.57 57.4529 12.79C57.1729 12.81 56.8329 12.92 56.4329 13.12C56.0529 13.3 55.7729 13.5 55.5929 13.72C55.8529 13.82 56.1229 14 56.4029 14.26C56.6829 14.52 56.8829 14.77 57.0029 15.01C56.8029 14.83 56.5229 14.67 56.1629 14.53C55.8229 14.39 55.5029 14.33 55.2029 14.35C55.2829 14.73 55.2329 15.19 55.0529 15.73C54.8929 16.27 54.6929 16.7 54.4529 17.02C54.4929 16.62 54.4329 16.15 54.2729 15.61C54.1329 15.05 53.9229 14.63 53.6429 14.35C53.6829 14.59 53.6629 14.88 53.5829 15.22C53.5029 15.54 53.3829 15.79 53.2229 15.97C53.2429 15.83 53.2429 15.66 53.2229 15.46C53.0429 15.56 52.8229 15.65 52.5629 15.73C52.5429 15.83 52.5229 15.93 52.5029 16.03C52.7829 16.11 53.0529 16.22 53.3129 16.36C53.5729 16.5 53.7829 16.65 53.9429 16.81C53.5629 16.77 53.1029 16.87 52.5629 17.11C52.0429 17.33 51.6429 17.57 51.3629 17.83C51.5029 17.99 51.7129 18.15 51.9929 18.31C52.2929 18.47 52.5529 18.55 52.7729 18.55C52.6529 18.73 52.4429 18.9 52.1429 19.06C51.8429 19.2 51.5829 19.27 51.3629 19.27C51.6229 19.51 51.9929 19.74 52.4729 19.96C52.9529 20.16 53.3729 20.23 53.7329 20.17C53.4929 20.43 53.1229 20.65 52.6229 20.83C52.1429 20.99 51.7229 21.07 51.3629 21.07C51.6029 21.11 51.9029 21.26 52.2629 21.52C52.6429 21.76 52.9029 21.99 53.0429 22.21C52.8029 22.25 52.4929 22.4 52.1129 22.66C51.7529 22.92 51.5029 23.15 51.3629 23.35C51.3429 23.51 51.3929 23.72 51.5129 23.98C51.6529 24.24 51.7829 24.42 51.9029 24.52C51.7629 24.6 51.5429 24.66 51.2429 24.7C50.9629 24.74 50.7529 24.74 50.6129 24.7C50.6129 25 50.5029 25.35 50.2829 25.75C50.0829 26.17 49.8729 26.48 49.6529 26.68C49.6329 26.38 49.5329 26.02 49.3529 25.6C49.1729 25.18 48.9529 24.88 48.6929 24.7C48.4329 24.94 48.1929 25.3 47.9729 25.78C47.7729 26.28 47.6829 26.71 47.7029 27.07C47.4429 26.81 47.2029 26.44 46.9829 25.96C46.7629 25.48 46.6629 25.06 46.6829 24.7C46.5029 24.88 46.3629 25.14 46.2629 25.48C46.1629 25.82 46.1229 26.12 46.1429 26.38C45.9629 26.2 45.8029 25.91 45.6629 25.51C45.5229 25.11 45.3329 24.63 45.0929 24.07ZM45.2129 7.48C45.0529 7.48 44.7829 7.42 44.4029 7.3C44.0429 7.16 43.6629 7.01 43.2629 6.85C43.2229 7.13 43.2529 7.45 43.3529 7.81C43.4729 7.83 43.6029 7.84 43.7429 7.84C43.7229 7.66 43.7229 7.48 43.7429 7.3C43.7829 7.46 43.8329 7.63 43.8929 7.81C44.4329 7.77 44.8729 7.66 45.2129 7.48ZM53.0129 8.02C52.9929 8.12 52.9629 8.24 52.9229 8.38C52.9229 8.48 52.9129 8.58 52.8929 8.68C53.0329 8.78 53.1629 8.93 53.2829 9.13C53.4229 9.33 53.4929 9.48 53.4929 9.58C53.4529 9.32 53.4629 9.02 53.5229 8.68C53.4229 8.52 53.3229 8.36 53.2229 8.2C53.1429 8.02 53.0929 7.87 53.0729 7.75C53.0329 7.81 53.0029 7.9 52.9829 8.02H53.0129ZM54.0029 9.16C53.9629 9.12 53.9229 9.08 53.8829 9.04C53.9429 9.3 54.0229 9.52 54.1229 9.7C54.2029 9.58 54.3729 9.45 54.6329 9.31C54.8929 9.15 55.1029 9.07 55.2629 9.07C55.1429 8.89 55.0429 8.68 54.9629 8.44C54.9029 8.18 54.8929 7.95 54.9329 7.75C54.7329 7.85 54.5329 8.06 54.3329 8.38C54.1529 8.7 54.0429 8.96 54.0029 9.16ZM43.4729 8.2C43.5529 8.44 43.6429 8.67 43.7429 8.89C43.8029 8.89 43.8529 8.89 43.8929 8.89C43.8329 8.69 43.7929 8.49 43.7729 8.29C43.6729 8.27 43.5729 8.24 43.4729 8.2ZM45.0929 8.44C44.8529 8.48 44.5629 8.47 44.2229 8.41C44.2829 8.53 44.3529 8.64 44.4329 8.74C44.6929 8.66 44.9129 8.56 45.0929 8.44ZM51.3629 8.92C51.4429 8.9 51.5129 8.88 51.5729 8.86C51.4929 8.88 51.4229 8.9 51.3629 8.92ZM52.2029 9.7C52.3229 9.62 52.4529 9.48 52.5929 9.28V9.22C52.4729 9.42 52.3429 9.58 52.2029 9.7ZM44.2529 9.7C44.1929 9.62 44.1429 9.53 44.1029 9.43L44.0429 9.4C44.1229 9.52 44.1929 9.62 44.2529 9.7ZM52.8029 14.35C52.8229 14.49 52.7829 14.77 52.6829 15.19C52.8629 15.27 53.0329 15.32 53.1929 15.34C53.1129 14.94 52.9829 14.61 52.8029 14.35ZM44.1329 14.35C43.9529 14.59 43.8029 14.91 43.6829 15.31C43.8229 15.29 43.9629 15.27 44.1029 15.25C44.1429 14.91 44.1529 14.61 44.1329 14.35ZM42.5129 15.31C42.6529 15.35 42.8029 15.37 42.9629 15.37C42.8829 14.97 42.8829 14.65 42.9629 14.41C42.8829 14.69 42.7329 14.99 42.5129 15.31ZM43.5629 15.76C43.5029 16.14 43.4929 16.45 43.5329 16.69C43.5529 16.69 43.5829 16.68 43.6229 16.66C43.7429 16.4 43.8529 16.12 43.9529 15.82C43.8129 15.8 43.6829 15.78 43.5629 15.76ZM45.0929 15.79C44.9529 15.81 44.7929 15.83 44.6129 15.85C44.4729 16.07 44.3229 16.27 44.1629 16.45C44.5829 16.25 44.8929 16.03 45.0929 15.79ZM51.7829 15.85C51.8829 15.85 51.9829 15.87 52.0829 15.91V15.82C51.9829 15.84 51.8829 15.85 51.7829 15.85ZM63.3713 24.85C63.2513 25.03 63.0213 25.23 62.6813 25.45C62.3613 25.69 62.1013 25.83 61.9013 25.87C61.8813 25.67 61.7913 25.38 61.6313 25C61.4913 24.62 61.3413 24.36 61.1813 24.22C61.0013 24.5 60.6913 24.77 60.2513 25.03C59.8313 25.31 59.4613 25.47 59.1413 25.51C59.3013 25.23 59.4213 24.84 59.5013 24.34C59.5813 23.84 59.5713 23.43 59.4713 23.11C59.3113 23.27 59.0913 23.41 58.8113 23.53C58.5313 23.63 58.2813 23.68 58.0613 23.68C58.2213 23.56 58.3713 23.36 58.5113 23.08C58.6513 22.8 58.7213 22.55 58.7213 22.33C58.4213 22.59 57.9913 22.79 57.4313 22.93C56.8713 23.05 56.3913 23.08 55.9913 23.02C56.3513 22.84 56.7313 22.56 57.1313 22.18C57.5513 21.78 57.8213 21.38 57.9413 20.98C57.7613 20.86 57.5013 20.78 57.1613 20.74C56.8213 20.7 56.5513 20.7 56.3513 20.74C56.4313 20.54 56.5913 20.33 56.8313 20.11C57.0713 19.87 57.2913 19.71 57.4913 19.63C57.1713 19.41 56.7413 19.29 56.2013 19.27C55.6613 19.23 55.2113 19.28 54.8513 19.42C55.0913 19.12 55.4713 18.89 55.9913 18.73C56.4913 18.55 56.9313 18.45 57.3113 18.43C57.1313 18.21 56.8413 17.97 56.4413 17.71C56.0613 17.45 55.7313 17.3 55.4513 17.26C55.6113 17.02 55.8913 16.78 56.2913 16.54C56.6913 16.28 57.0313 16.12 57.3113 16.06C56.8713 16.04 56.3913 15.92 55.8713 15.7C55.3313 15.46 54.9013 15.19 54.5813 14.89C54.9813 15.09 55.4813 15.17 56.0813 15.13C56.6813 15.09 57.1713 14.96 57.5513 14.74C57.5513 14.56 57.4613 14.29 57.2813 13.93C57.1213 13.57 56.9613 13.32 56.8013 13.18C56.9413 13.06 57.2013 12.93 57.5813 12.79C57.9613 12.65 58.2513 12.6 58.4513 12.64C58.3113 12.48 58.1813 12.22 58.0613 11.86C57.9413 11.5 57.8913 11.21 57.9113 10.99C58.0913 11.13 58.3613 11.22 58.7213 11.26C59.1013 11.3 59.4013 11.3 59.6213 11.26C59.7213 11.04 59.7613 10.73 59.7413 10.33C59.7213 9.93 59.6413 9.63 59.5013 9.43C59.7413 9.43 60.0413 9.52 60.4013 9.7C60.7613 9.88 61.0113 10.07 61.1513 10.27C61.0513 10.11 60.9813 9.89 60.9413 9.61C60.9013 9.33 60.9013 9.09 60.9413 8.89C61.0013 9.09 61.1113 9.31 61.2713 9.55C61.4513 9.77 61.6313 9.92 61.8113 10C61.7313 9.78 61.7213 9.5 61.7813 9.16C61.8413 8.82 61.9313 8.56 62.0513 8.38C62.0913 8.6 62.2213 8.84 62.4413 9.1C62.6613 9.36 62.8813 9.54 63.1013 9.64C63.3213 9.34 63.4713 8.92 63.5513 8.38C63.6313 7.84 63.6013 7.39 63.4613 7.03C63.7213 7.25 63.9513 7.57 64.1513 7.99C64.3513 8.41 64.4713 8.8 64.5113 9.16C64.5113 8.82 64.5813 8.42 64.7213 7.96C64.8813 7.48 65.0913 7.12 65.3513 6.88C65.3313 7.26 65.4113 7.71 65.5913 8.23C65.7713 8.73 65.9813 9.13 66.2213 9.43C66.4413 9.27 66.6713 9.02 66.9113 8.68C67.1713 8.32 67.3213 8 67.3613 7.72C67.5613 7.92 67.7313 8.23 67.8713 8.65C68.0113 9.07 68.0613 9.41 68.0213 9.67C68.1413 9.49 68.3513 9.29 68.6513 9.07C68.9713 8.85 69.2413 8.72 69.4613 8.68C69.4213 8.9 69.4513 9.2 69.5513 9.58C69.6713 9.94 69.8013 10.2 69.9413 10.36C70.1013 10.42 70.3713 10.42 70.7513 10.36C71.1513 10.28 71.4213 10.19 71.5613 10.09C71.6413 10.25 71.7113 10.52 71.7713 10.9C71.8313 11.28 71.8313 11.55 71.7713 11.71C71.9113 11.81 72.1713 11.9 72.5513 11.98C72.9513 12.06 73.2313 12.07 73.3913 12.01C73.4513 12.17 73.4313 12.45 73.3313 12.85C73.2513 13.23 73.1513 13.49 73.0313 13.63C73.2513 13.59 73.5613 13.66 73.9613 13.84C74.3613 14 74.6413 14.15 74.8013 14.29C74.6013 14.39 74.3713 14.62 74.1113 14.98C73.8713 15.32 73.7213 15.6 73.6613 15.82C73.9613 16.08 74.3913 16.31 74.9513 16.51C75.5113 16.69 75.9913 16.75 76.3913 16.69C76.1113 16.99 75.7013 17.26 75.1613 17.5C74.6213 17.74 74.1513 17.85 73.7513 17.83C73.8913 18.07 74.1113 18.32 74.4113 18.58C74.7113 18.82 75.0013 18.97 75.2813 19.03C75.0013 19.09 74.6713 19.09 74.2913 19.03C73.9113 18.95 73.6013 18.83 73.3613 18.67C73.3613 18.93 73.2713 19.25 73.0913 19.63C73.2113 19.93 73.2713 20.18 73.2713 20.38C73.6313 20.4 74.0313 20.53 74.4713 20.77C74.9113 20.99 75.2513 21.23 75.4913 21.49C75.1713 21.33 74.7513 21.28 74.2313 21.34C73.7313 21.38 73.3213 21.49 73.0013 21.67C73.0213 21.91 73.1313 22.18 73.3313 22.48C73.5313 22.76 73.7213 22.97 73.9013 23.11C73.6813 23.15 73.3913 23.12 73.0313 23.02C72.6913 22.92 72.4413 22.79 72.2813 22.63C72.6013 22.93 72.8913 23.36 73.1513 23.92C73.4313 24.48 73.5613 24.98 73.5413 25.42C73.3213 25.04 72.9613 24.66 72.4613 24.28C71.9613 23.9 71.4913 23.67 71.0513 23.59C70.9113 23.91 70.8313 24.35 70.8113 24.91C70.8113 25.45 70.8613 25.88 70.9613 26.2C70.6213 26.12 70.2413 25.9 69.8213 25.54C69.4013 25.18 69.1213 24.84 68.9813 24.52C68.8413 24.92 68.8113 25.4 68.8913 25.96C68.9913 26.54 69.1613 27 69.4013 27.34C69.1613 27.12 68.9513 26.82 68.7713 26.44C68.6113 26.06 68.5013 25.68 68.4413 25.3C68.3813 25.72 68.2613 26.07 68.0813 26.35C68.0413 26.11 67.9313 25.84 67.7513 25.54C67.5913 25.24 67.4113 25.03 67.2113 24.91C67.2113 25.17 67.1313 25.49 66.9713 25.87C66.8313 26.27 66.6713 26.57 66.4913 26.77C66.4713 26.59 66.3813 26.38 66.2213 26.14C66.0613 25.9 65.7613 25.66 65.3213 25.42C64.8813 25.2 64.2313 25.01 63.3713 24.85ZM65.3813 14.56C65.3813 14.7 65.4413 14.88 65.5613 15.1C65.6813 15.3 65.8013 15.44 65.9213 15.52C66.0613 15.42 66.1713 15.24 66.2513 14.98C66.1913 14.96 66.1413 14.94 66.1013 14.92C66.1213 14.9 66.1913 14.88 66.3113 14.86C66.3113 14.8 66.3213 14.75 66.3413 14.71C66.0213 14.65 65.7513 14.64 65.5313 14.68C65.6513 14.5 65.8413 14.34 66.1013 14.2C66.3613 14.04 66.6013 13.95 66.8213 13.93C66.6613 13.91 66.4613 13.93 66.2213 13.99C66.0013 14.05 65.8213 14.13 65.6813 14.23C65.7413 14.07 65.8513 13.91 66.0113 13.75C66.1913 13.59 66.3513 13.48 66.4913 13.42C66.3913 13.42 66.2613 13.47 66.1013 13.57C65.9413 13.67 65.8313 13.77 65.7713 13.87C65.7713 13.87 65.7513 13.81 65.7113 13.69C65.6713 13.95 65.6013 14.16 65.5013 14.32C65.5213 14.14 65.4913 13.92 65.4113 13.66C65.3313 13.4 65.2313 13.2 65.1113 13.06C65.0713 13.18 65.0713 13.35 65.1113 13.57C65.1513 13.79 65.2113 13.96 65.2913 14.08C65.1113 14.06 64.9113 14 64.6913 13.9C64.8913 14.08 65.0313 14.26 65.1113 14.44C64.9513 14.42 64.7513 14.44 64.5113 14.5C64.2913 14.54 64.1313 14.6 64.0313 14.68C64.1313 14.7 64.2713 14.77 64.4513 14.89C64.4513 14.89 64.4813 14.85 64.5413 14.77C64.5413 14.83 64.5513 14.9 64.5713 14.98C64.6113 15.04 64.6513 15.09 64.6913 15.13C64.6913 15.13 64.6613 15.13 64.6013 15.13C64.6813 15.29 64.7613 15.42 64.8413 15.52C64.8413 15.38 64.9013 15.21 65.0213 15.01C65.1613 14.79 65.2813 14.64 65.3813 14.56ZM67.0013 14.92C66.8613 14.84 66.7013 14.78 66.5213 14.74C66.5413 14.76 66.5613 14.79 66.5813 14.83C66.7413 14.83 66.8813 14.86 67.0013 14.92ZM64.2413 15.52C64.2413 15.5 64.2413 15.45 64.2413 15.37C64.2413 15.37 64.2413 15.42 64.2413 15.52ZM71.5613 18.67C71.5813 18.85 71.5413 19.07 71.4413 19.33C71.3613 19.59 71.2613 19.81 71.1413 19.99C71.1813 20.11 71.2113 20.21 71.2313 20.29C71.4913 20.07 71.7513 19.72 72.0113 19.24C71.8713 19 71.7213 18.81 71.5613 18.67ZM68.6813 19.03C68.8413 19.13 68.9813 19.32 69.1013 19.6C69.2413 19.88 69.3213 20.11 69.3413 20.29C69.5213 20.17 69.7213 19.96 69.9413 19.66C70.1613 19.34 70.2713 19.07 70.2713 18.85C70.3713 18.91 70.4813 19 70.6013 19.12C70.5013 18.92 70.3913 18.77 70.2713 18.67C70.2513 18.87 70.1413 19.12 69.9413 19.42C69.7413 19.72 69.5513 19.91 69.3713 19.99C69.3313 19.79 69.2113 19.55 69.0113 19.27C68.8113 18.97 68.6313 18.77 68.4713 18.67C68.3113 18.85 68.1913 19.1 68.1113 19.42C68.0313 19.74 68.0113 20.01 68.0513 20.23C67.7913 19.95 67.6413 19.54 67.6013 19C67.5413 19.34 67.4213 19.61 67.2413 19.81C67.5413 20.07 67.8113 20.23 68.0513 20.29C68.1913 20.19 68.3213 20 68.4413 19.72C68.5813 19.44 68.6613 19.21 68.6813 19.03ZM65.6213 18.67C65.6613 18.85 65.6713 19.08 65.6513 19.36C65.6513 19.64 65.6113 19.9 65.5313 20.14C65.6313 20.3 65.7513 20.46 65.8913 20.62C66.0513 20.76 66.1813 20.85 66.2813 20.89C66.2213 20.67 66.2313 20.37 66.3113 19.99C66.4113 19.61 66.5313 19.33 66.6713 19.15C66.7513 19.35 66.9313 19.57 67.2113 19.81C67.2513 19.65 67.2213 19.46 67.1213 19.24C67.0213 19 66.9113 18.81 66.7913 18.67C66.6913 18.73 66.5713 18.86 66.4313 19.06C66.2913 19.24 66.2213 19.39 66.2213 19.51C66.1013 19.45 65.9713 19.33 65.8313 19.15C65.6913 18.95 65.6213 18.79 65.6213 18.67ZM64.4813 20.89C64.5013 20.79 64.5613 20.67 64.6613 20.53C64.7813 20.39 64.9013 20.26 65.0213 20.14L64.9913 20.08C64.7113 20.38 64.5413 20.65 64.4813 20.89ZM76.4527 22.87C76.1327 22.97 75.7527 23 75.3127 22.96C74.8727 22.9 74.5227 22.77 74.2627 22.57C74.5827 22.67 74.9527 22.69 75.3727 22.63C75.8127 22.57 76.1727 22.45 76.4527 22.27C76.1527 22.37 75.7827 22.37 75.3427 22.27C74.9227 22.17 74.5827 22.03 74.3227 21.85C74.6227 21.95 74.9827 21.95 75.4027 21.85C75.8427 21.75 76.1927 21.61 76.4527 21.43C76.0327 21.19 75.5127 21.03 74.8927 20.95C74.2727 20.87 73.7327 20.89 73.2727 21.01C73.6927 20.79 74.2127 20.63 74.8327 20.53C75.4727 20.41 76.0127 20.43 76.4527 20.59C76.1327 20.23 75.6527 19.95 75.0127 19.75C74.3927 19.53 73.8427 19.45 73.3627 19.51C73.7827 19.29 74.3227 19.16 74.9827 19.12C75.6427 19.08 76.1927 19.15 76.6327 19.33C76.5527 18.97 76.3727 18.57 76.0927 18.13C75.8127 17.67 75.4927 17.35 75.1327 17.17C75.5327 17.21 75.9527 17.37 76.3927 17.65C76.1727 17.39 75.9827 17.12 75.8227 16.84C75.6627 16.54 75.5627 16.26 75.5227 16C75.7827 16.38 76.1627 16.74 76.6627 17.08C77.1827 17.42 77.6727 17.65 78.1327 17.77C77.6727 17.55 77.2427 17.16 76.8427 16.6C76.4427 16.04 76.1727 15.51 76.0327 15.01C76.2727 15.47 76.6827 15.9 77.2627 16.3C77.8427 16.7 78.3827 16.93 78.8827 16.99C78.5827 16.77 78.3027 16.45 78.0427 16.03C77.8027 15.59 77.6527 15.19 77.5927 14.83C77.8327 15.11 78.1627 15.38 78.5827 15.64C79.0227 15.9 79.4227 16.04 79.7827 16.06C79.3227 15.82 78.8827 15.44 78.4627 14.92C78.0427 14.38 77.7627 13.86 77.6227 13.36C77.8827 13.82 78.2727 14.27 78.7927 14.71C79.3327 15.13 79.8627 15.37 80.3827 15.43C80.0027 15.15 79.6627 14.71 79.3627 14.11C79.0627 13.51 78.8727 12.97 78.7927 12.49C79.1327 12.85 79.5927 13.19 80.1727 13.51C80.7727 13.81 81.3127 13.97 81.7927 13.99C81.8127 13.67 81.7127 13.32 81.4927 12.94C81.2727 12.54 81.0527 12.24 80.8327 12.04C81.1327 12.02 81.4827 12.11 81.8827 12.31C82.3027 12.49 82.6027 12.7 82.7827 12.94C82.8227 12.68 82.7827 12.34 82.6627 11.92C82.5427 11.48 82.3927 11.16 82.2127 10.96C82.4727 10.94 82.8127 10.98 83.2327 11.08C83.6527 11.18 83.9727 11.31 84.1927 11.47C84.2127 11.29 84.1727 11.08 84.0727 10.84C83.9927 10.6 83.8827 10.38 83.7427 10.18C83.4827 10.54 83.2427 10.79 83.0227 10.93C82.9827 10.73 82.8427 10.47 82.6027 10.15C82.3627 9.81 82.1427 9.59 81.9427 9.49C81.9027 9.69 81.7727 9.94 81.5527 10.24C81.3527 10.54 81.1727 10.75 81.0127 10.87C80.9727 10.67 80.8427 10.42 80.6227 10.12C80.4227 9.8 80.2327 9.59 80.0527 9.49C79.7927 9.83 79.6227 10.3 79.5427 10.9C79.4627 11.48 79.4927 11.97 79.6327 12.37C79.3527 11.95 79.1827 11.41 79.1227 10.75C79.0227 11.13 78.8727 11.44 78.6727 11.68C78.7727 11.36 78.7527 10.98 78.6127 10.54C78.4927 10.1 78.3427 9.75 78.1627 9.49C77.9427 9.75 77.7727 10.1 77.6527 10.54C77.5527 10.98 77.5427 11.36 77.6227 11.68C77.4027 11.44 77.2327 11.1 77.1127 10.66C77.0127 10.2 77.0027 9.81 77.0827 9.49C76.8227 9.27 76.4527 9.09 75.9727 8.95C75.4927 8.79 75.0827 8.73 74.7427 8.77C74.9027 8.49 75.1927 8.21 75.6127 7.93C76.0527 7.65 76.4327 7.47 76.7527 7.39C76.4127 7.45 76.0027 7.4 75.5227 7.24C75.0627 7.08 74.7127 6.88 74.4727 6.64C74.8127 6.68 75.2127 6.62 75.6727 6.46C76.1527 6.3 76.5127 6.1 76.7527 5.86C76.2527 5.9 75.6827 5.81 75.0427 5.59C74.4027 5.37 73.9227 5.07 73.6027 4.69C74.0427 4.91 74.6027 5.01 75.2827 4.99C75.9627 4.97 76.5227 4.84 76.9627 4.6C76.9027 4.3 76.9027 3.96 76.9627 3.58C77.0427 3.18 77.1627 2.85 77.3227 2.59C77.2427 2.87 77.2327 3.22 77.2927 3.64C77.3727 4.04 77.5027 4.36 77.6827 4.6C77.6627 4.1 77.7627 3.51 77.9827 2.83C78.2227 2.15 78.5027 1.62 78.8227 1.24C78.7827 1.74 78.8727 2.34 79.0927 3.04C79.3127 3.72 79.6027 4.24 79.9627 4.6C79.8227 4.12 79.8127 3.55 79.9327 2.89C80.0727 2.23 80.3027 1.71 80.6227 1.33C80.5027 1.81 80.5027 2.38 80.6227 3.04C80.7627 3.7 80.9827 4.22 81.2827 4.6C81.2227 4.2 81.2527 3.74 81.3727 3.22C81.4927 2.68 81.6827 2.25 81.9427 1.93C81.9027 2.33 81.9327 2.8 82.0327 3.34C82.1527 3.88 82.3427 4.3 82.6027 4.6C82.8827 4.18 83.0427 3.64 83.0827 2.98C83.1227 2.3 83.0827 1.72 82.9627 1.24C83.2227 1.66 83.3927 2.21 83.4727 2.89C83.5527 3.55 83.5027 4.12 83.3227 4.6C83.6627 4.26 83.9327 3.77 84.1327 3.13C84.3527 2.47 84.4427 1.9 84.4027 1.42C84.7227 1.78 84.9927 2.28 85.2127 2.92C85.4327 3.56 85.5227 4.12 85.4827 4.6C85.7227 4.36 85.9027 4 86.0227 3.52C86.1627 3.04 86.2027 2.63 86.1427 2.29C86.4827 2.65 86.7027 3.16 86.8027 3.82C86.8827 3.28 87.0427 2.87 87.2827 2.59C87.2027 2.89 87.2127 3.24 87.3127 3.64C87.4127 4.04 87.5627 4.36 87.7627 4.6C87.7227 4.24 87.7427 3.83 87.8227 3.37C87.9227 2.91 88.0627 2.47 88.2427 2.05C88.4227 1.61 88.6427 1.27 88.9027 1.03C88.8427 1.57 88.9327 2.2 89.1727 2.92C89.4327 3.62 89.7227 4.18 90.0427 4.6C90.0227 4.26 90.1127 3.86 90.3127 3.4C90.5127 2.94 90.7427 2.6 91.0027 2.38C91.0027 2.72 91.0927 3.13 91.2727 3.61C91.4727 4.07 91.7027 4.4 91.9627 4.6C91.8227 4.1 91.7727 3.52 91.8127 2.86C91.8727 2.18 92.0427 1.62 92.3227 1.18C92.1627 1.66 92.1027 2.25 92.1427 2.95C92.2027 3.63 92.3827 4.18 92.6827 4.6C93.0427 4.42 93.3727 4.1 93.6727 3.64C93.9927 3.18 94.2127 2.75 94.3327 2.35C94.3727 2.77 94.3327 3.25 94.2127 3.79C94.0927 4.33 93.8927 4.75 93.6127 5.05C93.8327 5.29 94.1727 5.52 94.6327 5.74C95.0927 5.96 95.4927 6.06 95.8327 6.04C95.6127 6.3 95.2727 6.53 94.8127 6.73C94.3527 6.93 93.9527 7.04 93.6127 7.06C93.9527 7.24 94.3727 7.37 94.8727 7.45C95.3927 7.51 95.8327 7.48 96.1927 7.36C95.6927 7.6 95.1427 7.73 94.5427 7.75C94.9627 7.87 95.2927 8.03 95.5327 8.23C95.2527 8.19 94.9127 8.23 94.5127 8.35C94.1127 8.47 93.8127 8.63 93.6127 8.83C93.8727 9.23 94.2527 9.62 94.7527 10C95.2727 10.38 95.7627 10.62 96.2227 10.72C95.8427 10.78 95.4027 10.78 94.9027 10.72C94.4027 10.64 93.9627 10.5 93.5827 10.3C93.9027 10.56 94.2027 10.88 94.4827 11.26C94.7827 11.62 94.9927 11.97 95.1127 12.31C94.8727 11.93 94.5027 11.56 94.0027 11.2C93.5227 10.84 93.0527 10.61 92.5927 10.51C92.8127 10.75 93.0027 11.11 93.1627 11.59C93.3427 12.05 93.4127 12.44 93.3727 12.76C93.1327 12.56 92.7627 12.4 92.2627 12.28C91.7827 12.14 91.3927 12.11 91.0927 12.19C91.2727 12.41 91.4427 12.73 91.6027 13.15C91.7627 13.57 91.8527 13.92 91.8727 14.2C91.6527 14 91.3227 13.84 90.8827 13.72C90.4427 13.6 90.0827 13.57 89.8027 13.63C90.1227 13.81 90.4127 14.13 90.6727 14.59C90.9327 15.05 91.0727 15.46 91.0927 15.82C90.8327 15.56 90.4727 15.32 90.0127 15.1C89.5527 14.88 89.1327 14.77 88.7527 14.77C88.8927 15.17 89.1427 15.58 89.5027 16C89.8627 16.4 90.2227 16.7 90.5827 16.9C90.1827 16.84 89.7527 16.65 89.2927 16.33C88.8527 15.99 88.5127 15.65 88.2727 15.31C88.2927 15.57 88.4127 15.87 88.6327 16.21C88.8527 16.53 89.0727 16.77 89.2927 16.93C89.0127 16.93 88.6927 16.85 88.3327 16.69C87.9927 16.51 87.7327 16.31 87.5527 16.09C87.5927 16.41 87.7027 16.78 87.8827 17.2C88.0627 17.62 88.2727 17.94 88.5127 18.16C88.3327 18.16 88.1327 18.13 87.9127 18.07C87.9927 18.31 88.1327 18.57 88.3327 18.85C88.5527 19.13 88.7527 19.33 88.9327 19.45C89.0727 19.25 89.1827 18.98 89.2627 18.64C89.3427 18.3 89.3427 18.01 89.2627 17.77C89.4627 18.03 89.5927 18.37 89.6527 18.79C89.7527 18.27 89.9427 17.82 90.2227 17.44C90.2027 17.74 90.2527 18.09 90.3727 18.49C90.4927 18.89 90.6427 19.21 90.8227 19.45C90.9027 19.29 91.0027 19 91.1227 18.58C91.2427 18.14 91.3527 17.66 91.4527 17.14C91.5527 16.6 91.6327 16.11 91.6927 15.67C91.7527 15.21 91.7627 14.89 91.7227 14.71C91.8027 14.87 91.9027 15.17 92.0227 15.61C92.1427 16.03 92.2527 16.51 92.3527 17.05C92.4527 17.57 92.5227 18.06 92.5627 18.52C92.6227 18.96 92.6327 19.27 92.5927 19.45C92.7127 19.19 92.9127 18.92 93.1927 18.64C93.4727 18.36 93.7427 18.16 94.0027 18.04C93.9027 18.3 93.8427 18.64 93.8227 19.06C93.8227 19.46 93.8827 19.78 94.0027 20.02C94.4827 19.94 95.0427 19.98 95.6827 20.14C96.3427 20.3 96.8627 20.54 97.2427 20.86C96.7627 20.78 96.1927 20.82 95.5327 20.98C94.8727 21.12 94.3627 21.36 94.0027 21.7C94.3827 21.96 94.8827 22.14 95.5027 22.24C96.1427 22.32 96.6927 22.31 97.1527 22.21C96.8127 22.43 96.3827 22.6 95.8627 22.72C95.3627 22.82 94.8927 22.86 94.4527 22.84C94.8927 22.94 95.3327 23.15 95.7727 23.47C96.2127 23.77 96.5527 24.08 96.7927 24.4C96.3527 24.22 95.8027 24.13 95.1427 24.13C94.5027 24.11 93.9727 24.2 93.5527 24.4C93.5727 24.8 93.4627 25.27 93.2227 25.81C93.0027 26.37 92.7327 26.77 92.4127 27.01C92.3927 26.61 92.2727 26.14 92.0527 25.6C91.8327 25.06 91.5727 24.66 91.2727 24.4C91.3327 24.74 91.3127 25.12 91.2127 25.54C91.1127 25.98 90.9627 26.4 90.7627 26.8C90.5627 27.22 90.3527 27.56 90.1327 27.82C90.1727 27.48 90.1427 27.09 90.0427 26.65C89.9627 26.21 89.8227 25.78 89.6227 25.36C89.4427 24.96 89.2327 24.64 88.9927 24.4C89.0527 24.9 88.9927 25.48 88.8127 26.14C88.6527 26.8 88.4127 27.33 88.0927 27.73C88.1527 27.23 88.0927 26.65 87.9127 25.99C87.7327 25.33 87.4927 24.8 87.1927 24.4C87.2727 24.94 87.2227 25.57 87.0427 26.29C86.8627 27.01 86.5927 27.57 86.2327 27.97C86.3327 27.45 86.2827 26.83 86.0827 26.11C85.8827 25.39 85.6127 24.82 85.2727 24.4C85.2927 24.8 85.2127 25.27 85.0327 25.81C84.8527 26.35 84.6427 26.77 84.4027 27.07C84.4627 26.67 84.3927 26.2 84.1927 25.66C83.9927 25.12 83.7627 24.7 83.5027 24.4C83.2427 24.82 83.0827 25.34 83.0227 25.96C82.9827 26.6 83.0227 27.15 83.1427 27.61C82.8627 27.21 82.6927 26.69 82.6327 26.05C82.5727 25.41 82.6227 24.86 82.7827 24.4C82.5627 24.76 82.4027 25.2 82.3027 25.72C82.2227 26.26 82.2427 26.73 82.3627 27.13C82.1427 26.75 81.9927 26.31 81.9127 25.81C81.8127 26.27 81.6627 26.66 81.4627 26.98C81.5427 26.6 81.5427 26.15 81.4627 25.63C81.3827 25.11 81.2227 24.7 80.9827 24.4C80.7027 24.76 80.5227 25.24 80.4427 25.84C80.3827 26.44 80.4027 26.96 80.5027 27.4C80.3627 27.16 80.2427 26.88 80.1427 26.56C80.0427 27.02 79.9027 27.41 79.7227 27.73C79.9227 27.27 79.9827 26.7 79.9027 26.02C79.8427 25.36 79.6827 24.82 79.4227 24.4C79.1227 24.76 78.9227 25.25 78.8227 25.87C78.7227 26.49 78.7427 27.02 78.8827 27.46C78.6027 27.1 78.4027 26.61 78.2827 25.99C78.1827 25.37 78.2027 24.84 78.3427 24.4C78.1227 24.8 77.9527 25.29 77.8327 25.87C77.7127 26.47 77.7027 26.99 77.8027 27.43C77.6627 27.23 77.5427 26.99 77.4427 26.71C77.4427 27.27 77.4227 27.82 77.3827 28.36C77.3427 28.92 77.2827 29.41 77.2027 29.83C77.1227 30.27 77.0427 30.58 76.9627 30.76C77.0627 30.54 77.1127 30.12 77.1127 29.5C77.1327 28.9 77.1127 28.2 77.0527 27.4C77.0127 26.6 76.9327 25.8 76.8127 25C76.7127 24.18 76.5927 23.47 76.4527 22.87ZM84.1027 9.49C84.0827 9.59 84.0327 9.7 83.9527 9.82C84.0127 9.84 84.0627 9.86 84.1027 9.88C84.0827 9.74 84.0827 9.61 84.1027 9.49ZM86.3527 17.41C86.4127 17.73 86.5627 18.08 86.8027 18.46C86.9627 18.46 87.1127 18.48 87.2527 18.52C87.4127 18.32 87.5627 18.16 87.7027 18.04C87.4427 17.98 87.1927 17.9 86.9527 17.8C86.7127 17.68 86.5127 17.55 86.3527 17.41ZM85.9027 18.52C85.9027 18.54 85.9027 18.55 85.9027 18.55H85.9327C85.9127 18.53 85.9027 18.52 85.9027 18.52ZM86.8927 18.61C86.9527 18.67 87.0027 18.74 87.0427 18.82C87.1027 18.72 87.1627 18.63 87.2227 18.55C87.1227 18.55 87.0127 18.57 86.8927 18.61ZM85.9027 18.94C85.9627 19.02 86.0127 19.08 86.0527 19.12C86.0927 19.02 86.1327 18.92 86.1727 18.82C86.0927 18.86 86.0027 18.9 85.9027 18.94ZM86.7727 19.45C86.7927 19.37 86.8227 19.28 86.8627 19.18L86.7727 19.15C86.7927 19.25 86.7927 19.35 86.7727 19.45ZM85.8427 19.45C85.8627 19.41 85.8927 19.37 85.9327 19.33C85.9127 19.33 85.8927 19.32 85.8727 19.3C85.8527 19.36 85.8427 19.41 85.8427 19.45ZM103.674 24.94C103.594 25.04 103.504 25.24 103.404 25.54C103.304 25.84 103.204 26.17 103.104 26.53C103.004 26.91 102.924 27.25 102.864 27.55C102.824 27.87 102.814 28.09 102.834 28.21C102.794 28.09 102.754 27.87 102.714 27.55C102.694 27.25 102.684 26.91 102.684 26.53C102.684 26.15 102.694 25.8 102.714 25.48C102.734 25.16 102.774 24.94 102.834 24.82C102.614 25 102.394 25.26 102.174 25.6C101.974 25.96 101.844 26.28 101.784 26.56C101.604 26.34 101.494 26.02 101.454 25.6C101.414 25.18 101.444 24.83 101.544 24.55C101.464 24.77 101.294 25 101.034 25.24C100.794 25.5 100.574 25.68 100.374 25.78C100.474 25.58 100.504 25.3 100.464 24.94C100.444 24.58 100.384 24.3 100.284 24.1C99.9635 24.2 99.6235 24.42 99.2635 24.76C98.9235 25.1 98.7035 25.44 98.6035 25.78C98.5435 25.44 98.5835 25.05 98.7235 24.61C98.8635 24.15 99.0235 23.8 99.2035 23.56C98.9835 23.86 98.6435 24.12 98.1835 24.34C97.7435 24.54 97.3535 24.66 97.0135 24.7C97.3135 24.48 97.5735 24.14 97.7935 23.68C98.0135 23.2 98.1235 22.77 98.1235 22.39C97.7035 22.41 97.2335 22.56 96.7135 22.84C96.1935 23.12 95.8135 23.44 95.5735 23.8C95.8535 23.26 96.2835 22.79 96.8635 22.39C96.4035 22.53 96.0235 22.57 95.7235 22.51C96.0235 22.41 96.3435 22.23 96.6835 21.97C97.0435 21.71 97.2835 21.44 97.4035 21.16C97.1635 20.98 96.8035 20.83 96.3235 20.71C95.8635 20.57 95.4835 20.53 95.1835 20.59C95.3235 20.33 95.5635 20.03 95.9035 19.69C96.2635 19.35 96.5835 19.14 96.8635 19.06C96.6435 18.78 96.2735 18.55 95.7535 18.37C95.2535 18.19 94.8235 18.1 94.4635 18.1C94.7035 17.82 95.0635 17.56 95.5435 17.32C96.0235 17.08 96.4435 16.95 96.8035 16.93C96.5235 16.61 96.1135 16.3 95.5735 16C95.0135 15.7 94.5235 15.53 94.1035 15.49C94.4235 15.21 94.8835 14.97 95.4835 14.77C96.0835 14.57 96.5935 14.49 97.0135 14.53C96.8735 14.21 96.5935 13.89 96.1735 13.57C95.7735 13.25 95.3935 13.04 95.0335 12.94C95.3535 12.8 95.7435 12.73 96.2035 12.73C96.6835 12.71 97.0935 12.76 97.4335 12.88C97.2535 12.8 97.0735 12.68 96.8935 12.52C96.7135 12.34 96.5935 12.16 96.5335 11.98C96.6735 12.14 96.8835 12.26 97.1635 12.34C97.4435 12.42 97.6835 12.46 97.8835 12.46C97.6635 12.26 97.4335 11.98 97.1935 11.62C96.9735 11.24 96.8535 10.9 96.8335 10.6C97.0335 10.82 97.3435 11 97.7635 11.14C98.1835 11.28 98.5435 11.35 98.8435 11.35C98.9035 11.03 98.8435 10.65 98.6635 10.21C98.4835 9.77 98.2835 9.42 98.0635 9.16C98.3835 9.26 98.7335 9.45 99.1135 9.73C99.4935 10.01 99.7535 10.3 99.8935 10.6C100.014 10.16 100.004 9.64 99.8635 9.04C99.7435 8.44 99.5435 7.97 99.2635 7.63C99.6635 7.81 100.044 8.15 100.404 8.65C100.764 9.15 100.994 9.61 101.094 10.03C101.234 9.69 101.264 9.27 101.184 8.77C101.124 8.27 101.004 7.85 100.824 7.51C101.124 7.75 101.384 8.09 101.604 8.53C101.844 8.97 101.984 9.38 102.024 9.76C102.204 9.62 102.394 9.37 102.594 9.01C102.814 8.63 102.924 8.33 102.924 8.11C103.144 8.19 103.404 8.38 103.704 8.68C104.004 8.96 104.194 9.21 104.274 9.43C104.254 9.15 104.304 8.81 104.424 8.41C104.544 8.01 104.704 7.71 104.904 7.51C104.904 7.79 104.974 8.12 105.114 8.5C105.254 8.88 105.414 9.18 105.594 9.4C105.534 9.1 105.574 8.75 105.714 8.35C105.854 7.95 106.014 7.63 106.194 7.39C106.094 7.69 106.084 8.05 106.164 8.47C106.264 8.87 106.394 9.2 106.554 9.46C106.814 9.34 107.074 9.09 107.334 8.71C107.594 8.31 107.764 7.97 107.844 7.69C108.024 7.91 108.174 8.24 108.294 8.68C108.434 9.12 108.494 9.48 108.474 9.76C108.674 9.64 108.864 9.44 109.044 9.16C109.224 8.86 109.324 8.58 109.344 8.32C109.444 8.54 109.484 8.82 109.464 9.16C109.444 9.5 109.384 9.78 109.284 10C109.464 9.96 109.674 9.85 109.914 9.67C110.154 9.47 110.314 9.29 110.394 9.13C110.494 9.29 110.554 9.53 110.574 9.85C110.594 10.15 110.564 10.38 110.484 10.54C110.644 10.36 110.904 10.19 111.264 10.03C111.644 9.87 111.954 9.8 112.194 9.82C112.054 10.02 111.954 10.32 111.894 10.72C111.854 11.1 111.864 11.41 111.924 11.65C112.304 11.75 112.774 11.75 113.334 11.65C113.914 11.53 114.364 11.36 114.684 11.14C114.644 11.54 114.454 11.98 114.114 12.46C113.774 12.94 113.444 13.28 113.124 13.48C113.464 13.62 113.884 13.67 114.384 13.63C114.904 13.57 115.314 13.44 115.614 13.24C115.394 13.54 115.064 13.83 114.624 14.11C114.204 14.37 113.814 14.5 113.454 14.5C113.654 14.5 113.914 14.57 114.234 14.71C114.554 14.83 114.784 14.97 114.924 15.13C114.724 15.19 114.484 15.32 114.204 15.52C113.944 15.72 113.764 15.91 113.664 16.09C113.944 16.27 114.304 16.39 114.744 16.45C115.204 16.51 115.594 16.49 115.914 16.39C115.694 16.55 115.404 16.67 115.044 16.75C115.484 16.83 115.874 16.96 116.214 17.14C115.874 17 115.444 16.98 114.924 17.08C114.424 17.16 114.004 17.29 113.664 17.47C113.804 17.69 114.044 17.95 114.384 18.25C114.744 18.55 115.054 18.74 115.314 18.82C115.134 19.02 114.844 19.24 114.444 19.48C114.044 19.72 113.714 19.85 113.454 19.87C113.714 19.85 114.004 19.92 114.324 20.08C114.644 20.22 114.884 20.39 115.044 20.59C114.824 20.45 114.534 20.37 114.174 20.35C113.834 20.33 113.544 20.37 113.304 20.47C113.324 20.67 113.414 20.94 113.574 21.28C113.734 21.62 113.904 21.85 114.084 21.97C113.924 22.09 113.654 22.19 113.274 22.27C112.894 22.33 112.604 22.34 112.404 22.3C112.664 22.48 112.904 22.77 113.124 23.17C113.364 23.55 113.484 23.9 113.484 24.22C113.284 23.98 112.984 23.76 112.584 23.56C112.184 23.34 111.824 23.24 111.504 23.26C111.404 23.4 111.304 23.66 111.204 24.04C111.104 24.4 111.064 24.67 111.084 24.85C110.904 24.89 110.634 24.85 110.274 24.73C109.914 24.59 109.664 24.47 109.524 24.37C109.464 24.49 109.424 24.72 109.404 25.06C109.384 25.42 109.384 25.8 109.404 26.2C109.424 26.62 109.444 27 109.464 27.34C109.504 27.7 109.544 27.94 109.584 28.06C109.484 27.96 109.314 27.73 109.074 27.37C108.854 27.01 108.634 26.62 108.414 26.2C108.214 25.78 108.064 25.43 107.964 25.15C108.024 25.51 108.004 25.9 107.904 26.32C107.804 26.76 107.684 27.13 107.544 27.43C107.584 27.05 107.494 26.61 107.274 26.11C107.074 25.61 106.834 25.22 106.554 24.94C106.554 25.14 106.484 25.37 106.344 25.63C106.224 25.91 106.094 26.11 105.954 26.23C105.934 26.05 105.784 25.82 105.504 25.54C105.224 25.28 104.614 25.08 103.674 24.94ZM105.744 20.74C105.784 20.56 105.764 20.35 105.684 20.11C105.624 19.85 105.544 19.64 105.444 19.48C105.624 19.5 105.824 19.59 106.044 19.75C106.284 19.89 106.454 20.03 106.554 20.17C106.454 19.99 106.284 19.81 106.044 19.63C105.804 19.43 105.584 19.32 105.384 19.3C105.564 19.2 105.804 19.13 106.104 19.09C106.404 19.03 106.644 19.04 106.824 19.12C106.724 18.98 106.564 18.86 106.344 18.76C106.124 18.66 105.934 18.6 105.774 18.58C105.894 18.48 106.064 18.4 106.284 18.34C106.524 18.26 106.724 18.22 106.884 18.22C106.624 18.2 106.404 18.1 106.224 17.92C106.324 17.92 106.444 17.89 106.584 17.83C106.724 17.77 106.834 17.7 106.914 17.62C106.774 17.64 106.614 17.62 106.434 17.56C106.254 17.5 106.114 17.42 106.014 17.32C106.154 17.32 106.314 17.3 106.494 17.26C106.674 17.2 106.814 17.12 106.914 17.02C106.774 17.02 106.614 16.99 106.434 16.93C106.254 16.85 106.124 16.76 106.044 16.66C106.184 16.66 106.334 16.62 106.494 16.54C106.674 16.46 106.804 16.37 106.884 16.27C106.804 16.19 106.674 16.12 106.494 16.06C106.314 15.98 106.164 15.94 106.044 15.94C106.124 15.84 106.244 15.75 106.404 15.67C106.584 15.57 106.734 15.52 106.854 15.52C106.694 15.38 106.454 15.29 106.134 15.25C105.814 15.19 105.564 15.19 105.384 15.25C105.464 15.09 105.634 14.92 105.894 14.74C105.774 14.76 105.664 14.77 105.564 14.77C105.704 14.67 105.824 14.52 105.924 14.32C106.024 14.12 106.074 13.94 106.074 13.78C105.934 13.9 105.804 14.06 105.684 14.26C105.564 14.44 105.474 14.64 105.414 14.86C105.394 15.18 105.334 15.44 105.234 15.64C105.234 15.64 105.234 15.62 105.234 15.58C105.194 15.46 105.154 15.32 105.114 15.16C104.914 15.24 104.664 15.29 104.364 15.31C104.084 15.31 103.844 15.26 103.644 15.16C103.764 15.3 103.934 15.43 104.154 15.55C104.374 15.65 104.574 15.7 104.754 15.7C104.494 15.88 104.194 15.99 103.854 16.03C104.194 16.07 104.454 16.19 104.634 16.39C104.474 16.35 104.284 16.36 104.064 16.42C103.864 16.48 103.694 16.56 103.554 16.66C103.654 16.76 103.794 16.86 103.974 16.96C104.174 17.04 104.344 17.08 104.484 17.08C104.404 17.2 104.264 17.3 104.064 17.38C103.864 17.46 103.694 17.5 103.554 17.5C103.714 17.48 103.894 17.5 104.094 17.56C104.314 17.62 104.484 17.7 104.604 17.8C104.224 17.76 103.884 17.87 103.584 18.13C103.784 18.09 104.024 18.11 104.304 18.19C104.604 18.27 104.834 18.39 104.994 18.55C104.774 18.53 104.524 18.59 104.244 18.73C103.984 18.85 103.784 18.99 103.644 19.15C103.784 19.11 103.964 19.12 104.184 19.18C104.424 19.22 104.604 19.29 104.724 19.39C104.584 19.41 104.424 19.5 104.244 19.66C104.064 19.82 103.944 19.97 103.884 20.11C103.964 20.03 104.094 19.97 104.274 19.93C104.454 19.87 104.584 19.85 104.664 19.87C104.784 19.43 104.954 19.08 105.174 18.82C105.034 19.08 104.994 19.41 105.054 19.81C105.134 20.19 105.364 20.5 105.744 20.74ZM103.884 14.35C103.984 14.53 104.164 14.7 104.424 14.86C104.684 15 104.914 15.09 105.114 15.13C105.094 15.07 105.084 15.01 105.084 14.95C105.004 14.73 104.904 14.52 104.784 14.32C104.664 14.1 104.524 13.93 104.364 13.81C104.404 13.99 104.484 14.2 104.604 14.44C104.744 14.66 104.894 14.81 105.054 14.89C104.874 14.89 104.654 14.84 104.394 14.74C104.154 14.62 103.984 14.49 103.884 14.35ZM104.634 20.71C104.594 20.59 104.584 20.47 104.604 20.35C104.584 20.51 104.594 20.63 104.634 20.71ZM116.502 23.23C116.342 23.11 116.132 23 115.872 22.9C115.612 22.8 115.382 22.77 115.182 22.81C115.342 22.69 115.552 22.58 115.812 22.48C116.072 22.38 116.302 22.35 116.502 22.39C116.282 22.15 115.932 21.94 115.452 21.76C114.992 21.58 114.592 21.49 114.252 21.49C114.412 21.33 114.622 21.18 114.882 21.04C115.162 20.9 115.452 20.79 115.752 20.71C115.412 20.73 115.072 20.71 114.732 20.65C114.372 20.57 114.072 20.46 113.832 20.32C114.212 20.46 114.662 20.5 115.182 20.44C115.722 20.38 116.162 20.24 116.502 20.02C116.142 20.1 115.702 20.06 115.182 19.9C114.682 19.74 114.282 19.54 113.982 19.3C114.342 19.38 114.782 19.34 115.302 19.18C115.822 19.02 116.222 18.82 116.502 18.58C116.322 18.36 116.042 18.18 115.662 18.04C115.282 17.9 114.952 17.82 114.672 17.8C114.852 17.6 115.132 17.42 115.512 17.26C115.892 17.1 116.222 17.02 116.502 17.02C116.282 16.78 115.942 16.54 115.482 16.3C115.042 16.04 114.662 15.9 114.342 15.88C114.562 15.64 114.892 15.4 115.332 15.16C115.772 14.92 116.132 14.79 116.412 14.77C116.052 14.81 115.632 14.78 115.152 14.68C114.672 14.56 114.292 14.38 114.012 14.14C114.392 14.2 114.822 14.18 115.302 14.08C115.802 13.96 116.202 13.79 116.502 13.57C116.382 13.37 116.162 13.17 115.842 12.97C115.522 12.77 115.252 12.67 115.032 12.67C115.152 12.49 115.362 12.3 115.662 12.1C115.982 11.9 116.222 11.8 116.382 11.8C115.962 11.86 115.482 11.83 114.942 11.71C114.402 11.59 113.972 11.41 113.652 11.17C114.072 11.25 114.572 11.24 115.152 11.14C115.732 11.04 116.182 10.85 116.502 10.57C116.422 10.35 116.252 10.14 115.992 9.94C115.752 9.72 115.532 9.59 115.332 9.55C115.532 9.45 115.792 9.43 116.112 9.49C116.432 9.53 116.692 9.6 116.892 9.7C117.012 9.58 117.132 9.39 117.252 9.13C117.372 8.87 117.422 8.64 117.402 8.44C117.642 8.66 117.812 8.97 117.912 9.37C117.892 8.85 118.032 8.4 118.332 8.02C118.252 8.26 118.252 8.55 118.332 8.89C118.432 9.23 118.552 9.5 118.692 9.7C118.992 9.38 119.212 8.92 119.352 8.32C119.492 7.7 119.532 7.17 119.472 6.73C119.772 7.05 119.982 7.52 120.102 8.14C120.222 8.74 120.262 9.26 120.222 9.7C120.442 9.58 120.682 9.34 120.942 8.98C121.222 8.62 121.382 8.32 121.422 8.08C121.642 8.2 121.872 8.45 122.112 8.83C122.352 9.21 122.492 9.52 122.532 9.76C122.612 9.78 122.712 9.8 122.832 9.82C122.732 9.28 122.722 8.84 122.802 8.5C123.122 8.94 123.582 9.32 124.182 9.64C124.542 9.54 124.822 9.43 125.022 9.31C124.982 8.95 124.992 8.58 125.052 8.2C125.112 7.8 125.202 7.46 125.322 7.18C125.402 7.58 125.602 8.02 125.922 8.5C126.262 8.98 126.612 9.31 126.972 9.49C126.832 9.13 126.802 8.69 126.882 8.17C126.962 7.63 127.102 7.2 127.302 6.88C127.242 7.26 127.292 7.7 127.452 8.2C127.612 8.7 127.812 9.1 128.052 9.4C127.992 9 128.022 8.54 128.142 8.02C128.282 7.5 128.472 7.07 128.712 6.73C128.572 7.11 128.522 7.58 128.562 8.14C128.622 8.68 128.762 9.12 128.982 9.46C129.262 9.24 129.532 8.91 129.792 8.47C130.052 8.01 130.212 7.6 130.272 7.24C130.432 7.54 130.512 7.92 130.512 8.38C130.532 8.82 130.482 9.22 130.362 9.58C130.522 9.22 130.752 8.87 131.052 8.53C131.372 8.19 131.682 7.95 131.982 7.81C131.722 8.07 131.512 8.46 131.352 8.98C131.212 9.5 131.162 9.95 131.202 10.33C131.442 10.35 131.732 10.3 132.072 10.18C132.412 10.04 132.662 9.88 132.822 9.7C132.842 9.94 132.792 10.24 132.672 10.6C132.552 10.94 132.412 11.19 132.252 11.35C132.552 11.17 132.982 11.07 133.542 11.05C134.102 11.03 134.552 11.09 134.892 11.23C134.552 11.37 134.212 11.66 133.872 12.1C133.552 12.54 133.332 12.93 133.212 13.27C133.372 13.33 133.572 13.37 133.812 13.39C134.072 13.39 134.282 13.35 134.442 13.27C134.322 13.41 134.152 13.55 133.932 13.69C133.732 13.81 133.542 13.87 133.362 13.87C133.602 14.05 133.922 14.2 134.322 14.32C134.742 14.42 135.102 14.45 135.402 14.41C135.222 14.65 134.942 14.87 134.562 15.07C134.182 15.27 133.852 15.39 133.572 15.43C133.872 15.71 134.292 15.9 134.832 16C135.392 16.1 135.872 16.12 136.272 16.06C135.952 16.32 135.522 16.53 134.982 16.69C134.442 16.83 133.972 16.85 133.572 16.75C133.832 16.97 134.182 17.16 134.622 17.32C135.062 17.48 135.452 17.55 135.792 17.53C135.612 17.71 135.352 17.88 135.012 18.04C134.692 18.18 134.372 18.27 134.052 18.31C134.472 18.35 134.832 18.47 135.132 18.67C134.912 18.61 134.642 18.62 134.322 18.7C134.002 18.76 133.752 18.87 133.572 19.03C133.992 18.91 134.482 18.88 135.042 18.94C135.622 19 136.092 19.15 136.452 19.39C136.052 19.25 135.562 19.22 134.982 19.3C134.402 19.36 133.932 19.51 133.572 19.75C133.692 19.89 133.872 20.02 134.112 20.14C134.372 20.26 134.592 20.33 134.772 20.35C134.712 20.45 134.602 20.54 134.442 20.62C134.302 20.7 134.162 20.77 134.022 20.83C134.422 20.77 134.862 20.78 135.342 20.86C135.822 20.94 136.212 21.09 136.512 21.31C136.092 21.21 135.592 21.19 135.012 21.25C134.432 21.31 133.952 21.45 133.572 21.67C133.772 21.61 134.142 21.61 134.682 21.67C135.242 21.71 135.842 21.79 136.482 21.91C137.142 22.03 137.732 22.16 138.252 22.3C138.792 22.44 139.152 22.57 139.332 22.69C139.132 22.63 138.752 22.63 138.192 22.69C137.632 22.73 137.032 22.81 136.392 22.93C135.752 23.03 135.162 23.15 134.622 23.29C134.102 23.43 133.752 23.57 133.572 23.71C133.672 23.89 133.832 24.09 134.052 24.31C134.292 24.51 134.512 24.65 134.712 24.73C134.532 24.81 134.282 24.85 133.962 24.85C133.642 24.85 133.382 24.8 133.182 24.7C133.022 24.94 132.882 25.26 132.762 25.66C132.662 26.08 132.632 26.44 132.672 26.74C132.412 26.4 132.232 25.97 132.132 25.45C132.072 25.85 131.942 26.17 131.742 26.41C131.802 26.15 131.792 25.85 131.712 25.51C131.652 25.17 131.542 24.9 131.382 24.7C131.422 25.08 131.332 25.53 131.112 26.05C130.912 26.57 130.662 26.95 130.362 27.19C130.402 26.81 130.312 26.36 130.092 25.84C129.872 25.34 129.632 24.96 129.372 24.7C129.132 24.9 128.922 25.21 128.742 25.63C128.562 26.07 128.472 26.44 128.472 26.74C128.252 26.52 128.052 26.2 127.872 25.78C127.692 25.36 127.592 25 127.572 24.7C127.452 24.78 127.272 24.84 127.032 24.88C126.812 24.92 126.632 24.92 126.492 24.88C126.592 24.78 126.672 24.62 126.732 24.4C126.792 24.16 126.822 23.97 126.822 23.83C126.682 23.83 126.512 23.8 126.312 23.74C126.132 23.66 125.992 23.57 125.892 23.47C126.032 23.49 126.202 23.47 126.402 23.41C126.602 23.33 126.742 23.23 126.822 23.11C126.702 23.05 126.542 22.91 126.342 22.69C126.142 22.47 126.022 22.3 125.982 22.18C126.102 22.12 126.262 21.98 126.462 21.76C126.682 21.52 126.802 21.34 126.822 21.22C126.542 21.2 126.212 21.11 125.832 20.95C125.472 20.77 125.192 20.58 124.992 20.38C125.272 20.4 125.602 20.32 125.982 20.14C126.362 19.96 126.642 19.77 126.822 19.57C126.582 19.55 126.292 19.46 125.952 19.3C125.632 19.14 125.392 18.97 125.232 18.79C125.472 18.77 125.752 18.69 126.072 18.55C126.412 18.39 126.662 18.21 126.822 18.01C126.782 17.89 126.642 17.71 126.402 17.47C126.182 17.21 126.012 17.05 125.892 16.99C125.932 16.87 126.062 16.69 126.282 16.45C126.522 16.19 126.702 16.03 126.822 15.97C126.722 15.89 126.572 15.82 126.372 15.76C126.172 15.7 125.992 15.67 125.832 15.67C125.552 16.23 125.252 16.66 124.932 16.96C124.992 16.64 124.982 16.26 124.902 15.82C124.822 15.36 124.692 14.96 124.512 14.62C124.672 14.98 124.732 15.29 124.692 15.55C124.592 15.39 124.422 15.24 124.182 15.1C123.962 14.94 123.762 14.85 123.582 14.83C123.582 14.95 123.662 15.15 123.822 15.43C124.002 15.69 124.142 15.86 124.242 15.94C124.202 16.06 124.052 16.21 123.792 16.39C123.532 16.57 123.342 16.68 123.222 16.72C123.322 16.86 123.492 17.04 123.732 17.26C123.992 17.46 124.212 17.57 124.392 17.59C124.292 17.75 124.112 17.93 123.852 18.13C123.592 18.33 123.382 18.45 123.222 18.49C123.382 18.63 123.602 18.73 123.882 18.79C124.182 18.83 124.442 18.83 124.662 18.79C124.462 18.91 124.222 19 123.942 19.06C123.682 19.12 123.442 19.13 123.222 19.09C123.402 19.13 123.622 19.24 123.882 19.42C124.162 19.6 124.362 19.77 124.482 19.93C124.302 19.97 124.072 20.08 123.792 20.26C123.512 20.42 123.322 20.58 123.222 20.74C123.442 20.7 123.702 20.73 124.002 20.83C124.302 20.91 124.532 21.02 124.692 21.16C124.472 21.12 124.212 21.15 123.912 21.25C123.612 21.33 123.382 21.44 123.222 21.58C123.522 21.54 123.882 21.6 124.302 21.76C124.722 21.92 125.032 22.12 125.232 22.36C124.932 22.34 124.572 22.41 124.152 22.57C123.752 22.73 123.442 22.91 123.222 23.11C123.462 23.27 123.722 23.51 124.002 23.83C124.282 24.15 124.462 24.45 124.542 24.73C124.282 24.61 123.932 24.54 123.492 24.52C123.072 24.5 122.732 24.56 122.472 24.7C122.272 25.02 122.122 25.43 122.022 25.93C121.922 26.45 121.932 26.89 122.052 27.25C121.892 27.01 121.762 26.71 121.662 26.35C121.582 25.99 121.552 25.65 121.572 25.33C121.492 25.67 121.372 26.01 121.212 26.35C121.072 26.69 120.902 26.95 120.702 27.13C120.722 26.77 120.632 26.34 120.432 25.84C120.232 25.34 120.002 24.96 119.742 24.7C119.802 25.06 119.802 25.48 119.742 25.96C119.682 26.46 119.542 26.86 119.322 27.16C119.442 26.8 119.462 26.37 119.382 25.87C119.302 25.37 119.142 24.98 118.902 24.7C118.642 24.9 118.422 25.24 118.242 25.72C118.062 26.2 117.972 26.61 117.972 26.95C117.712 26.73 117.462 26.32 117.222 25.72C116.982 25.14 116.742 24.31 116.502 23.23ZM125.202 10C125.122 9.84 125.062 9.63 125.022 9.37C124.962 9.53 124.872 9.71 124.752 9.91C124.912 9.97 125.062 10 125.202 10ZM142.326 24.85C142.206 25.03 141.976 25.23 141.636 25.45C141.316 25.69 141.056 25.83 140.856 25.87C140.836 25.67 140.746 25.38 140.586 25C140.446 24.62 140.296 24.36 140.136 24.22C139.956 24.5 139.646 24.77 139.206 25.03C138.786 25.31 138.416 25.47 138.096 25.51C138.256 25.23 138.376 24.84 138.456 24.34C138.536 23.84 138.526 23.43 138.426 23.11C138.266 23.27 138.046 23.41 137.766 23.53C137.486 23.63 137.236 23.68 137.016 23.68C137.176 23.56 137.326 23.36 137.466 23.08C137.606 22.8 137.676 22.55 137.676 22.33C137.376 22.59 136.946 22.79 136.386 22.93C135.826 23.05 135.346 23.08 134.946 23.02C135.306 22.84 135.686 22.56 136.086 22.18C136.506 21.78 136.776 21.38 136.896 20.98C136.716 20.86 136.456 20.78 136.116 20.74C135.776 20.7 135.506 20.7 135.306 20.74C135.386 20.54 135.546 20.33 135.786 20.11C136.026 19.87 136.246 19.71 136.446 19.63C136.126 19.41 135.696 19.29 135.156 19.27C134.616 19.23 134.166 19.28 133.806 19.42C134.046 19.12 134.426 18.89 134.946 18.73C135.446 18.55 135.886 18.45 136.266 18.43C136.086 18.21 135.796 17.97 135.396 17.71C135.016 17.45 134.686 17.3 134.406 17.26C134.566 17.02 134.846 16.78 135.246 16.54C135.646 16.28 135.986 16.12 136.266 16.06C135.826 16.04 135.346 15.92 134.826 15.7C134.286 15.46 133.856 15.19 133.536 14.89C133.936 15.09 134.436 15.17 135.036 15.13C135.636 15.09 136.126 14.96 136.506 14.74C136.506 14.56 136.416 14.29 136.236 13.93C136.076 13.57 135.916 13.32 135.756 13.18C135.896 13.06 136.156 12.93 136.536 12.79C136.916 12.65 137.206 12.6 137.406 12.64C137.266 12.48 137.136 12.22 137.016 11.86C136.896 11.5 136.846 11.21 136.866 10.99C137.046 11.13 137.316 11.22 137.676 11.26C138.056 11.3 138.356 11.3 138.576 11.26C138.676 11.04 138.716 10.73 138.696 10.33C138.676 9.93 138.596 9.63 138.456 9.43C138.696 9.43 138.996 9.52 139.356 9.7C139.716 9.88 139.966 10.07 140.106 10.27C140.006 10.11 139.936 9.89 139.896 9.61C139.856 9.33 139.856 9.09 139.896 8.89C139.956 9.09 140.066 9.31 140.226 9.55C140.406 9.77 140.586 9.92 140.766 10C140.686 9.78 140.676 9.5 140.736 9.16C140.796 8.82 140.886 8.56 141.006 8.38C141.046 8.6 141.176 8.84 141.396 9.1C141.616 9.36 141.836 9.54 142.056 9.64C142.276 9.34 142.426 8.92 142.506 8.38C142.586 7.84 142.556 7.39 142.416 7.03C142.676 7.25 142.906 7.57 143.106 7.99C143.306 8.41 143.426 8.8 143.466 9.16C143.466 8.82 143.536 8.42 143.676 7.96C143.836 7.48 144.046 7.12 144.306 6.88C144.286 7.26 144.366 7.71 144.546 8.23C144.726 8.73 144.936 9.13 145.176 9.43C145.396 9.27 145.626 9.02 145.866 8.68C146.126 8.32 146.276 8 146.316 7.72C146.516 7.92 146.686 8.23 146.826 8.65C146.966 9.07 147.016 9.41 146.976 9.67C147.096 9.49 147.306 9.29 147.606 9.07C147.926 8.85 148.196 8.72 148.416 8.68C148.376 8.9 148.406 9.2 148.506 9.58C148.626 9.94 148.756 10.2 148.896 10.36C149.056 10.42 149.326 10.42 149.706 10.36C150.106 10.28 150.376 10.19 150.516 10.09C150.596 10.25 150.666 10.52 150.726 10.9C150.786 11.28 150.786 11.55 150.726 11.71C150.866 11.81 151.126 11.9 151.506 11.98C151.906 12.06 152.186 12.07 152.346 12.01C152.406 12.17 152.386 12.45 152.286 12.85C152.206 13.23 152.106 13.49 151.986 13.63C152.206 13.59 152.516 13.66 152.916 13.84C153.316 14 153.596 14.15 153.756 14.29C153.556 14.39 153.326 14.62 153.066 14.98C152.826 15.32 152.676 15.6 152.616 15.82C152.916 16.08 153.346 16.31 153.906 16.51C154.466 16.69 154.946 16.75 155.346 16.69C155.066 16.99 154.656 17.26 154.116 17.5C153.576 17.74 153.106 17.85 152.706 17.83C152.846 18.07 153.066 18.32 153.366 18.58C153.666 18.82 153.956 18.97 154.236 19.03C153.956 19.09 153.626 19.09 153.246 19.03C152.866 18.95 152.556 18.83 152.316 18.67C152.316 18.93 152.226 19.25 152.046 19.63C152.166 19.93 152.226 20.18 152.226 20.38C152.586 20.4 152.986 20.53 153.426 20.77C153.866 20.99 154.206 21.23 154.446 21.49C154.126 21.33 153.706 21.28 153.186 21.34C152.686 21.38 152.276 21.49 151.956 21.67C151.976 21.91 152.086 22.18 152.286 22.48C152.486 22.76 152.676 22.97 152.856 23.11C152.636 23.15 152.346 23.12 151.986 23.02C151.646 22.92 151.396 22.79 151.236 22.63C151.556 22.93 151.846 23.36 152.106 23.92C152.386 24.48 152.516 24.98 152.496 25.42C152.276 25.04 151.916 24.66 151.416 24.28C150.916 23.9 150.446 23.67 150.006 23.59C149.866 23.91 149.786 24.35 149.766 24.91C149.766 25.45 149.816 25.88 149.916 26.2C149.576 26.12 149.196 25.9 148.776 25.54C148.356 25.18 148.076 24.84 147.936 24.52C147.796 24.92 147.766 25.4 147.846 25.96C147.946 26.54 148.116 27 148.356 27.34C148.116 27.12 147.906 26.82 147.726 26.44C147.566 26.06 147.456 25.68 147.396 25.3C147.336 25.72 147.216 26.07 147.036 26.35C146.996 26.11 146.886 25.84 146.706 25.54C146.546 25.24 146.366 25.03 146.166 24.91C146.166 25.17 146.086 25.49 145.926 25.87C145.786 26.27 145.626 26.57 145.446 26.77C145.426 26.59 145.336 26.38 145.176 26.14C145.016 25.9 144.716 25.66 144.276 25.42C143.836 25.2 143.186 25.01 142.326 24.85ZM144.336 14.56C144.336 14.7 144.396 14.88 144.516 15.1C144.636 15.3 144.756 15.44 144.876 15.52C145.016 15.42 145.126 15.24 145.206 14.98C145.146 14.96 145.096 14.94 145.056 14.92C145.076 14.9 145.146 14.88 145.266 14.86C145.266 14.8 145.276 14.75 145.296 14.71C144.976 14.65 144.706 14.64 144.486 14.68C144.606 14.5 144.796 14.34 145.056 14.2C145.316 14.04 145.556 13.95 145.776 13.93C145.616 13.91 145.416 13.93 145.176 13.99C144.956 14.05 144.776 14.13 144.636 14.23C144.696 14.07 144.806 13.91 144.966 13.75C145.146 13.59 145.306 13.48 145.446 13.42C145.346 13.42 145.216 13.47 145.056 13.57C144.896 13.67 144.786 13.77 144.726 13.87C144.726 13.87 144.706 13.81 144.666 13.69C144.626 13.95 144.556 14.16 144.456 14.32C144.476 14.14 144.446 13.92 144.366 13.66C144.286 13.4 144.186 13.2 144.066 13.06C144.026 13.18 144.026 13.35 144.066 13.57C144.106 13.79 144.166 13.96 144.246 14.08C144.066 14.06 143.866 14 143.646 13.9C143.846 14.08 143.986 14.26 144.066 14.44C143.906 14.42 143.706 14.44 143.466 14.5C143.246 14.54 143.086 14.6 142.986 14.68C143.086 14.7 143.226 14.77 143.406 14.89C143.406 14.89 143.436 14.85 143.496 14.77C143.496 14.83 143.506 14.9 143.526 14.98C143.566 15.04 143.606 15.09 143.646 15.13C143.646 15.13 143.616 15.13 143.556 15.13C143.636 15.29 143.716 15.42 143.796 15.52C143.796 15.38 143.856 15.21 143.976 15.01C144.116 14.79 144.236 14.64 144.336 14.56ZM145.956 14.92C145.816 14.84 145.656 14.78 145.476 14.74C145.496 14.76 145.516 14.79 145.536 14.83C145.696 14.83 145.836 14.86 145.956 14.92ZM143.196 15.52C143.196 15.5 143.196 15.45 143.196 15.37C143.196 15.37 143.196 15.42 143.196 15.52ZM150.516 18.67C150.536 18.85 150.496 19.07 150.396 19.33C150.316 19.59 150.216 19.81 150.096 19.99C150.136 20.11 150.166 20.21 150.186 20.29C150.446 20.07 150.706 19.72 150.966 19.24C150.826 19 150.676 18.81 150.516 18.67ZM147.636 19.03C147.796 19.13 147.936 19.32 148.056 19.6C148.196 19.88 148.276 20.11 148.296 20.29C148.476 20.17 148.676 19.96 148.896 19.66C149.116 19.34 149.226 19.07 149.226 18.85C149.326 18.91 149.436 19 149.556 19.12C149.456 18.92 149.346 18.77 149.226 18.67C149.206 18.87 149.096 19.12 148.896 19.42C148.696 19.72 148.506 19.91 148.326 19.99C148.286 19.79 148.166 19.55 147.966 19.27C147.766 18.97 147.586 18.77 147.426 18.67C147.266 18.85 147.146 19.1 147.066 19.42C146.986 19.74 146.966 20.01 147.006 20.23C146.746 19.95 146.596 19.54 146.556 19C146.496 19.34 146.376 19.61 146.196 19.81C146.496 20.07 146.766 20.23 147.006 20.29C147.146 20.19 147.276 20 147.396 19.72C147.536 19.44 147.616 19.21 147.636 19.03ZM144.576 18.67C144.616 18.85 144.626 19.08 144.606 19.36C144.606 19.64 144.566 19.9 144.486 20.14C144.586 20.3 144.706 20.46 144.846 20.62C145.006 20.76 145.136 20.85 145.236 20.89C145.176 20.67 145.186 20.37 145.266 19.99C145.366 19.61 145.486 19.33 145.626 19.15C145.706 19.35 145.886 19.57 146.166 19.81C146.206 19.65 146.176 19.46 146.076 19.24C145.976 19 145.866 18.81 145.746 18.67C145.646 18.73 145.526 18.86 145.386 19.06C145.246 19.24 145.176 19.39 145.176 19.51C145.056 19.45 144.926 19.33 144.786 19.15C144.646 18.95 144.576 18.79 144.576 18.67ZM143.436 20.89C143.456 20.79 143.516 20.67 143.616 20.53C143.736 20.39 143.856 20.26 143.976 20.14L143.946 20.08C143.666 20.38 143.496 20.65 143.436 20.89Z" fill="#45624E"/>
</svg>
