<svg width="12" height="12" viewBox="0 0 12 12" fill="none" xmlns="http://www.w3.org/2000/svg">
<path d="M0.420535 10.668V0.615999C-0.341094 0.3248 0.103189 0.0839999 0.420535 0H6.63656C7.55496 0.2016 7.01923 0.494666 6.63656 0.615999V10.668H7.33656V3.808H10.9206C11.7046 3.9872 11.2472 4.34933 10.9206 4.508V10.668C11.5254 10.8472 11.3032 11.2093 11.1166 11.368H0.420535C-0.318665 11.1888 0.112535 10.8267 0.420535 10.668Z" fill="#6C8776"/>
<rect x="1.9043" y="1.37207" width="0.615999" height="1.176" rx="0.308" fill="#C0CFB2"/>
<rect x="3.24805" y="1.3999" width="0.615999" height="1.176" rx="0.308" fill="#C0CFB2"/>
<rect x="4.5918" y="1.3999" width="0.615999" height="1.176" rx="0.308" fill="#C0CFB2"/>
<rect x="4.5918" y="3.3042" width="0.615999" height="1.176" rx="0.308" fill="#C0CFB2"/>
<rect x="3.24805" y="3.3042" width="0.615999" height="1.176" rx="0.308" fill="#C0CFB2"/>
<rect x="1.9043" y="3.24805" width="0.615999" height="1.176" rx="0.308" fill="#C0CFB2"/>
<rect x="1.9043" y="5.15186" width="0.615999" height="1.176" rx="0.308" fill="#C0CFB2"/>
<rect x="3.24805" y="5.15186" width="0.615999" height="1.176" rx="0.308" fill="#C0CFB2"/>
<rect x="4.5918" y="5.15186" width="0.615999" height="1.176" rx="0.308" fill="#C0CFB2"/>
<rect x="1.9043" y="7.05615" width="0.615999" height="1.176" rx="0.308" fill="#C0CFB2"/>
<rect x="3.24805" y="7.05615" width="0.615999" height="1.176" rx="0.308" fill="#C0CFB2"/>
<rect x="4.5918" y="7.05615" width="0.615999" height="1.176" rx="0.308" fill="#C0CFB2"/>
<rect x="8.09375" y="5.12451" width="0.615999" height="1.176" rx="0.308" fill="#C0CFB2"/>
<rect x="9.4375" y="5.12451" width="0.615999" height="1.176" rx="0.308" fill="#C0CFB2"/>
<rect x="8.09375" y="7.02832" width="0.615999" height="1.176" rx="0.308" fill="#C0CFB2"/>
<rect x="9.4375" y="7.02832" width="0.615999" height="1.176" rx="0.308" fill="#C0CFB2"/>
<path d="M1.87695 9.24013C1.87695 9.07002 2.01485 8.93213 2.18495 8.93213C2.35506 8.93213 2.49295 9.07003 2.49295 9.24013V10.7801H1.87695V9.24013Z" fill="#C0CFB2"/>
<path d="M3.2207 9.24013C3.2207 9.07002 3.3586 8.93213 3.5287 8.93213C3.69881 8.93213 3.8367 9.07003 3.8367 9.24013V10.7801H3.2207V9.24013Z" fill="#C0CFB2"/>
<path d="M4.5918 9.26796C4.5918 9.09786 4.72969 8.95996 4.8998 8.95996C5.0699 8.95996 5.2078 9.09786 5.2078 9.26796V10.808H4.5918V9.26796Z" fill="#C0CFB2"/>
<path d="M8.09375 9.24013C8.09375 9.07002 8.23165 8.93213 8.40175 8.93213C8.57185 8.93213 8.70975 9.07003 8.70975 9.24013V10.7801H8.09375V9.24013Z" fill="#C0CFB2"/>
<path d="M9.4375 9.24013C9.4375 9.07002 9.5754 8.93213 9.7455 8.93213C9.9156 8.93213 10.0535 9.07003 10.0535 9.24013V10.7801H9.4375V9.24013Z" fill="#C0CFB2"/>
</svg>
