<svg width="13" height="9" viewBox="0 0 13 9" fill="none" xmlns="http://www.w3.org/2000/svg">
<path d="M5.34931 4.62385L0.692325 0H12.5011L7.84413 4.62385C6.77967 5.74679 5.73739 5.09174 5.34931 4.62385Z" fill="#6C8776"/>
<path d="M4.10191 4.45872L0.110201 0.577982C-0.0893839 0.776147 0.0270408 5.88991 0.110201 8.42202L4.10191 4.45872Z" fill="#6C8776"/>
<path d="M13 0.577982L9.09146 4.45872L13 8.42202V0.577982Z" fill="#6C8776"/>
<path d="M12.4179 9H0.692325L4.60079 5.11927C6.42672 7.03486 7.96729 5.91743 8.50933 5.11927L12.4179 9Z" fill="#6C8776"/>
<path d="M5.34931 4.62385L0.692325 0H12.5011L7.84413 4.62385C6.77967 5.74679 5.73739 5.09174 5.34931 4.62385Z" stroke="#6C8776"/>
<path d="M4.10191 4.45872L0.110201 0.577982C-0.0893839 0.776147 0.0270408 5.88991 0.110201 8.42202L4.10191 4.45872Z" stroke="#6C8776"/>
<path d="M13 0.577982L9.09146 4.45872L13 8.42202V0.577982Z" stroke="#6C8776"/>
<path d="M12.4179 9H0.692325L4.60079 5.11927C6.42672 7.03486 7.96729 5.91743 8.50933 5.11927L12.4179 9Z" stroke="#6C8776"/>
</svg>
