<svg width="105" height="21" viewBox="0 0 105 21" fill="none" xmlns="http://www.w3.org/2000/svg">
<path d="M8.38 16.78C8.23333 16.9667 8.12 17.2133 8.04 17.52C7.97333 17.84 7.95333 18.1133 7.98 18.34C7.87333 18.1933 7.79333 17.9933 7.74 17.74C7.7 17.5 7.7 17.2733 7.74 17.06C7.66 17.2867 7.54667 17.5133 7.4 17.74C7.26667 17.98 7.12 18.16 6.96 18.28C7.01333 18.04 7.00667 17.74 6.94 17.38C6.87333 17.0333 6.76667 16.76 6.62 16.56C6.58 16.8267 6.46 17.1133 6.26 17.42C6.06 17.74 5.84667 17.9733 5.62 18.12C5.75333 17.88 5.81333 17.5667 5.8 17.18C5.8 16.8067 5.73333 16.5067 5.6 16.28C5.53333 16.4933 5.4 16.7267 5.2 16.98C5 17.2333 4.8 17.4 4.6 17.48C4.72 17.2933 4.79333 17.04 4.82 16.72C4.84667 16.4 4.84 16.1333 4.8 15.92C4.53333 15.96 4.26 16.1 3.98 16.34C3.7 16.58 3.48667 16.8067 3.34 17.02C3.32667 16.7667 3.36667 16.46 3.46 16.1C3.55333 15.74 3.68667 15.4667 3.86 15.28C3.55333 15.24 3.18 15.28 2.74 15.4C2.31333 15.52 1.99333 15.6933 1.78 15.92C1.82 15.6133 1.97333 15.28 2.24 14.92C2.50667 14.56 2.76667 14.2933 3.02 14.12C2.83333 14.08 2.61333 14.08 2.36 14.12C2.10667 14.16 1.9 14.24 1.74 14.36C1.86 14.2 2.03333 14.06 2.26 13.94C2.48667 13.8067 2.69333 13.74 2.88 13.74C2.64 13.5667 2.31333 13.4667 1.9 13.44C1.48667 13.4133 1.13333 13.4333 0.84 13.5C1.06667 13.3 1.38 13.14 1.78 13.02C2.16667 12.9 2.50667 12.86 2.8 12.9C2.74667 12.6467 2.74667 12.3467 2.8 12C2.85333 11.6533 2.96 11.3733 3.12 11.16C3.04 11.4133 3.03333 11.7133 3.1 12.06C3.16667 12.4067 3.28 12.6867 3.44 12.9C3.46667 12.74 3.54667 12.54 3.68 12.3C3.81333 12.06 3.94 11.8933 4.06 11.8C4.08667 11.96 4.16667 12.16 4.3 12.4C4.43333 12.64 4.56667 12.8067 4.7 12.9C4.83333 12.7533 4.92667 12.54 4.98 12.26C5.03333 11.98 5.04667 11.7333 5.02 11.52C5.12667 11.6667 5.21333 11.86 5.28 12.1C5.34667 12.3267 5.37333 12.5333 5.36 12.72C5.42667 12.4133 5.55333 12.1133 5.74 11.82C5.67333 11.6467 5.62 11.4733 5.58 11.3C5.55333 11.1133 5.55333 10.9533 5.58 10.82C5.39333 10.9 5.19333 11.04 4.98 11.24C4.78 11.4267 4.63333 11.6133 4.54 11.8C4.48667 11.6267 4.47333 11.4133 4.5 11.16C4.54 10.8933 4.59333 10.6733 4.66 10.5C4.56667 10.6733 4.42667 10.8533 4.24 11.04C4.05333 11.2133 3.87333 11.3267 3.7 11.38C3.86 11.2467 4 11.0533 4.12 10.8C4.25333 10.5467 4.32 10.3133 4.32 10.1C4.22667 10.3 4.06667 10.4933 3.84 10.68C3.61333 10.8667 3.39333 10.9867 3.18 11.04C3.36667 10.9333 3.54 10.76 3.7 10.52C3.87333 10.28 3.98 10.0533 4.02 9.84C3.82 9.98667 3.54667 10.1067 3.2 10.2C2.86667 10.2933 2.58 10.32 2.34 10.28C2.55333 10.1467 2.76667 9.94667 2.98 9.68C3.20667 9.4 3.34 9.14 3.38 8.9C3.18 9.03333 2.92667 9.14 2.62 9.22C2.31333 9.28667 2.04 9.3 1.8 9.26C2.04 9.26 2.3 9.18667 2.58 9.04C2.87333 8.88 3.1 8.70667 3.26 8.52C3.07333 8.53333 2.84667 8.5 2.58 8.42C2.31333 8.34 2.11333 8.24 1.98 8.12C2.16667 8.09333 2.37333 8.00667 2.6 7.86C2.84 7.71333 3.00667 7.56 3.1 7.4C2.83333 7.45333 2.52667 7.42667 2.18 7.32C1.83333 7.21333 1.56 7.07333 1.36 6.9C1.61333 6.96667 1.91333 6.98667 2.26 6.96C2.62 6.92 2.92 6.83333 3.16 6.7C3.04 6.47333 2.84 6.24667 2.56 6.02C2.28 5.78 2.01333 5.62667 1.76 5.56C1.98667 5.44 2.28667 5.38667 2.66 5.4C3.03333 5.41333 3.32 5.46667 3.52 5.56C3.30667 5.46667 3.08 5.32 2.84 5.12C2.61333 4.92 2.46 4.71333 2.38 4.5C2.55333 4.67333 2.78 4.82667 3.06 4.96C3.34 5.08 3.6 5.15333 3.84 5.18C3.69333 5.02 3.56667 4.78667 3.46 4.48C3.35333 4.17333 3.30667 3.92 3.32 3.72C3.45333 3.88 3.67333 4.02667 3.98 4.16C4.28667 4.28 4.54667 4.32667 4.76 4.3C4.61333 4.12667 4.49333 3.9 4.4 3.62C4.32 3.32667 4.26667 3.03333 4.24 2.74C4.22667 2.43333 4.24667 2.16667 4.3 1.94C4.36667 2.16667 4.48667 2.4 4.66 2.64C4.84667 2.88 5.05333 3.09333 5.28 3.28C5.52 3.46667 5.74667 3.6 5.96 3.68C6.08 3.34667 6.1 2.94667 6.02 2.48C5.95333 2.01333 5.83333 1.62667 5.66 1.32C5.88667 1.46667 6.09333 1.69333 6.28 2C6.46667 2.30667 6.6 2.62 6.68 2.94C6.69333 2.46 6.78667 2.06667 6.96 1.76C7 2 7.09333 2.27333 7.24 2.58C7.38667 2.88667 7.56 3.11333 7.76 3.26C7.93333 3.1 8.08 2.85333 8.2 2.52C8.32 2.17333 8.36667 1.88667 8.34 1.66C8.51333 1.82 8.66667 2.06 8.8 2.38C8.94667 2.68667 9.02667 2.96 9.04 3.2C9.2 3.02667 9.34667 2.78 9.48 2.46C9.61333 2.14 9.67333 1.86 9.66 1.62C9.80667 1.80667 9.91333 2.07333 9.98 2.42C10.06 2.76667 10.0667 3.05333 10 3.28C10.1867 3.16 10.3667 2.96667 10.54 2.7C10.7133 2.43333 10.82 2.18667 10.86 1.96C10.9933 2.14667 11.0733 2.4 11.1 2.72C11.14 3.04 11.14 3.31333 11.1 3.54C11.3933 3.38 11.6933 3.12 12 2.76C12.32 2.4 12.5267 2.05333 12.62 1.72C12.7133 1.93333 12.7667 2.18667 12.78 2.48C12.7933 2.77333 12.7733 3.06667 12.72 3.36C12.6667 3.65333 12.5733 3.89333 12.44 4.08C12.7467 3.96 13.0667 3.76 13.4 3.48C13.7467 3.18667 14 2.9 14.16 2.62C14.2 2.94 14.1467 3.32 14 3.76C13.8667 4.18667 13.6867 4.51333 13.46 4.74C13.74 4.76667 14.0733 4.72 14.46 4.6C14.86 4.48 15.1733 4.33333 15.4 4.16C15.4 4.34667 15.3467 4.56 15.24 4.8C15.1467 5.04 15.0267 5.26667 14.88 5.48C14.7333 5.68 14.58 5.83333 14.42 5.94C14.6733 5.80667 14.9933 5.75333 15.38 5.78C15.78 5.80667 16.1067 5.89333 16.36 6.04C16.08 6.05333 15.7667 6.16 15.42 6.36C15.0867 6.56 14.8333 6.76667 14.66 6.98C14.6333 7.12667 14.5333 7.31333 14.36 7.54C14.1867 7.75333 14.0333 7.88667 13.9 7.94C13.86 7.80667 13.7533 7.62667 13.58 7.4C13.42 7.17333 13.2733 7.03333 13.14 6.98C12.9533 7.12667 12.8 7.36667 12.68 7.7C12.56 8.02 12.5 8.3 12.5 8.54C12.4067 8.44667 12.3133 8.32 12.22 8.16C12.2867 8.30667 12.3333 8.46 12.36 8.62C12.3867 8.76667 12.3933 8.88667 12.38 8.98C12.5667 8.91333 12.7667 8.76667 12.98 8.54C13.1933 8.31333 13.3333 8.10667 13.4 7.92C13.4933 8.10667 13.54 8.35333 13.54 8.66C13.5533 8.96667 13.5133 9.21333 13.42 9.4C13.7 9.32 13.9933 9.15333 14.3 8.9C14.62 8.63333 14.84 8.37333 14.96 8.12C14.9733 8.4 14.9133 8.73333 14.78 9.12C14.6467 9.50667 14.48 9.8 14.28 10C14.4667 9.78667 14.74 9.6 15.1 9.44C15.46 9.26667 15.78 9.18 16.06 9.18C15.8067 9.31333 15.5533 9.53333 15.3 9.84C15.0467 10.1333 14.88 10.42 14.8 10.7C15.08 10.54 15.44 10.4533 15.88 10.44C16.32 10.4133 16.7 10.44 17.02 10.52C16.7 10.56 16.34 10.6933 15.94 10.92C15.5533 11.1467 15.28 11.4 15.12 11.68C15.3467 11.6933 15.6133 11.7667 15.92 11.9C16.24 12.0333 16.4667 12.1933 16.6 12.38C16.3867 12.38 16.12 12.4533 15.8 12.6C15.48 12.7467 15.2533 12.9133 15.12 13.1C15.3067 13.3667 15.5867 13.62 15.96 13.86C16.3333 14.1 16.68 14.2533 17 14.32C16.7067 14.44 16.3333 14.4867 15.88 14.46C15.4267 14.42 15.06 14.32 14.78 14.16C14.8067 14.3867 14.9133 14.64 15.1 14.92C15.2867 15.2 15.4667 15.4133 15.64 15.56C15.4133 15.6 15.14 15.5733 14.82 15.48C14.5 15.3733 14.2467 15.2533 14.06 15.12C14.0867 15.4267 14.2133 15.7533 14.44 16.1C14.68 16.4333 14.9333 16.6867 15.2 16.86C14.9067 16.7533 14.6 16.5667 14.28 16.3C13.9733 16.0333 13.76 15.76 13.64 15.48C13.64 15.8 13.74 16.1467 13.94 16.52C14.14 16.8933 14.36 17.1867 14.6 17.4C14.3067 17.2667 14.0133 17.0467 13.72 16.74C13.4267 16.42 13.2467 16.1067 13.18 15.8C13.06 16.0133 13 16.3133 13 16.7C13.0133 17.0867 13.0667 17.4 13.16 17.64C12.92 17.5467 12.6533 17.3733 12.36 17.12C12.08 16.8667 11.8867 16.6267 11.78 16.4C11.9133 16.68 12.0133 17.02 12.08 17.42C12.1467 17.8333 12.12 18.1867 12 18.48C12.0267 18.1733 11.9467 17.8333 11.76 17.46C11.5733 17.0867 11.3733 16.7867 11.16 16.56C11 16.72 10.8733 16.96 10.78 17.28C10.6867 17.6133 10.6467 17.8933 10.66 18.12C10.46 18.0133 10.26 17.8133 10.06 17.52C9.87333 17.24 9.76667 16.9933 9.74 16.78C9.54 17.06 9.40667 17.4333 9.34 17.9C9.28667 18.3667 9.31333 18.7667 9.42 19.1C9.23333 18.8067 9.06 18.4333 8.9 17.98C8.75333 17.5267 8.58 17.1267 8.38 16.78ZM9.26 7.02C9.23333 7.03333 9.2 7.04667 9.16 7.06C9.25333 7.26 9.32667 7.5 9.38 7.78C9.43333 8.04667 9.43333 8.26667 9.38 8.44C9.48667 8.32 9.58 8.16667 9.66 7.98C9.62 8.04667 9.58 8.11333 9.54 8.18C9.43333 7.96667 9.38 7.68 9.38 7.32C9.39333 6.94667 9.44667 6.65333 9.54 6.44C9.38 6.52 9.23333 6.68667 9.1 6.94H9.12C9.17333 6.96667 9.22 6.99333 9.26 7.02ZM10.68 7.08C10.6133 7.30667 10.6133 7.58 10.68 7.9C10.7467 8.22 10.8467 8.47333 10.98 8.66C11.14 8.60667 11.3267 8.47333 11.54 8.26C11.7533 8.04667 11.8867 7.86 11.94 7.7C11.98 7.72667 12.02 7.77333 12.06 7.84C11.94 7.56 11.8733 7.30667 11.86 7.08C11.8333 7.4 11.74 7.66667 11.58 7.88C11.5933 7.74667 11.5733 7.59333 11.52 7.42C11.4667 7.23333 11.3933 7.08667 11.3 6.98C11.18 7.14 11.0933 7.35333 11.04 7.62C11 7.88667 11.0067 8.11333 11.06 8.3C10.9667 8.12667 10.8867 7.91333 10.82 7.66C10.7667 7.39333 10.7667 7.16667 10.82 6.98C10.6867 7.03333 10.5467 7.11333 10.4 7.22C10.2533 7.32667 10.1133 7.45333 9.98 7.6C10.0067 7.77333 10.0133 7.96 10 8.16C10.0667 7.96 10.16 7.76 10.28 7.56C10.4133 7.36 10.5467 7.2 10.68 7.08ZM8.66 7.32C8.64667 7.36 8.64 7.39333 8.64 7.42C8.69333 7.35333 8.74667 7.29333 8.8 7.24C8.74667 7.26667 8.7 7.29333 8.66 7.32ZM7.9 8C8.08667 7.93333 8.3 7.78 8.54 7.54C8.52667 7.5 8.50667 7.46667 8.48 7.44C8.21333 7.62667 8.02 7.81333 7.9 8ZM7.4 12.32C7.45333 12.44 7.48667 12.6067 7.5 12.82C7.51333 13.02 7.49333 13.1867 7.44 13.32C7.58667 13.2533 7.73333 13.1333 7.88 12.96C8.04 12.7867 8.14667 12.62 8.2 12.46C8.25333 12.66 8.26667 12.8867 8.24 13.14C8.29333 13.0067 8.36667 12.88 8.46 12.76C8.55333 12.64 8.64667 12.5533 8.74 12.5C8.71333 12.62 8.72 12.7667 8.76 12.94C8.81333 12.78 8.83333 12.58 8.82 12.34C8.68667 12.3133 8.56667 12.2867 8.46 12.26C8.56667 12.2333 8.68 12.2067 8.8 12.18C8.77333 11.9133 8.72 11.6867 8.64 11.5C8.58667 11.7133 8.45333 11.96 8.24 12.24C8.02667 12.52 7.82 12.7067 7.62 12.8C7.63333 12.5867 7.57333 12.3133 7.44 11.98C7.32 11.6467 7.18667 11.4067 7.04 11.26C6.90667 11.3133 6.74 11.42 6.54 11.58C6.35333 11.7267 6.2 11.88 6.08 12.04C6.14667 12.2 6.22667 12.36 6.32 12.52C6.41333 12.68 6.50667 12.8067 6.6 12.9C6.73333 12.8867 6.88667 12.82 7.06 12.7C7.23333 12.5667 7.34667 12.44 7.4 12.32ZM10.2 11.88C10.1067 11.9467 10.02 12.0267 9.94 12.12C9.96667 12.12 9.99333 12.1267 10.02 12.14C10.0733 12.0333 10.1333 11.9467 10.2 11.88ZM9.12 13.7C9.04 13.3667 9.06667 13.0133 9.2 12.64C9.2 12.6 9.2 12.5467 9.2 12.48C9.17333 12.4667 9.14 12.4533 9.1 12.44C8.99333 12.68 8.88 12.8533 8.76 12.96C8.84 13.2933 8.96 13.54 9.12 13.7ZM9.78 12.94C9.78 12.8867 9.78667 12.84 9.8 12.8C9.72 12.7467 9.64 12.7 9.56 12.66C9.50667 12.7533 9.46 12.8467 9.42 12.94C9.52667 13.2467 9.66667 13.4733 9.84 13.62C9.89333 13.4067 9.9 13.1467 9.86 12.84C9.83333 12.8667 9.80667 12.9 9.78 12.94ZM19.4653 16.96C19.332 17.08 19.1986 17.2533 19.0653 17.48C18.9453 17.7067 18.872 17.9133 18.8453 18.1C18.752 17.9533 18.692 17.74 18.6653 17.46C18.652 17.1933 18.6853 16.9733 18.7653 16.8C18.672 16.96 18.512 17.14 18.2853 17.34C18.0586 17.54 17.852 17.66 17.6653 17.7C17.7453 17.5133 17.792 17.2733 17.8053 16.98C17.8186 16.6867 17.7786 16.4533 17.6853 16.28C17.432 16.32 17.152 16.4333 16.8453 16.62C16.5386 16.8067 16.3186 17.0067 16.1853 17.22C16.212 17.0067 16.2853 16.7733 16.4053 16.52C16.5253 16.2667 16.6653 16.0467 16.8253 15.86C16.6653 16.0067 16.472 16.1267 16.2453 16.22C16.032 16.3133 15.8253 16.36 15.6253 16.36C15.852 16.3067 16.0786 16.1733 16.3053 15.96C16.5453 15.7467 16.7186 15.54 16.8253 15.34C16.652 15.3933 16.4253 15.4133 16.1453 15.4C15.8653 15.3733 15.6453 15.3133 15.4853 15.22C15.6586 15.1667 15.852 15.0533 16.0653 14.88C16.2786 14.6933 16.4253 14.5133 16.5053 14.34C16.332 14.1667 16.072 14.0333 15.7253 13.94C15.3786 13.8467 15.0853 13.82 14.8453 13.86C15.0586 13.7267 15.332 13.62 15.6653 13.54C15.9986 13.46 16.2853 13.4467 16.5253 13.5C16.3386 13.4467 16.1453 13.3333 15.9453 13.16C15.732 12.9733 15.5786 12.7933 15.4853 12.62C15.6453 12.7133 15.8653 12.7667 16.1453 12.78C16.4386 12.78 16.672 12.7467 16.8453 12.68C16.832 12.48 16.752 12.26 16.6053 12.02C16.4586 11.7667 16.3053 11.58 16.1453 11.46C16.3453 11.46 16.5786 11.5133 16.8453 11.62C17.112 11.7267 17.312 11.86 17.4453 12.02C17.2853 11.8067 17.172 11.5067 17.1053 11.12C17.052 10.72 17.0586 10.3933 17.1253 10.14C17.2586 10.3667 17.472 10.6133 17.7653 10.88C18.072 11.1333 18.352 11.2867 18.6053 11.34C18.6186 11.2467 18.6853 11.1133 18.8053 10.94C18.9253 10.7533 19.0253 10.64 19.1053 10.6C19.1586 10.6533 19.2853 10.7267 19.4853 10.82C19.6853 10.9 19.832 10.9333 19.9253 10.92C20.0186 10.8 20.092 10.62 20.1453 10.38C20.212 10.14 20.2253 9.94667 20.1853 9.8C20.2653 9.84 20.3453 9.90667 20.4253 10C20.5186 10.0933 20.5986 10.1933 20.6653 10.3C20.5986 10.0067 20.4853 9.78667 20.3253 9.64C20.2186 9.72 20.1186 9.85333 20.0253 10.04C19.932 10.2267 19.8786 10.3867 19.8653 10.52C19.7586 10.44 19.652 10.3067 19.5453 10.12C19.4386 9.93333 19.3853 9.77333 19.3853 9.64C19.3853 9.82667 19.312 10.0533 19.1653 10.32C19.032 10.5867 18.892 10.78 18.7453 10.9C18.7586 10.7133 18.692 10.4867 18.5453 10.22C18.412 9.94 18.272 9.74667 18.1253 9.64C18.0586 9.74667 17.932 9.85333 17.7453 9.96C17.5586 10.0667 17.4053 10.1267 17.2853 10.14C17.3386 10.02 17.352 9.85333 17.3253 9.64C17.312 9.42667 17.272 9.26667 17.2053 9.16C17.1786 9 17.0986 8.80667 16.9653 8.58C16.832 8.34 16.6986 8.18 16.5653 8.1C16.712 8.04667 16.9186 8.02 17.1853 8.02C17.452 8.02 17.6586 8.06 17.8053 8.14C17.832 7.96667 17.8053 7.76667 17.7253 7.54C17.6453 7.3 17.5453 7.12667 17.4253 7.02C17.5853 7.03333 17.772 7.09333 17.9853 7.2C18.212 7.30667 18.3786 7.42667 18.4853 7.56C18.5253 7.44 18.5253 7.28667 18.4853 7.1C18.4453 6.9 18.392 6.74667 18.3253 6.64C18.4186 6.66667 18.5186 6.72 18.6253 6.8C18.7453 6.88 18.8453 6.96667 18.9253 7.06C18.8053 6.87333 18.712 6.66 18.6453 6.42C18.5786 6.18 18.5653 5.96667 18.6053 5.78C18.6186 6.00667 18.7053 6.25333 18.8653 6.52C19.0253 6.77333 19.2053 6.96 19.4053 7.08C19.312 6.82667 19.2653 6.51333 19.2653 6.14C19.2786 5.75333 19.352 5.44667 19.4853 5.22C19.5386 5.48667 19.672 5.77333 19.8853 6.08C20.112 6.38667 20.332 6.60667 20.5453 6.74C20.5186 6.52667 20.5586 6.25333 20.6653 5.92C20.772 5.57333 20.9053 5.32 21.0653 5.16C21.1053 5.38667 21.212 5.64667 21.3853 5.94C21.5586 6.23333 21.732 6.45333 21.9053 6.6C21.8786 6.46667 21.892 6.22667 21.9453 5.88C21.9986 5.53333 22.072 5.15333 22.1653 4.74C22.2586 4.32667 22.3586 3.95333 22.4653 3.62C22.572 3.28667 22.672 3.06667 22.7653 2.96C22.7253 3.09333 22.7186 3.33333 22.7453 3.68C22.7853 4.02667 22.8386 4.40667 22.9053 4.82C22.972 5.23333 23.0453 5.61333 23.1253 5.96C23.2053 6.30667 23.2786 6.54 23.3453 6.66C23.5453 6.54 23.7453 6.34 23.9453 6.06C24.1586 5.76667 24.2786 5.50667 24.3053 5.28C24.452 5.45333 24.5586 5.71333 24.6253 6.06C24.692 6.40667 24.712 6.69333 24.6853 6.92C24.7786 6.68 24.9786 6.43333 25.2853 6.18C25.6053 5.91333 25.892 5.74667 26.1453 5.68C25.9986 5.90667 25.9186 6.22667 25.9053 6.64C25.892 7.04 25.932 7.36 26.0253 7.6C26.132 7.41333 26.312 7.24 26.5653 7.08C26.832 6.92 27.072 6.83333 27.2853 6.82C27.1253 6.95333 26.9653 7.14667 26.8053 7.4C26.6586 7.65333 26.572 7.88667 26.5453 8.1C26.6653 7.94 26.8386 7.8 27.0653 7.68C27.3053 7.54667 27.5253 7.48667 27.7253 7.5C27.5386 7.58 27.352 7.70667 27.1653 7.88C26.9786 8.05333 26.852 8.23333 26.7853 8.42C27.012 8.26 27.3053 8.13333 27.6653 8.04C28.0386 7.94667 28.3586 7.92667 28.6253 7.98C28.3586 8.03333 28.072 8.18 27.7653 8.42C27.4586 8.64667 27.252 8.88667 27.1453 9.14C27.2786 9.11333 27.452 9.13333 27.6653 9.2C27.8786 9.25333 28.0386 9.32667 28.1453 9.42C28.012 9.46 27.8586 9.55333 27.6853 9.7C27.512 9.83333 27.3986 9.96 27.3453 10.08C27.492 10.2 27.692 10.2933 27.9453 10.36C28.1986 10.4267 28.4186 10.4467 28.6053 10.42C28.4586 10.54 28.2653 10.6533 28.0253 10.76C27.7853 10.8533 27.572 10.8933 27.3853 10.88C27.5853 10.88 27.8253 10.9667 28.1053 11.14C28.3853 11.3133 28.5853 11.48 28.7053 11.64C28.5053 11.6533 28.2653 11.7467 27.9853 11.92C27.7053 12.08 27.5053 12.24 27.3853 12.4C27.572 12.4 27.7986 12.4733 28.0653 12.62C28.332 12.7667 28.5186 12.92 28.6253 13.08C28.4386 13.08 28.212 13.16 27.9453 13.32C27.692 13.4667 27.5053 13.6067 27.3853 13.74C27.5586 13.9133 27.812 14.08 28.1453 14.24C28.4786 14.4 28.7653 14.4733 29.0053 14.46C28.8586 14.66 28.612 14.8333 28.2653 14.98C27.9186 15.1267 27.6253 15.1933 27.3853 15.18C27.5853 15.3933 27.8786 15.58 28.2653 15.74C28.6653 15.8867 29.012 15.9333 29.3053 15.88C29.0786 16.0667 28.772 16.2267 28.3853 16.36C27.9986 16.4933 27.6586 16.56 27.3653 16.56C27.352 16.6933 27.372 16.8533 27.4253 17.04C27.492 17.2267 27.572 17.3733 27.6653 17.48C27.532 17.4267 27.392 17.3333 27.2453 17.2C27.112 17.0667 27.0186 16.9333 26.9653 16.8C26.9653 16.96 26.892 17.1467 26.7453 17.36C26.612 17.5867 26.4853 17.7533 26.3653 17.86C26.352 17.7 26.2853 17.5 26.1653 17.26C26.0453 17.0333 25.912 16.88 25.7653 16.8C25.8053 17.08 25.752 17.4133 25.6053 17.8C25.472 18.2 25.3053 18.4933 25.1053 18.68C25.1186 18.4 25.0586 18.06 24.9253 17.66C24.792 17.2733 24.6253 16.9867 24.4253 16.8C24.4253 17.0267 24.3453 17.28 24.1853 17.56C24.0386 17.8533 23.8853 18.0733 23.7253 18.22C23.752 18.0067 23.7253 17.74 23.6453 17.42C23.5653 17.1133 23.452 16.8733 23.3053 16.7C23.2253 16.66 23.1386 16.6267 23.0453 16.6C23.0453 16.7067 23.0653 16.7867 23.1053 16.84C22.932 16.8267 22.732 16.7467 22.5053 16.6C22.4653 16.6 22.432 16.6067 22.4053 16.62C22.432 16.6067 22.452 16.5933 22.4653 16.58C22.372 16.5 22.2986 16.4333 22.2453 16.38C22.2186 16.62 22.2453 16.9067 22.3253 17.24C22.4186 17.5867 22.5586 17.8467 22.7453 18.02C22.5186 17.9267 22.2853 17.7467 22.0453 17.48C21.8186 17.2267 21.672 16.98 21.6053 16.74C21.6853 17.0067 21.6853 17.3467 21.6053 17.76C21.5253 18.1867 21.4053 18.52 21.2453 18.76C21.192 18.4667 21.0253 18.14 20.7453 17.78C20.4786 17.42 20.052 17.1467 19.4653 16.96ZM21.7053 9.82C21.572 9.83333 21.3986 9.8 21.1853 9.72C21.3986 10.0267 21.4986 10.3333 21.4853 10.64C21.552 10.6 21.6386 10.52 21.7453 10.4C21.852 10.2667 21.932 10.1467 21.9853 10.04C21.7853 10.0133 21.6186 9.96667 21.4853 9.9C21.6453 9.9 21.8253 9.87333 22.0253 9.82L22.0053 9.78L22.0453 9.8C21.9786 9.48 21.8853 9.24 21.7653 9.08C21.7253 9.16 21.692 9.28667 21.6653 9.46C21.652 9.62 21.6653 9.74 21.7053 9.82ZM20.9853 9.62C21.012 9.74 21.0053 9.88667 20.9653 10.06C20.9253 10.2333 20.8653 10.38 20.7853 10.5C20.8253 10.58 20.852 10.66 20.8653 10.74C20.9453 10.6067 20.9986 10.4333 21.0253 10.22C21.0653 10.0067 21.0653 9.81333 21.0253 9.64L20.9853 9.62ZM21.7253 14.44C21.6853 14.32 21.672 14.18 21.6853 14.02C21.6986 13.8467 21.732 13.7067 21.7853 13.6C21.812 13.7067 21.872 13.8333 21.9653 13.98C22.072 14.1267 22.172 14.2267 22.2653 14.28C22.292 14.2267 22.2986 14.14 22.2853 14.02C22.2853 13.8867 22.272 13.7933 22.2453 13.74C22.3653 13.7 22.5186 13.7067 22.7053 13.76C22.5853 13.7067 22.4653 13.6333 22.3453 13.54C22.2386 13.4467 22.1586 13.3533 22.1053 13.26C22.212 13.3267 22.352 13.3667 22.5253 13.38C22.6986 13.3933 22.8453 13.38 22.9653 13.34C22.9253 13.2733 22.852 13.2 22.7453 13.12C22.652 13.04 22.5653 13 22.4853 13C22.5386 12.96 22.6053 12.92 22.6853 12.88C22.6586 12.8533 22.6386 12.82 22.6253 12.78C22.572 12.7667 22.5253 12.7533 22.4853 12.74C22.4853 12.74 22.5186 12.7333 22.5853 12.72C22.572 12.6933 22.552 12.64 22.5253 12.56C22.472 12.6533 22.4386 12.7867 22.4253 12.96C22.412 13.12 22.4253 13.2533 22.4653 13.36C22.3586 13.2933 22.2653 13.1867 22.1853 13.04C22.1186 12.8933 22.0786 12.76 22.0653 12.64C22.012 12.7467 21.9786 12.88 21.9653 13.04C21.952 13.2 21.9653 13.34 22.0053 13.46C21.7786 13.2733 21.652 13.0333 21.6253 12.74C21.5853 12.8067 21.5453 12.9133 21.5053 13.06C21.4786 13.1933 21.472 13.3 21.4853 13.38C21.4053 13.3667 21.2986 13.3267 21.1653 13.26C21.0453 13.18 20.9653 13.1067 20.9253 13.04C20.9386 13.1333 20.9786 13.24 21.0453 13.36C21.1253 13.48 21.2053 13.5667 21.2853 13.62C21.192 13.6333 21.072 13.62 20.9253 13.58C20.792 13.54 20.692 13.4933 20.6253 13.44C20.6786 13.4933 20.752 13.5467 20.8453 13.6C20.952 13.6533 21.0453 13.6733 21.1253 13.66C21.072 13.7133 21.0053 13.7533 20.9253 13.78C21.032 13.78 21.112 13.7867 21.1653 13.8C21.1253 13.8533 21.092 13.9467 21.0653 14.08C21.052 14.2 21.052 14.2933 21.0653 14.36C21.1586 14.3067 21.2386 14.2133 21.3053 14.08C21.372 13.9467 21.412 13.8333 21.4253 13.74C21.492 13.82 21.5386 13.9333 21.5653 14.08C21.6053 14.2133 21.6586 14.3333 21.7253 14.44ZM30.7286 16.38C30.5953 16.3933 30.4419 16.3733 30.2686 16.32C30.0953 16.2667 29.9619 16.1933 29.8686 16.1C30.0019 16.1133 30.1553 16.0933 30.3286 16.04C30.5019 15.9867 30.6353 15.9133 30.7286 15.82C30.5953 15.66 30.3819 15.5267 30.0886 15.42C29.8086 15.3 29.5686 15.2333 29.3686 15.22C29.5019 15.06 29.7086 14.92 29.9886 14.8C30.2819 14.6667 30.5286 14.6067 30.7286 14.62C30.4753 14.46 30.1553 14.3533 29.7686 14.3C29.3819 14.2333 29.0419 14.2333 28.7486 14.3C29.0019 14.14 29.3219 14.02 29.7086 13.94C30.1086 13.86 30.4486 13.8733 30.7286 13.98C30.5286 13.8067 30.2486 13.6867 29.8886 13.62C29.5286 13.54 29.2219 13.54 28.9686 13.62C29.1419 13.5 29.3619 13.4067 29.6286 13.34C29.8953 13.26 30.1553 13.22 30.4086 13.22C30.2486 13.1933 30.0886 13.1467 29.9286 13.08C29.7819 13 29.6619 12.9133 29.5686 12.82C29.7419 12.8467 29.9486 12.8133 30.1886 12.72C30.4286 12.6267 30.6086 12.5133 30.7286 12.38C30.4353 12.4067 30.0819 12.3467 29.6686 12.2C29.2553 12.04 28.9486 11.8467 28.7486 11.62C29.0153 11.6333 29.3219 11.58 29.6686 11.46C29.5353 11.2867 29.4286 11.0467 29.3486 10.74C29.2019 10.6867 29.0886 10.6267 29.0086 10.56C28.7953 10.88 28.5619 11.1067 28.3086 11.24C28.4686 11.0533 28.5953 10.8067 28.6886 10.5C28.7953 10.18 28.8353 9.89333 28.8086 9.64C28.5819 9.70667 28.3019 9.69333 27.9686 9.6C27.6353 9.49333 27.3686 9.37333 27.1686 9.24C27.4086 9.28 27.6953 9.25333 28.0286 9.16C28.3619 9.06667 28.6219 8.94 28.8086 8.78C28.6619 8.66 28.4686 8.55333 28.2286 8.46C27.9753 8.36667 27.7553 8.32667 27.5686 8.34C27.7019 8.22 27.8953 8.11333 28.1486 8.02C28.4019 7.92667 28.6219 7.89333 28.8086 7.92C28.6486 7.69333 28.3953 7.5 28.0486 7.34C27.6886 7.16667 27.3686 7.08667 27.0886 7.1C27.3153 6.95333 27.6219 6.85333 28.0086 6.8C28.3953 6.73333 28.7153 6.74667 28.9686 6.84C28.9419 6.69333 28.9353 6.52667 28.9486 6.34C28.8819 6.31333 28.8219 6.28 28.7686 6.24C28.8353 6.25333 28.8953 6.26667 28.9486 6.28C28.9886 6.02667 29.0553 5.77333 29.1486 5.52C29.1219 5.50667 29.0886 5.48667 29.0486 5.46C29.0886 5.47333 29.1286 5.48 29.1686 5.48C29.2619 5.22667 29.3686 5.03333 29.4886 4.9C29.2619 4.79333 29.0486 4.69333 28.8486 4.6C28.6619 4.49333 28.5419 4.40667 28.4886 4.34C28.5686 4.39333 28.7219 4.44667 28.9486 4.5C29.1886 4.54 29.4486 4.58 29.7286 4.62C30.0086 4.64667 30.2619 4.66667 30.4886 4.68C30.7286 4.68 30.8953 4.66 30.9886 4.62C30.8553 4.38 30.6553 4.14 30.3886 3.9C30.1219 3.64667 29.8619 3.47333 29.6086 3.38C29.8753 3.34 30.1886 3.36667 30.5486 3.46C30.9086 3.55333 31.1953 3.68667 31.4086 3.86C31.3553 3.59333 31.2219 3.31333 31.0086 3.02C30.8086 2.72667 30.5886 2.52 30.3486 2.4C30.6153 2.45333 30.8953 2.58 31.1886 2.78C31.4819 2.96667 31.7019 3.17333 31.8486 3.4C31.8753 3.12 31.8086 2.80667 31.6486 2.46C31.4886 2.11333 31.3019 1.85333 31.0886 1.68C31.3419 1.78667 31.6019 1.97333 31.8686 2.24C32.1353 2.50667 32.3019 2.77333 32.3686 3.04C32.4886 2.8 32.5686 2.48667 32.6086 2.1C32.6486 1.71333 32.6153 1.40667 32.5086 1.18C32.7353 1.28667 32.9753 1.48667 33.2286 1.78C33.4953 2.06 33.6619 2.32667 33.7286 2.58C33.8353 2.32667 33.8886 2.02667 33.8886 1.68C33.8886 1.33333 33.8219 1.04667 33.6886 0.82C33.8619 1.04667 34.0019 1.32667 34.1086 1.66C34.1353 1.39333 34.1953 1.16 34.2886 0.959999C34.2353 1.17333 34.2486 1.43333 34.3286 1.74C34.4086 2.04667 34.5286 2.28 34.6886 2.44C34.7019 2.26667 34.7619 2.05333 34.8686 1.8C34.9886 1.54667 35.1153 1.36 35.2486 1.24C35.2753 1.41333 35.3486 1.62667 35.4686 1.88C35.6019 2.12 35.7419 2.29333 35.8886 2.4C35.8619 2.22667 35.8886 2.02667 35.9686 1.8C36.0486 1.57333 36.1486 1.4 36.2686 1.28C36.2419 1.44 36.2686 1.63333 36.3486 1.86C36.4419 2.08667 36.5486 2.26667 36.6686 2.4C36.8153 2.17333 36.9286 1.88667 37.0086 1.54C37.0886 1.18 37.1019 0.866666 37.0486 0.599999C37.2086 0.826666 37.3286 1.12 37.4086 1.48C37.4886 1.82667 37.4953 2.13333 37.4286 2.4C37.5486 2.46667 37.7219 2.5 37.9486 2.5C38.1753 2.5 38.3486 2.46667 38.4686 2.4C38.4553 2.53333 38.3886 2.69333 38.2686 2.88C38.1486 3.06667 38.0353 3.2 37.9286 3.28C38.1686 3.45333 38.4819 3.59333 38.8686 3.7C39.2553 3.80667 39.5953 3.84 39.8886 3.8C39.6619 3.98667 39.3486 4.13333 38.9486 4.24C38.5619 4.34667 38.2219 4.36667 37.9286 4.3C38.0219 4.44667 38.1819 4.6 38.4086 4.76C38.6486 4.92 38.8553 5.02 39.0286 5.06C38.8819 5.16667 38.6753 5.26667 38.4086 5.36C38.1553 5.44 37.9419 5.47333 37.7686 5.46C37.6886 5.59333 37.6286 5.76667 37.5886 5.98C37.5486 6.19333 37.5553 6.37333 37.6086 6.52C37.5686 6.48 37.5353 6.43333 37.5086 6.38C37.4819 6.48667 37.4953 6.63333 37.5486 6.82C37.6019 7.00667 37.6619 7.14 37.7286 7.22C37.8219 7.32667 37.9686 7.43333 38.1686 7.54C38.3819 7.64667 38.5619 7.70667 38.7086 7.72C38.6153 7.84 38.4619 7.95333 38.2486 8.06C38.0486 8.16667 37.8753 8.22667 37.7286 8.24C37.9153 8.22667 38.1353 8.29333 38.3886 8.44C38.6553 8.57333 38.8486 8.71333 38.9686 8.86C38.7819 8.87333 38.5553 8.94667 38.2886 9.08C38.0353 9.2 37.8486 9.33333 37.7286 9.48C37.9019 9.54667 38.0819 9.66667 38.2686 9.84C38.4553 10.0133 38.5886 10.18 38.6686 10.34C38.5353 10.22 38.3486 10.1133 38.1086 10.02C37.8819 9.92667 37.6686 9.88667 37.4686 9.9C37.5219 10.1533 37.4886 10.46 37.3686 10.82C37.2619 11.18 37.1286 11.4667 36.9686 11.68C36.9953 11.4133 36.9553 11.1 36.8486 10.74C36.7553 10.3667 36.6153 10.0867 36.4286 9.9C36.4553 10.06 36.4419 10.2533 36.3886 10.48C36.3353 10.6933 36.2553 10.86 36.1486 10.98C36.1619 10.8867 36.1619 10.7733 36.1486 10.64C36.0286 10.7067 35.8819 10.7667 35.7086 10.82C35.6953 10.8867 35.6819 10.9533 35.6686 11.02C35.8553 11.0733 36.0353 11.1467 36.2086 11.24C36.3819 11.3333 36.5219 11.4333 36.6286 11.54C36.3753 11.5133 36.0686 11.58 35.7086 11.74C35.3619 11.8867 35.0953 12.0467 34.9086 12.22C35.0019 12.3267 35.1419 12.4333 35.3286 12.54C35.5286 12.6467 35.7019 12.7 35.8486 12.7C35.7686 12.82 35.6286 12.9333 35.4286 13.04C35.2286 13.1333 35.0553 13.18 34.9086 13.18C35.0819 13.34 35.3286 13.4933 35.6486 13.64C35.9686 13.7733 36.2486 13.82 36.4886 13.78C36.3286 13.9533 36.0819 14.1 35.7486 14.22C35.4286 14.3267 35.1486 14.38 34.9086 14.38C35.0686 14.4067 35.2686 14.5067 35.5086 14.68C35.7619 14.84 35.9353 14.9933 36.0286 15.14C35.8686 15.1667 35.6619 15.2667 35.4086 15.44C35.1686 15.6133 35.0019 15.7667 34.9086 15.9C34.8953 16.0067 34.9286 16.1467 35.0086 16.32C35.1019 16.4933 35.1886 16.6133 35.2686 16.68C35.1753 16.7333 35.0286 16.7733 34.8286 16.8C34.6419 16.8267 34.5019 16.8267 34.4086 16.8C34.4086 17 34.3353 17.2333 34.1886 17.5C34.0553 17.78 33.9153 17.9867 33.7686 18.12C33.7553 17.92 33.6886 17.68 33.5686 17.4C33.4486 17.12 33.3019 16.92 33.1286 16.8C32.9553 16.96 32.7953 17.2 32.6486 17.52C32.5153 17.8533 32.4553 18.14 32.4686 18.38C32.2953 18.2067 32.1353 17.96 31.9886 17.64C31.8419 17.32 31.7753 17.04 31.7886 16.8C31.6686 16.92 31.5753 17.0933 31.5086 17.32C31.4419 17.5467 31.4153 17.7467 31.4286 17.92C31.3086 17.8 31.2019 17.6067 31.1086 17.34C31.0153 17.0733 30.8886 16.7533 30.7286 16.38ZM30.8086 5.32C30.7019 5.32 30.5219 5.28 30.2686 5.2C30.0286 5.10667 29.7753 5.00667 29.5086 4.9C29.4819 5.08667 29.5019 5.3 29.5686 5.54C29.6486 5.55333 29.7353 5.56 29.8286 5.56C29.8153 5.44 29.8153 5.32 29.8286 5.2C29.8553 5.30667 29.8886 5.42 29.9286 5.54C30.2886 5.51333 30.5819 5.44 30.8086 5.32ZM36.0086 5.68C35.9953 5.74667 35.9753 5.82667 35.9486 5.92C35.9486 5.98667 35.9419 6.05333 35.9286 6.12C36.0219 6.18667 36.1086 6.28667 36.1886 6.42C36.2819 6.55333 36.3286 6.65333 36.3286 6.72C36.3019 6.54667 36.3086 6.34667 36.3486 6.12C36.2819 6.01333 36.2153 5.90667 36.1486 5.8C36.0953 5.68 36.0619 5.58 36.0486 5.5C36.0219 5.54 36.0019 5.6 35.9886 5.68H36.0086ZM36.6686 6.44C36.6419 6.41333 36.6153 6.38667 36.5886 6.36C36.6286 6.53333 36.6819 6.68 36.7486 6.8C36.8019 6.72 36.9153 6.63333 37.0886 6.54C37.2619 6.43333 37.4019 6.38 37.5086 6.38C37.4286 6.26 37.3619 6.12 37.3086 5.96C37.2686 5.78667 37.2619 5.63333 37.2886 5.5C37.1553 5.56667 37.0219 5.70667 36.8886 5.92C36.7686 6.13333 36.6953 6.30667 36.6686 6.44ZM29.6486 5.8C29.7019 5.96 29.7619 6.11333 29.8286 6.26C29.8686 6.26 29.9019 6.26 29.9286 6.26C29.8886 6.12667 29.8619 5.99333 29.8486 5.86C29.7819 5.84667 29.7153 5.82667 29.6486 5.8ZM30.7286 5.96C30.5686 5.98667 30.3753 5.98 30.1486 5.94C30.1886 6.02 30.2353 6.09333 30.2886 6.16C30.4619 6.10667 30.6086 6.04 30.7286 5.96ZM34.9086 6.28C34.9619 6.26667 35.0086 6.25333 35.0486 6.24C34.9953 6.25333 34.9486 6.26667 34.9086 6.28ZM35.4686 6.8C35.5486 6.74667 35.6353 6.65333 35.7286 6.52V6.48C35.6486 6.61333 35.5619 6.72 35.4686 6.8ZM30.1686 6.8C30.1286 6.74667 30.0953 6.68667 30.0686 6.62L30.0286 6.6C30.0819 6.68 30.1286 6.74667 30.1686 6.8ZM35.8686 9.9C35.8819 9.99333 35.8553 10.18 35.7886 10.46C35.9086 10.5133 36.0219 10.5467 36.1286 10.56C36.0753 10.2933 35.9886 10.0733 35.8686 9.9ZM30.0886 9.9C29.9686 10.06 29.8686 10.2733 29.7886 10.54C29.8819 10.5267 29.9753 10.5133 30.0686 10.5C30.0953 10.2733 30.1019 10.0733 30.0886 9.9ZM29.0086 10.54C29.1019 10.5667 29.2019 10.58 29.3086 10.58C29.2553 10.3133 29.2553 10.1 29.3086 9.94C29.2553 10.1267 29.1553 10.3267 29.0086 10.54ZM29.7086 10.84C29.6686 11.0933 29.6619 11.3 29.6886 11.46C29.7019 11.46 29.7219 11.4533 29.7486 11.44C29.8286 11.2667 29.9019 11.08 29.9686 10.88C29.8753 10.8667 29.7886 10.8533 29.7086 10.84ZM30.7286 10.86C30.6353 10.8733 30.5286 10.8867 30.4086 10.9C30.3153 11.0467 30.2153 11.18 30.1086 11.3C30.3886 11.1667 30.5953 11.02 30.7286 10.86ZM35.1886 10.9C35.2553 10.9 35.3219 10.9133 35.3886 10.94V10.88C35.3219 10.8933 35.2553 10.9 35.1886 10.9ZM42.9142 16.9C42.8342 17.02 42.6809 17.1533 42.4542 17.3C42.2409 17.46 42.0676 17.5533 41.9342 17.58C41.9209 17.4467 41.8609 17.2533 41.7542 17C41.6609 16.7467 41.5609 16.5733 41.4542 16.48C41.3342 16.6667 41.1276 16.8467 40.8342 17.02C40.5542 17.2067 40.3076 17.3133 40.0942 17.34C40.2009 17.1533 40.2809 16.8933 40.3342 16.56C40.3876 16.2267 40.3809 15.9533 40.3142 15.74C40.2076 15.8467 40.0609 15.94 39.8742 16.02C39.6876 16.0867 39.5209 16.12 39.3742 16.12C39.4809 16.04 39.5809 15.9067 39.6742 15.72C39.7676 15.5333 39.8142 15.3667 39.8142 15.22C39.6142 15.3933 39.3276 15.5267 38.9542 15.62C38.5809 15.7 38.2609 15.72 37.9942 15.68C38.2342 15.56 38.4876 15.3733 38.7542 15.12C39.0342 14.8533 39.2142 14.5867 39.2942 14.32C39.1742 14.24 39.0009 14.1867 38.7742 14.16C38.5476 14.1333 38.3676 14.1333 38.2342 14.16C38.2876 14.0267 38.3942 13.8867 38.5542 13.74C38.7142 13.58 38.8609 13.4733 38.9942 13.42C38.7809 13.2733 38.4942 13.1933 38.1342 13.18C37.7742 13.1533 37.4742 13.1867 37.2342 13.28C37.3942 13.08 37.6476 12.9267 37.9942 12.82C38.3276 12.7 38.6209 12.6333 38.8742 12.62C38.7542 12.4733 38.5609 12.3133 38.2942 12.14C38.0409 11.9667 37.8209 11.8667 37.6342 11.84C37.7409 11.68 37.9276 11.52 38.1942 11.36C38.4609 11.1867 38.6876 11.08 38.8742 11.04C38.5809 11.0267 38.2609 10.9467 37.9142 10.8C37.5542 10.64 37.2676 10.46 37.0542 10.26C37.3209 10.3933 37.6542 10.4467 38.0542 10.42C38.4542 10.3933 38.7809 10.3067 39.0342 10.16C39.0342 10.04 38.9742 9.86 38.8542 9.62C38.7476 9.38 38.6409 9.21333 38.5342 9.12C38.6276 9.04 38.8009 8.95333 39.0542 8.86C39.3076 8.76667 39.5009 8.73333 39.6342 8.76C39.5409 8.65333 39.4542 8.48 39.3742 8.24C39.2942 8 39.2609 7.80667 39.2742 7.66C39.3942 7.75333 39.5742 7.81333 39.8142 7.84C40.0676 7.86667 40.2676 7.86667 40.4142 7.84C40.4809 7.69333 40.5076 7.48667 40.4942 7.22C40.4809 6.95333 40.4276 6.75333 40.3342 6.62C40.4942 6.62 40.6942 6.68 40.9342 6.8C41.1742 6.92 41.3409 7.04667 41.4342 7.18C41.3676 7.07333 41.3209 6.92667 41.2942 6.74C41.2676 6.55333 41.2676 6.39333 41.2942 6.26C41.3342 6.39333 41.4076 6.54 41.5142 6.7C41.6342 6.84667 41.7542 6.94667 41.8742 7C41.8209 6.85333 41.8142 6.66667 41.8542 6.44C41.8942 6.21333 41.9542 6.04 42.0342 5.92C42.0609 6.06667 42.1476 6.22667 42.2942 6.4C42.4409 6.57333 42.5876 6.69333 42.7342 6.76C42.8809 6.56 42.9809 6.28 43.0342 5.92C43.0876 5.56 43.0676 5.26 42.9742 5.02C43.1476 5.16667 43.3009 5.38 43.4342 5.66C43.5676 5.94 43.6476 6.2 43.6742 6.44C43.6742 6.21333 43.7209 5.94667 43.8142 5.64C43.9209 5.32 44.0609 5.08 44.2342 4.92C44.2209 5.17333 44.2742 5.47333 44.3942 5.82C44.5142 6.15333 44.6542 6.42 44.8142 6.62C44.9609 6.51333 45.1142 6.34667 45.2742 6.12C45.4476 5.88 45.5476 5.66667 45.5742 5.48C45.7076 5.61333 45.8209 5.82 45.9142 6.1C46.0076 6.38 46.0409 6.60667 46.0142 6.78C46.0942 6.66 46.2342 6.52667 46.4342 6.38C46.6476 6.23333 46.8276 6.14667 46.9742 6.12C46.9476 6.26667 46.9676 6.46667 47.0342 6.72C47.1142 6.96 47.2009 7.13333 47.2942 7.24C47.4009 7.28 47.5809 7.28 47.8342 7.24C48.1009 7.18667 48.2809 7.12667 48.3742 7.06C48.4276 7.16667 48.4742 7.34667 48.5142 7.6C48.5542 7.85333 48.5542 8.03333 48.5142 8.14C48.6076 8.20667 48.7809 8.26667 49.0342 8.32C49.3009 8.37333 49.4876 8.38 49.5942 8.34C49.6342 8.44667 49.6209 8.63333 49.5542 8.9C49.5009 9.15333 49.4342 9.32667 49.3542 9.42C49.5009 9.39333 49.7076 9.44 49.9742 9.56C50.2409 9.66667 50.4276 9.76667 50.5342 9.86C50.4009 9.92667 50.2476 10.08 50.0742 10.32C49.9142 10.5467 49.8142 10.7333 49.7742 10.88C49.9742 11.0533 50.2609 11.2067 50.6342 11.34C51.0076 11.46 51.3276 11.5 51.5942 11.46C51.4076 11.66 51.1342 11.84 50.7742 12C50.4142 12.16 50.1009 12.2333 49.8342 12.22C49.9276 12.38 50.0742 12.5467 50.2742 12.72C50.4742 12.88 50.6676 12.98 50.8542 13.02C50.6676 13.06 50.4476 13.06 50.1942 13.02C49.9409 12.9667 49.7342 12.8867 49.5742 12.78C49.5742 12.9533 49.5142 13.1667 49.3942 13.42C49.4742 13.62 49.5142 13.7867 49.5142 13.92C49.7542 13.9333 50.0209 14.02 50.3142 14.18C50.6076 14.3267 50.8342 14.4867 50.9942 14.66C50.7809 14.5533 50.5009 14.52 50.1542 14.56C49.8209 14.5867 49.5476 14.66 49.3342 14.78C49.3476 14.94 49.4209 15.12 49.5542 15.32C49.6876 15.5067 49.8142 15.6467 49.9342 15.74C49.7876 15.7667 49.5942 15.7467 49.3542 15.68C49.1276 15.6133 48.9609 15.5267 48.8542 15.42C49.0676 15.62 49.2609 15.9067 49.4342 16.28C49.6209 16.6533 49.7076 16.9867 49.6942 17.28C49.5476 17.0267 49.3076 16.7733 48.9742 16.52C48.6409 16.2667 48.3276 16.1133 48.0342 16.06C47.9409 16.2733 47.8876 16.5667 47.8742 16.94C47.8742 17.3 47.9076 17.5867 47.9742 17.8C47.7476 17.7467 47.4942 17.6 47.2142 17.36C46.9342 17.12 46.7476 16.8933 46.6542 16.68C46.5609 16.9467 46.5409 17.2667 46.5942 17.64C46.6609 18.0267 46.7742 18.3333 46.9342 18.56C46.7742 18.4133 46.6342 18.2133 46.5142 17.96C46.4076 17.7067 46.3342 17.4533 46.2942 17.2C46.2542 17.48 46.1742 17.7133 46.0542 17.9C46.0276 17.74 45.9542 17.56 45.8342 17.36C45.7276 17.16 45.6076 17.02 45.4742 16.94C45.4742 17.1133 45.4209 17.3267 45.3142 17.58C45.2209 17.8467 45.1142 18.0467 44.9942 18.18C44.9809 18.06 44.9209 17.92 44.8142 17.76C44.7076 17.6 44.5076 17.44 44.2142 17.28C43.9209 17.1333 43.4876 17.0067 42.9142 16.9ZM44.2542 10.04C44.2542 10.1333 44.2942 10.2533 44.3742 10.4C44.4542 10.5333 44.5342 10.6267 44.6142 10.68C44.7076 10.6133 44.7809 10.4933 44.8342 10.32C44.7942 10.3067 44.7609 10.2933 44.7342 10.28C44.7476 10.2667 44.7942 10.2533 44.8742 10.24C44.8742 10.2 44.8809 10.1667 44.8942 10.14C44.6809 10.1 44.5009 10.0933 44.3542 10.12C44.4342 10 44.5609 9.89333 44.7342 9.8C44.9076 9.69333 45.0676 9.63333 45.2142 9.62C45.1076 9.60667 44.9742 9.62 44.8142 9.66C44.6676 9.7 44.5476 9.75333 44.4542 9.82C44.4942 9.71333 44.5676 9.60667 44.6742 9.5C44.7942 9.39333 44.9009 9.32 44.9942 9.28C44.9276 9.28 44.8409 9.31333 44.7342 9.38C44.6276 9.44667 44.5542 9.51333 44.5142 9.58C44.5142 9.58 44.5009 9.54 44.4742 9.46C44.4476 9.63333 44.4009 9.77333 44.3342 9.88C44.3476 9.76 44.3276 9.61333 44.2742 9.44C44.2209 9.26667 44.1542 9.13333 44.0742 9.04C44.0476 9.12 44.0476 9.23333 44.0742 9.38C44.1009 9.52667 44.1409 9.64 44.1942 9.72C44.0742 9.70667 43.9409 9.66667 43.7942 9.6C43.9276 9.72 44.0209 9.84 44.0742 9.96C43.9676 9.94667 43.8342 9.96 43.6742 10C43.5276 10.0267 43.4209 10.0667 43.3542 10.12C43.4209 10.1333 43.5142 10.18 43.6342 10.26C43.6342 10.26 43.6542 10.2333 43.6942 10.18C43.6942 10.22 43.7009 10.2667 43.7142 10.32C43.7409 10.36 43.7676 10.3933 43.7942 10.42C43.7942 10.42 43.7742 10.42 43.7342 10.42C43.7876 10.5267 43.8409 10.6133 43.8942 10.68C43.8942 10.5867 43.9342 10.4733 44.0142 10.34C44.1076 10.1933 44.1876 10.0933 44.2542 10.04ZM45.3342 10.28C45.2409 10.2267 45.1342 10.1867 45.0142 10.16C45.0276 10.1733 45.0409 10.1933 45.0542 10.22C45.1609 10.22 45.2542 10.24 45.3342 10.28ZM43.4942 10.68C43.4942 10.6667 43.4942 10.6333 43.4942 10.58C43.4942 10.58 43.4942 10.6133 43.4942 10.68ZM48.3742 12.78C48.3876 12.9 48.3609 13.0467 48.2942 13.22C48.2409 13.3933 48.1742 13.54 48.0942 13.66C48.1209 13.74 48.1409 13.8067 48.1542 13.86C48.3276 13.7133 48.5009 13.48 48.6742 13.16C48.5809 13 48.4809 12.8733 48.3742 12.78ZM46.4542 13.02C46.5609 13.0867 46.6542 13.2133 46.7342 13.4C46.8276 13.5867 46.8809 13.74 46.8942 13.86C47.0142 13.78 47.1476 13.64 47.2942 13.44C47.4409 13.2267 47.5142 13.0467 47.5142 12.9C47.5809 12.94 47.6542 13 47.7342 13.08C47.6676 12.9467 47.5942 12.8467 47.5142 12.78C47.5009 12.9133 47.4276 13.08 47.2942 13.28C47.1609 13.48 47.0342 13.6067 46.9142 13.66C46.8876 13.5267 46.8076 13.3667 46.6742 13.18C46.5409 12.98 46.4209 12.8467 46.3142 12.78C46.2076 12.9 46.1276 13.0667 46.0742 13.28C46.0209 13.4933 46.0076 13.6733 46.0342 13.82C45.8609 13.6333 45.7609 13.36 45.7342 13C45.6942 13.2267 45.6142 13.4067 45.4942 13.54C45.6942 13.7133 45.8742 13.82 46.0342 13.86C46.1276 13.7933 46.2142 13.6667 46.2942 13.48C46.3876 13.2933 46.4409 13.14 46.4542 13.02ZM44.4142 12.78C44.4409 12.9 44.4476 13.0533 44.4342 13.24C44.4342 13.4267 44.4076 13.6 44.3542 13.76C44.4209 13.8667 44.5009 13.9733 44.5942 14.08C44.7009 14.1733 44.7876 14.2333 44.8542 14.26C44.8142 14.1133 44.8209 13.9133 44.8742 13.66C44.9409 13.4067 45.0209 13.22 45.1142 13.1C45.1676 13.2333 45.2876 13.38 45.4742 13.54C45.5009 13.4333 45.4809 13.3067 45.4142 13.16C45.3476 13 45.2742 12.8733 45.1942 12.78C45.1276 12.82 45.0476 12.9067 44.9542 13.04C44.8609 13.16 44.8142 13.26 44.8142 13.34C44.7342 13.3 44.6476 13.22 44.5542 13.1C44.4609 12.9667 44.4142 12.86 44.4142 12.78ZM43.6542 14.26C43.6676 14.1933 43.7076 14.1133 43.7742 14.02C43.8542 13.9267 43.9342 13.84 44.0142 13.76L43.9942 13.72C43.8076 13.92 43.6942 14.1 43.6542 14.26ZM51.6352 15.58C51.4218 15.6467 51.1685 15.6667 50.8752 15.64C50.5818 15.6 50.3485 15.5133 50.1752 15.38C50.3885 15.4467 50.6352 15.46 50.9152 15.42C51.2085 15.38 51.4485 15.3 51.6352 15.18C51.4352 15.2467 51.1885 15.2467 50.8952 15.18C50.6152 15.1133 50.3885 15.02 50.2152 14.9C50.4152 14.9667 50.6552 14.9667 50.9352 14.9C51.2285 14.8333 51.4618 14.74 51.6352 14.62C51.3552 14.46 51.0085 14.3533 50.5952 14.3C50.1818 14.2467 49.8218 14.26 49.5152 14.34C49.7952 14.1933 50.1418 14.0867 50.5552 14.02C50.9818 13.94 51.3418 13.9533 51.6352 14.06C51.4218 13.82 51.1018 13.6333 50.6752 13.5C50.2618 13.3533 49.8952 13.3 49.5752 13.34C49.8552 13.1933 50.2152 13.1067 50.6552 13.08C51.0952 13.0533 51.4618 13.1 51.7552 13.22C51.7018 12.98 51.5818 12.7133 51.3952 12.42C51.2085 12.1133 50.9952 11.9 50.7552 11.78C51.0218 11.8067 51.3018 11.9133 51.5952 12.1C51.4485 11.9267 51.3218 11.7467 51.2152 11.56C51.1085 11.36 51.0418 11.1733 51.0152 11C51.1885 11.2533 51.4418 11.4933 51.7752 11.72C52.1218 11.9467 52.4485 12.1 52.7552 12.18C52.4485 12.0333 52.1618 11.7733 51.8952 11.4C51.6285 11.0267 51.4485 10.6733 51.3552 10.34C51.5152 10.6467 51.7885 10.9333 52.1752 11.2C52.5618 11.4667 52.9218 11.62 53.2552 11.66C53.0552 11.5133 52.8685 11.3 52.6952 11.02C52.5352 10.7267 52.4352 10.46 52.3952 10.22C52.5552 10.4067 52.7752 10.5867 53.0552 10.76C53.3485 10.9333 53.6152 11.0267 53.8552 11.04C53.5485 10.88 53.2552 10.6267 52.9752 10.28C52.6952 9.92 52.5085 9.57333 52.4152 9.24C52.5885 9.54667 52.8485 9.84667 53.1952 10.14C53.5552 10.42 53.9085 10.58 54.2552 10.62C54.0018 10.4333 53.7752 10.14 53.5752 9.74C53.3752 9.34 53.2485 8.98 53.1952 8.66C53.4218 8.9 53.7285 9.12667 54.1152 9.34C54.5152 9.54 54.8752 9.64667 55.1952 9.66C55.2085 9.44667 55.1418 9.21333 54.9952 8.96C54.8485 8.69333 54.7018 8.49333 54.5552 8.36C54.7552 8.34667 54.9885 8.40667 55.2552 8.54C55.5352 8.66 55.7352 8.8 55.8552 8.96C55.8818 8.78667 55.8552 8.56 55.7752 8.28C55.6952 7.98667 55.5952 7.77333 55.4752 7.64C55.6485 7.62667 55.8752 7.65333 56.1552 7.72C56.4352 7.78667 56.6485 7.87333 56.7952 7.98C56.8085 7.86 56.7818 7.72 56.7152 7.56C56.6618 7.4 56.5885 7.25333 56.4952 7.12C56.3218 7.36 56.1618 7.52667 56.0152 7.62C55.9885 7.48667 55.8952 7.31333 55.7352 7.1C55.5752 6.87333 55.4285 6.72667 55.2952 6.66C55.2685 6.79333 55.1818 6.96 55.0352 7.16C54.9018 7.36 54.7818 7.5 54.6752 7.58C54.6485 7.44667 54.5618 7.28 54.4152 7.08C54.2818 6.86667 54.1552 6.72667 54.0352 6.66C53.8618 6.88667 53.7485 7.2 53.6952 7.6C53.6418 7.98667 53.6618 8.31333 53.7552 8.58C53.5685 8.3 53.4552 7.94 53.4152 7.5C53.3485 7.75333 53.2485 7.96 53.1152 8.12C53.1818 7.90667 53.1685 7.65333 53.0752 7.36C52.9952 7.06667 52.8952 6.83333 52.7752 6.66C52.6285 6.83333 52.5152 7.06667 52.4352 7.36C52.3685 7.65333 52.3618 7.90667 52.4152 8.12C52.2685 7.96 52.1552 7.73333 52.0752 7.44C52.0085 7.13333 52.0018 6.87333 52.0552 6.66C51.8818 6.51333 51.6352 6.39333 51.3152 6.3C50.9952 6.19333 50.7218 6.15333 50.4952 6.18C50.6018 5.99333 50.7952 5.80667 51.0752 5.62C51.3685 5.43333 51.6218 5.31333 51.8352 5.26C51.6085 5.3 51.3352 5.26667 51.0152 5.16C50.7085 5.05333 50.4752 4.92 50.3152 4.76C50.5418 4.78667 50.8085 4.74667 51.1152 4.64C51.4352 4.53333 51.6752 4.4 51.8352 4.24C51.5018 4.26667 51.1218 4.20667 50.6952 4.06C50.2685 3.91333 49.9485 3.71333 49.7352 3.46C50.0285 3.60667 50.4018 3.67333 50.8552 3.66C51.3085 3.64667 51.6818 3.56 51.9752 3.4C51.9352 3.2 51.9352 2.97333 51.9752 2.72C52.0285 2.45333 52.1085 2.23333 52.2152 2.06C52.1618 2.24667 52.1552 2.48 52.1952 2.76C52.2485 3.02667 52.3352 3.24 52.4552 3.4C52.4418 3.06667 52.5085 2.67333 52.6552 2.22C52.8152 1.76667 53.0018 1.41333 53.2152 1.16C53.1885 1.49333 53.2485 1.89333 53.3952 2.36C53.5418 2.81333 53.7352 3.16 53.9752 3.4C53.8818 3.08 53.8752 2.7 53.9552 2.26C54.0485 1.82 54.2018 1.47333 54.4152 1.22C54.3352 1.54 54.3352 1.92 54.4152 2.36C54.5085 2.8 54.6552 3.14667 54.8552 3.4C54.8152 3.13333 54.8352 2.82667 54.9152 2.48C54.9952 2.12 55.1218 1.83333 55.2952 1.62C55.2685 1.88667 55.2885 2.2 55.3552 2.56C55.4352 2.92 55.5618 3.2 55.7352 3.4C55.9218 3.12 56.0285 2.76 56.0552 2.32C56.0818 1.86667 56.0552 1.48 55.9752 1.16C56.1485 1.44 56.2618 1.80667 56.3152 2.26C56.3685 2.7 56.3352 3.08 56.2152 3.4C56.4418 3.17333 56.6218 2.84667 56.7552 2.42C56.9018 1.98 56.9618 1.6 56.9352 1.28C57.1485 1.52 57.3285 1.85333 57.4752 2.28C57.6218 2.70667 57.6818 3.08 57.6552 3.4C57.8152 3.24 57.9352 3 58.0152 2.68C58.1085 2.36 58.1352 2.08667 58.0952 1.86C58.3218 2.1 58.4685 2.44 58.5352 2.88C58.5885 2.52 58.6952 2.24667 58.8552 2.06C58.8018 2.26 58.8085 2.49333 58.8752 2.76C58.9418 3.02667 59.0418 3.24 59.1752 3.4C59.1485 3.16 59.1618 2.88667 59.2152 2.58C59.2818 2.27333 59.3752 1.98 59.4952 1.7C59.6152 1.40667 59.7618 1.18 59.9352 1.02C59.8952 1.38 59.9552 1.8 60.1152 2.28C60.2885 2.74667 60.4818 3.12 60.6952 3.4C60.6818 3.17333 60.7418 2.90667 60.8752 2.6C61.0085 2.29333 61.1618 2.06667 61.3352 1.92C61.3352 2.14667 61.3952 2.42 61.5152 2.74C61.6485 3.04667 61.8018 3.26667 61.9752 3.4C61.8818 3.06667 61.8485 2.68 61.8752 2.24C61.9152 1.78667 62.0285 1.41333 62.2152 1.12C62.1085 1.44 62.0685 1.83333 62.0952 2.3C62.1352 2.75333 62.2552 3.12 62.4552 3.4C62.6952 3.28 62.9152 3.06667 63.1152 2.76C63.3285 2.45333 63.4752 2.16667 63.5552 1.9C63.5818 2.18 63.5552 2.5 63.4752 2.86C63.3952 3.22 63.2618 3.5 63.0752 3.7C63.2218 3.86 63.4485 4.01333 63.7552 4.16C64.0618 4.30667 64.3285 4.37333 64.5552 4.36C64.4085 4.53333 64.1818 4.68667 63.8752 4.82C63.5685 4.95333 63.3018 5.02667 63.0752 5.04C63.3018 5.16 63.5818 5.24667 63.9152 5.3C64.2618 5.34 64.5552 5.32 64.7952 5.24C64.4618 5.4 64.0952 5.48667 63.6952 5.5C63.9752 5.58 64.1952 5.68667 64.3552 5.82C64.1685 5.79333 63.9418 5.82 63.6752 5.9C63.4085 5.98 63.2085 6.08667 63.0752 6.22C63.2485 6.48667 63.5018 6.74667 63.8352 7C64.1818 7.25333 64.5085 7.41333 64.8152 7.48C64.5618 7.52 64.2685 7.52 63.9352 7.48C63.6018 7.42667 63.3085 7.33333 63.0552 7.2C63.2685 7.37333 63.4685 7.58667 63.6552 7.84C63.8552 8.08 63.9952 8.31333 64.0752 8.54C63.9152 8.28667 63.6685 8.04 63.3352 7.8C63.0152 7.56 62.7018 7.40667 62.3952 7.34C62.5418 7.5 62.6685 7.74 62.7752 8.06C62.8952 8.36667 62.9418 8.62667 62.9152 8.84C62.7552 8.70667 62.5085 8.6 62.1752 8.52C61.8552 8.42667 61.5952 8.40667 61.3952 8.46C61.5152 8.60667 61.6285 8.82 61.7352 9.1C61.8418 9.38 61.9018 9.61333 61.9152 9.8C61.7685 9.66667 61.5485 9.56 61.2552 9.48C60.9618 9.4 60.7218 9.38 60.5352 9.42C60.7485 9.54 60.9418 9.75333 61.1152 10.06C61.2885 10.3667 61.3818 10.64 61.3952 10.88C61.2218 10.7067 60.9818 10.5467 60.6752 10.4C60.3685 10.2533 60.0885 10.18 59.8352 10.18C59.9285 10.4467 60.0952 10.72 60.3352 11C60.5752 11.2667 60.8152 11.4667 61.0552 11.6C60.7885 11.56 60.5018 11.4333 60.1952 11.22C59.9018 10.9933 59.6752 10.7667 59.5152 10.54C59.5285 10.7133 59.6085 10.9133 59.7552 11.14C59.9018 11.3533 60.0485 11.5133 60.1952 11.62C60.0085 11.62 59.7952 11.5667 59.5552 11.46C59.3285 11.34 59.1552 11.2067 59.0352 11.06C59.0618 11.2733 59.1352 11.52 59.2552 11.8C59.3752 12.08 59.5152 12.2933 59.6752 12.44C59.5552 12.44 59.4218 12.42 59.2752 12.38C59.3285 12.54 59.4218 12.7133 59.5552 12.9C59.7018 13.0867 59.8352 13.22 59.9552 13.3C60.0485 13.1667 60.1218 12.9867 60.1752 12.76C60.2285 12.5333 60.2285 12.34 60.1752 12.18C60.3085 12.3533 60.3952 12.58 60.4352 12.86C60.5018 12.5133 60.6285 12.2133 60.8152 11.96C60.8018 12.16 60.8352 12.3933 60.9152 12.66C60.9952 12.9267 61.0952 13.14 61.2152 13.3C61.2685 13.1933 61.3352 13 61.4152 12.72C61.4952 12.4267 61.5685 12.1067 61.6352 11.76C61.7018 11.4 61.7552 11.0733 61.7952 10.78C61.8352 10.4733 61.8418 10.26 61.8152 10.14C61.8685 10.2467 61.9352 10.4467 62.0152 10.74C62.0952 11.02 62.1685 11.34 62.2352 11.7C62.3018 12.0467 62.3485 12.3733 62.3752 12.68C62.4152 12.9733 62.4218 13.18 62.3952 13.3C62.4752 13.1267 62.6085 12.9467 62.7952 12.76C62.9818 12.5733 63.1618 12.44 63.3352 12.36C63.2685 12.5333 63.2285 12.76 63.2152 13.04C63.2152 13.3067 63.2552 13.52 63.3352 13.68C63.6552 13.6267 64.0285 13.6533 64.4552 13.76C64.8952 13.8667 65.2418 14.0267 65.4952 14.24C65.1752 14.1867 64.7952 14.2133 64.3552 14.32C63.9152 14.4133 63.5752 14.5733 63.3352 14.8C63.5885 14.9733 63.9218 15.0933 64.3352 15.16C64.7618 15.2133 65.1285 15.2067 65.4352 15.14C65.2085 15.2867 64.9218 15.4 64.5752 15.48C64.2418 15.5467 63.9285 15.5733 63.6352 15.56C63.9285 15.6267 64.2218 15.7667 64.5152 15.98C64.8085 16.18 65.0352 16.3867 65.1952 16.6C64.9018 16.48 64.5352 16.42 64.0952 16.42C63.6685 16.4067 63.3152 16.4667 63.0352 16.6C63.0485 16.8667 62.9752 17.18 62.8152 17.54C62.6685 17.9133 62.4885 18.18 62.2752 18.34C62.2618 18.0733 62.1818 17.76 62.0352 17.4C61.8885 17.04 61.7152 16.7733 61.5152 16.6C61.5552 16.8267 61.5418 17.08 61.4752 17.36C61.4085 17.6533 61.3085 17.9333 61.1752 18.2C61.0418 18.48 60.9018 18.7067 60.7552 18.88C60.7818 18.6533 60.7618 18.3933 60.6952 18.1C60.6418 17.8067 60.5485 17.52 60.4152 17.24C60.2952 16.9733 60.1552 16.76 59.9952 16.6C60.0352 16.9333 59.9952 17.32 59.8752 17.76C59.7685 18.2 59.6085 18.5533 59.3952 18.82C59.4352 18.4867 59.3952 18.1 59.2752 17.66C59.1552 17.22 58.9952 16.8667 58.7952 16.6C58.8485 16.96 58.8152 17.38 58.6952 17.86C58.5752 18.34 58.3952 18.7133 58.1552 18.98C58.2218 18.6333 58.1885 18.22 58.0552 17.74C57.9218 17.26 57.7418 16.88 57.5152 16.6C57.5285 16.8667 57.4752 17.18 57.3552 17.54C57.2352 17.9 57.0952 18.18 56.9352 18.38C56.9752 18.1133 56.9285 17.8 56.7952 17.44C56.6618 17.08 56.5085 16.8 56.3352 16.6C56.1618 16.88 56.0552 17.2267 56.0152 17.64C55.9885 18.0667 56.0152 18.4333 56.0952 18.74C55.9085 18.4733 55.7952 18.1267 55.7552 17.7C55.7152 17.2733 55.7485 16.9067 55.8552 16.6C55.7085 16.84 55.6018 17.1333 55.5352 17.48C55.4818 17.84 55.4952 18.1533 55.5752 18.42C55.4285 18.1667 55.3285 17.8733 55.2752 17.54C55.2085 17.8467 55.1085 18.1067 54.9752 18.32C55.0285 18.0667 55.0285 17.7667 54.9752 17.42C54.9218 17.0733 54.8152 16.8 54.6552 16.6C54.4685 16.84 54.3485 17.16 54.2952 17.56C54.2552 17.96 54.2685 18.3067 54.3352 18.6C54.2418 18.44 54.1618 18.2533 54.0952 18.04C54.0285 18.3467 53.9352 18.6067 53.8152 18.82C53.9485 18.5133 53.9885 18.1333 53.9352 17.68C53.8952 17.24 53.7885 16.88 53.6152 16.6C53.4152 16.84 53.2818 17.1667 53.2152 17.58C53.1485 17.9933 53.1618 18.3467 53.2552 18.64C53.0685 18.4 52.9352 18.0733 52.8552 17.66C52.7885 17.2467 52.8018 16.8933 52.8952 16.6C52.7485 16.8667 52.6352 17.1933 52.5552 17.58C52.4752 17.98 52.4685 18.3267 52.5352 18.62C52.4418 18.4867 52.3618 18.3267 52.2952 18.14C52.2952 18.5133 52.2818 18.88 52.2552 19.24C52.2285 19.6133 52.1885 19.94 52.1352 20.22C52.0818 20.5133 52.0285 20.72 51.9752 20.84C52.0418 20.6933 52.0752 20.4133 52.0752 20C52.0885 19.6 52.0752 19.1333 52.0352 18.6C52.0085 18.0667 51.9552 17.5333 51.8752 17C51.8085 16.4533 51.7285 15.98 51.6352 15.58ZM56.7352 6.66C56.7218 6.72667 56.6885 6.8 56.6352 6.88C56.6752 6.89333 56.7085 6.90667 56.7352 6.92C56.7218 6.82667 56.7218 6.74 56.7352 6.66ZM58.2352 11.94C58.2752 12.1533 58.3752 12.3867 58.5352 12.64C58.6418 12.64 58.7418 12.6533 58.8352 12.68C58.9418 12.5467 59.0418 12.44 59.1352 12.36C58.9618 12.32 58.7952 12.2667 58.6352 12.2C58.4752 12.12 58.3418 12.0333 58.2352 11.94ZM57.9352 12.68C57.9352 12.6933 57.9352 12.7 57.9352 12.7H57.9552C57.9418 12.6867 57.9352 12.68 57.9352 12.68ZM58.5952 12.74C58.6352 12.78 58.6685 12.8267 58.6952 12.88C58.7352 12.8133 58.7752 12.7533 58.8152 12.7C58.7485 12.7 58.6752 12.7133 58.5952 12.74ZM57.9352 12.96C57.9752 13.0133 58.0085 13.0533 58.0352 13.08C58.0618 13.0133 58.0885 12.9467 58.1152 12.88C58.0618 12.9067 58.0018 12.9333 57.9352 12.96ZM58.5152 13.3C58.5285 13.2467 58.5485 13.1867 58.5752 13.12L58.5152 13.1C58.5285 13.1667 58.5285 13.2333 58.5152 13.3ZM57.8952 13.3C57.9085 13.2733 57.9285 13.2467 57.9552 13.22C57.9418 13.22 57.9285 13.2133 57.9152 13.2C57.9018 13.24 57.8952 13.2733 57.8952 13.3ZM69.7823 16.96C69.729 17.0267 69.669 17.16 69.6023 17.36C69.5357 17.56 69.469 17.78 69.4023 18.02C69.3357 18.2733 69.2823 18.5 69.2423 18.7C69.2157 18.9133 69.209 19.06 69.2223 19.14C69.1957 19.06 69.169 18.9133 69.1423 18.7C69.129 18.5 69.1223 18.2733 69.1223 18.02C69.1223 17.7667 69.129 17.5333 69.1423 17.32C69.1557 17.1067 69.1823 16.96 69.2223 16.88C69.0757 17 68.929 17.1733 68.7823 17.4C68.649 17.64 68.5623 17.8533 68.5223 18.04C68.4023 17.8933 68.329 17.68 68.3023 17.4C68.2757 17.12 68.2957 16.8867 68.3623 16.7C68.309 16.8467 68.1957 17 68.0223 17.16C67.8623 17.3333 67.7157 17.4533 67.5823 17.52C67.649 17.3867 67.669 17.2 67.6423 16.96C67.629 16.72 67.589 16.5333 67.5223 16.4C67.309 16.4667 67.0823 16.6133 66.8423 16.84C66.6157 17.0667 66.469 17.2933 66.4023 17.52C66.3623 17.2933 66.389 17.0333 66.4823 16.74C66.5757 16.4333 66.6823 16.2 66.8023 16.04C66.6557 16.24 66.429 16.4133 66.1223 16.56C65.829 16.6933 65.569 16.7733 65.3423 16.8C65.5423 16.6533 65.7157 16.4267 65.8623 16.12C66.009 15.8 66.0823 15.5133 66.0823 15.26C65.8023 15.2733 65.489 15.3733 65.1423 15.56C64.7957 15.7467 64.5423 15.96 64.3823 16.2C64.569 15.84 64.8557 15.5267 65.2423 15.26C64.9357 15.3533 64.6823 15.38 64.4823 15.34C64.6823 15.2733 64.8957 15.1533 65.1223 14.98C65.3623 14.8067 65.5223 14.6267 65.6023 14.44C65.4423 14.32 65.2023 14.22 64.8823 14.14C64.5757 14.0467 64.3223 14.02 64.1223 14.06C64.2157 13.8867 64.3757 13.6867 64.6023 13.46C64.8423 13.2333 65.0557 13.0933 65.2423 13.04C65.0957 12.8533 64.849 12.7 64.5023 12.58C64.169 12.46 63.8823 12.4 63.6423 12.4C63.8023 12.2133 64.0423 12.04 64.3623 11.88C64.6823 11.72 64.9623 11.6333 65.2023 11.62C65.0157 11.4067 64.7423 11.2 64.3823 11C64.009 10.8 63.6823 10.6867 63.4023 10.66C63.6157 10.4733 63.9223 10.3133 64.3223 10.18C64.7223 10.0467 65.0623 9.99333 65.3423 10.02C65.249 9.80667 65.0623 9.59333 64.7823 9.38C64.5157 9.16667 64.2623 9.02667 64.0223 8.96C64.2357 8.86667 64.4957 8.82 64.8023 8.82C65.1223 8.80667 65.3957 8.84 65.6223 8.92C65.5023 8.86667 65.3823 8.78667 65.2623 8.68C65.1423 8.56 65.0623 8.44 65.0223 8.32C65.1157 8.42667 65.2557 8.50667 65.4423 8.56C65.629 8.61333 65.789 8.64 65.9223 8.64C65.7757 8.50667 65.6223 8.32 65.4623 8.08C65.3157 7.82667 65.2357 7.6 65.2223 7.4C65.3557 7.54667 65.5623 7.66667 65.8423 7.76C66.1223 7.85333 66.3623 7.9 66.5623 7.9C66.6023 7.68667 66.5623 7.43333 66.4423 7.14C66.3223 6.84667 66.189 6.61333 66.0423 6.44C66.2557 6.50667 66.489 6.63333 66.7423 6.82C66.9957 7.00667 67.169 7.2 67.2623 7.4C67.3423 7.10667 67.3357 6.76 67.2423 6.36C67.1623 5.96 67.029 5.64667 66.8423 5.42C67.109 5.54 67.3623 5.76667 67.6023 6.1C67.8423 6.43333 67.9957 6.74 68.0623 7.02C68.1557 6.79333 68.1757 6.51333 68.1223 6.18C68.0823 5.84667 68.0023 5.56667 67.8823 5.34C68.0823 5.5 68.2557 5.72667 68.4023 6.02C68.5623 6.31333 68.6557 6.58667 68.6823 6.84C68.8023 6.74667 68.929 6.58 69.0623 6.34C69.209 6.08667 69.2823 5.88667 69.2823 5.74C69.429 5.79333 69.6023 5.92 69.8023 6.12C70.0023 6.30667 70.129 6.47333 70.1823 6.62C70.169 6.43333 70.2023 6.20667 70.2823 5.94C70.3623 5.67333 70.469 5.47333 70.6023 5.34C70.6023 5.52667 70.649 5.74667 70.7423 6C70.8357 6.25333 70.9423 6.45333 71.0623 6.6C71.0223 6.4 71.049 6.16667 71.1423 5.9C71.2357 5.63333 71.3423 5.42 71.4623 5.26C71.3957 5.46 71.389 5.7 71.4423 5.98C71.509 6.24667 71.5957 6.46667 71.7023 6.64C71.8757 6.56 72.049 6.39333 72.2223 6.14C72.3957 5.87333 72.509 5.64667 72.5623 5.46C72.6823 5.60667 72.7823 5.82667 72.8623 6.12C72.9557 6.41333 72.9957 6.65333 72.9823 6.84C73.1157 6.76 73.2423 6.62667 73.3623 6.44C73.4823 6.24 73.549 6.05333 73.5623 5.88C73.629 6.02667 73.6557 6.21333 73.6423 6.44C73.629 6.66667 73.589 6.85333 73.5223 7C73.6423 6.97333 73.7823 6.9 73.9423 6.78C74.1023 6.64667 74.209 6.52667 74.2623 6.42C74.329 6.52667 74.369 6.68667 74.3823 6.9C74.3957 7.1 74.3757 7.25333 74.3223 7.36C74.429 7.24 74.6023 7.12667 74.8423 7.02C75.0957 6.91333 75.3023 6.86667 75.4623 6.88C75.369 7.01333 75.3023 7.21333 75.2623 7.48C75.2357 7.73333 75.2423 7.94 75.2823 8.1C75.5357 8.16667 75.849 8.16667 76.2223 8.1C76.609 8.02 76.909 7.90667 77.1223 7.76C77.0957 8.02667 76.969 8.32 76.7423 8.64C76.5157 8.96 76.2957 9.18667 76.0823 9.32C76.309 9.41333 76.589 9.44667 76.9223 9.42C77.269 9.38 77.5423 9.29333 77.7423 9.16C77.5957 9.36 77.3757 9.55333 77.0823 9.74C76.8023 9.91333 76.5423 10 76.3023 10C76.4357 10 76.609 10.0467 76.8223 10.14C77.0357 10.22 77.189 10.3133 77.2823 10.42C77.149 10.46 76.989 10.5467 76.8023 10.68C76.629 10.8133 76.509 10.94 76.4423 11.06C76.629 11.18 76.869 11.26 77.1623 11.3C77.469 11.34 77.729 11.3267 77.9423 11.26C77.7957 11.3667 77.6023 11.4467 77.3623 11.5C77.6557 11.5533 77.9157 11.64 78.1423 11.76C77.9157 11.6667 77.629 11.6533 77.2823 11.72C76.949 11.7733 76.669 11.86 76.4423 11.98C76.5357 12.1267 76.6957 12.3 76.9223 12.5C77.1623 12.7 77.369 12.8267 77.5423 12.88C77.4223 13.0133 77.229 13.16 76.9623 13.32C76.6957 13.48 76.4757 13.5667 76.3023 13.58C76.4757 13.5667 76.669 13.6133 76.8823 13.72C77.0957 13.8133 77.2557 13.9267 77.3623 14.06C77.2157 13.9667 77.0223 13.9133 76.7823 13.9C76.5557 13.8867 76.3623 13.9133 76.2023 13.98C76.2157 14.1133 76.2757 14.2933 76.3823 14.52C76.489 14.7467 76.6023 14.9 76.7223 14.98C76.6157 15.06 76.4357 15.1267 76.1823 15.18C75.929 15.22 75.7357 15.2267 75.6023 15.2C75.7757 15.32 75.9357 15.5133 76.0823 15.78C76.2423 16.0333 76.3223 16.2667 76.3223 16.48C76.189 16.32 75.989 16.1733 75.7223 16.04C75.4557 15.8933 75.2157 15.8267 75.0023 15.84C74.9357 15.9333 74.869 16.1067 74.8023 16.36C74.7357 16.6 74.709 16.78 74.7223 16.9C74.6023 16.9267 74.4223 16.9 74.1823 16.82C73.9423 16.7267 73.7757 16.6467 73.6823 16.58C73.6423 16.66 73.6157 16.8133 73.6023 17.04C73.589 17.28 73.589 17.5333 73.6023 17.8C73.6157 18.08 73.629 18.3333 73.6423 18.56C73.669 18.8 73.6957 18.96 73.7223 19.04C73.6557 18.9733 73.5423 18.82 73.3823 18.58C73.2357 18.34 73.089 18.08 72.9423 17.8C72.809 17.52 72.709 17.2867 72.6423 17.1C72.6823 17.34 72.669 17.6 72.6023 17.88C72.5357 18.1733 72.4557 18.42 72.3623 18.62C72.389 18.3667 72.329 18.0733 72.1823 17.74C72.049 17.4067 71.889 17.1467 71.7023 16.96C71.7023 17.0933 71.6557 17.2467 71.5623 17.42C71.4823 17.6067 71.3957 17.74 71.3023 17.82C71.289 17.7 71.189 17.5467 71.0023 17.36C70.8157 17.1867 70.409 17.0533 69.7823 16.96ZM71.1623 14.16C71.189 14.04 71.1757 13.9 71.1223 13.74C71.0823 13.5667 71.029 13.4267 70.9623 13.32C71.0823 13.3333 71.2157 13.3933 71.3623 13.5C71.5223 13.5933 71.6357 13.6867 71.7023 13.78C71.6357 13.66 71.5223 13.54 71.3623 13.42C71.2023 13.2867 71.0557 13.2133 70.9223 13.2C71.0423 13.1333 71.2023 13.0867 71.4023 13.06C71.6023 13.02 71.7623 13.0267 71.8823 13.08C71.8157 12.9867 71.709 12.9067 71.5623 12.84C71.4157 12.7733 71.289 12.7333 71.1823 12.72C71.2623 12.6533 71.3757 12.6 71.5223 12.56C71.6823 12.5067 71.8157 12.48 71.9223 12.48C71.749 12.4667 71.6023 12.4 71.4823 12.28C71.549 12.28 71.629 12.26 71.7223 12.22C71.8157 12.18 71.889 12.1333 71.9423 12.08C71.849 12.0933 71.7423 12.08 71.6223 12.04C71.5023 12 71.409 11.9467 71.3423 11.88C71.4357 11.88 71.5423 11.8667 71.6623 11.84C71.7823 11.8 71.8757 11.7467 71.9423 11.68C71.849 11.68 71.7423 11.66 71.6223 11.62C71.5023 11.5667 71.4157 11.5067 71.3623 11.44C71.4557 11.44 71.5557 11.4133 71.6623 11.36C71.7823 11.3067 71.869 11.2467 71.9223 11.18C71.869 11.1267 71.7823 11.08 71.6623 11.04C71.5423 10.9867 71.4423 10.96 71.3623 10.96C71.4157 10.8933 71.4957 10.8333 71.6023 10.78C71.7223 10.7133 71.8223 10.68 71.9023 10.68C71.7957 10.5867 71.6357 10.5267 71.4223 10.5C71.209 10.46 71.0423 10.46 70.9223 10.5C70.9757 10.3933 71.089 10.28 71.2623 10.16C71.1823 10.1733 71.109 10.18 71.0423 10.18C71.1357 10.1133 71.2157 10.0133 71.2823 9.88C71.349 9.74667 71.3823 9.62667 71.3823 9.52C71.289 9.6 71.2023 9.70667 71.1223 9.84C71.0423 9.96 70.9823 10.0933 70.9423 10.24C70.929 10.4533 70.889 10.6267 70.8223 10.76C70.8223 10.76 70.8223 10.7467 70.8223 10.72C70.7957 10.64 70.769 10.5467 70.7423 10.44C70.609 10.4933 70.4423 10.5267 70.2423 10.54C70.0557 10.54 69.8957 10.5067 69.7623 10.44C69.8423 10.5333 69.9557 10.62 70.1023 10.7C70.249 10.7667 70.3823 10.8 70.5023 10.8C70.329 10.92 70.129 10.9933 69.9023 11.02C70.129 11.0467 70.3023 11.1267 70.4223 11.26C70.3157 11.2333 70.189 11.24 70.0423 11.28C69.909 11.32 69.7957 11.3733 69.7023 11.44C69.769 11.5067 69.8623 11.5733 69.9823 11.64C70.1157 11.6933 70.229 11.72 70.3223 11.72C70.269 11.8 70.1757 11.8667 70.0423 11.92C69.909 11.9733 69.7957 12 69.7023 12C69.809 11.9867 69.929 12 70.0623 12.04C70.209 12.08 70.3223 12.1333 70.4023 12.2C70.149 12.1733 69.9223 12.2467 69.7223 12.42C69.8557 12.3933 70.0157 12.4067 70.2023 12.46C70.4023 12.5133 70.5557 12.5933 70.6623 12.7C70.5157 12.6867 70.349 12.7267 70.1623 12.82C69.989 12.9 69.8557 12.9933 69.7623 13.1C69.8557 13.0733 69.9757 13.08 70.1223 13.12C70.2823 13.1467 70.4023 13.1933 70.4823 13.26C70.389 13.2733 70.2823 13.3333 70.1623 13.44C70.0423 13.5467 69.9623 13.6467 69.9223 13.74C69.9757 13.6867 70.0623 13.6467 70.1823 13.62C70.3023 13.58 70.389 13.5667 70.4423 13.58C70.5223 13.2867 70.6357 13.0533 70.7823 12.88C70.689 13.0533 70.6623 13.2733 70.7023 13.54C70.7557 13.7933 70.909 14 71.1623 14.16ZM69.9223 9.9C69.989 10.02 70.109 10.1333 70.2823 10.24C70.4557 10.3333 70.609 10.3933 70.7423 10.42C70.729 10.38 70.7223 10.34 70.7223 10.3C70.669 10.1533 70.6023 10.0133 70.5223 9.88C70.4423 9.73333 70.349 9.62 70.2423 9.54C70.269 9.66 70.3223 9.8 70.4023 9.96C70.4957 10.1067 70.5957 10.2067 70.7023 10.26C70.5823 10.26 70.4357 10.2267 70.2623 10.16C70.1023 10.08 69.989 9.99333 69.9223 9.9ZM70.4223 14.14C70.3957 14.06 70.389 13.98 70.4023 13.9C70.389 14.0067 70.3957 14.0867 70.4223 14.14ZM78.3344 15.82C78.2277 15.74 78.0877 15.6667 77.9144 15.6C77.741 15.5333 77.5877 15.5133 77.4544 15.54C77.561 15.46 77.701 15.3867 77.8744 15.32C78.0477 15.2533 78.201 15.2333 78.3344 15.26C78.1877 15.1 77.9544 14.96 77.6344 14.84C77.3277 14.72 77.061 14.66 76.8344 14.66C76.941 14.5533 77.081 14.4533 77.2544 14.36C77.441 14.2667 77.6344 14.1933 77.8344 14.14C77.6077 14.1533 77.381 14.14 77.1544 14.1C76.9144 14.0467 76.7144 13.9733 76.5544 13.88C76.8077 13.9733 77.1077 14 77.4544 13.96C77.8144 13.92 78.1077 13.8267 78.3344 13.68C78.0944 13.7333 77.801 13.7067 77.4544 13.6C77.121 13.4933 76.8544 13.36 76.6544 13.2C76.8944 13.2533 77.1877 13.2267 77.5344 13.12C77.881 13.0133 78.1477 12.88 78.3344 12.72C78.2144 12.5733 78.0277 12.4533 77.7744 12.36C77.521 12.2667 77.301 12.2133 77.1144 12.2C77.2344 12.0667 77.421 11.9467 77.6744 11.84C77.9277 11.7333 78.1477 11.68 78.3344 11.68C78.1877 11.52 77.961 11.36 77.6544 11.2C77.361 11.0267 77.1077 10.9333 76.8944 10.92C77.041 10.76 77.261 10.6 77.5544 10.44C77.8477 10.28 78.0877 10.1933 78.2744 10.18C78.0344 10.2067 77.7544 10.1867 77.4344 10.12C77.1144 10.04 76.861 9.92 76.6744 9.76C76.9277 9.8 77.2144 9.78667 77.5344 9.72C77.8677 9.64 78.1344 9.52667 78.3344 9.38C78.2544 9.24667 78.1077 9.11333 77.8944 8.98C77.681 8.84667 77.501 8.78 77.3544 8.78C77.4344 8.66 77.5744 8.53333 77.7744 8.4C77.9877 8.26667 78.1477 8.2 78.2544 8.2C77.9744 8.24 77.6544 8.22 77.2944 8.14C76.9344 8.06 76.6477 7.94 76.4344 7.78C76.7144 7.83333 77.0477 7.82667 77.4344 7.76C77.821 7.69333 78.121 7.56667 78.3344 7.38C78.281 7.23333 78.1677 7.09333 77.9944 6.96C77.8344 6.81333 77.6877 6.72667 77.5544 6.7C77.6877 6.63333 77.861 6.62 78.0744 6.66C78.2877 6.68667 78.461 6.73333 78.5944 6.8C78.6744 6.72 78.7544 6.59333 78.8344 6.42C78.9144 6.24667 78.9477 6.09333 78.9344 5.96C79.0944 6.10667 79.2077 6.31333 79.2744 6.58C79.261 6.23333 79.3544 5.93333 79.5544 5.68C79.501 5.84 79.501 6.03333 79.5544 6.26C79.621 6.48667 79.701 6.66667 79.7944 6.8C79.9944 6.58667 80.141 6.28 80.2344 5.88C80.3277 5.46667 80.3544 5.11333 80.3144 4.82C80.5144 5.03333 80.6544 5.34667 80.7344 5.76C80.8144 6.16 80.841 6.50667 80.8144 6.8C80.961 6.72 81.121 6.56 81.2944 6.32C81.481 6.08 81.5877 5.88 81.6144 5.72C81.761 5.8 81.9144 5.96667 82.0744 6.22C82.2344 6.47333 82.3277 6.68 82.3544 6.84C82.4077 6.85333 82.4744 6.86667 82.5544 6.88C82.4877 6.52 82.481 6.22667 82.5344 6C82.7477 6.29333 83.0544 6.54667 83.4544 6.76C83.6944 6.69333 83.881 6.62 84.0144 6.54C83.9877 6.3 83.9944 6.05333 84.0344 5.8C84.0744 5.53333 84.1344 5.30667 84.2144 5.12C84.2677 5.38667 84.401 5.68 84.6144 6C84.841 6.32 85.0744 6.54 85.3144 6.66C85.221 6.42 85.201 6.12667 85.2544 5.78C85.3077 5.42 85.401 5.13333 85.5344 4.92C85.4944 5.17333 85.5277 5.46667 85.6344 5.8C85.741 6.13333 85.8744 6.4 86.0344 6.6C85.9944 6.33333 86.0144 6.02667 86.0944 5.68C86.1877 5.33333 86.3144 5.04667 86.4744 4.82C86.381 5.07333 86.3477 5.38667 86.3744 5.76C86.4144 6.12 86.5077 6.41333 86.6544 6.64C86.841 6.49333 87.021 6.27333 87.1944 5.98C87.3677 5.67333 87.4744 5.4 87.5144 5.16C87.621 5.36 87.6744 5.61333 87.6744 5.92C87.6877 6.21333 87.6544 6.48 87.5744 6.72C87.681 6.48 87.8344 6.24667 88.0344 6.02C88.2477 5.79333 88.4544 5.63333 88.6544 5.54C88.481 5.71333 88.341 5.97333 88.2344 6.32C88.141 6.66667 88.1077 6.96667 88.1344 7.22C88.2944 7.23333 88.4877 7.2 88.7144 7.12C88.941 7.02667 89.1077 6.92 89.2144 6.8C89.2277 6.96 89.1944 7.16 89.1144 7.4C89.0344 7.62667 88.941 7.79333 88.8344 7.9C89.0344 7.78 89.321 7.71333 89.6944 7.7C90.0677 7.68667 90.3677 7.72667 90.5944 7.82C90.3677 7.91333 90.141 8.10667 89.9144 8.4C89.701 8.69333 89.5544 8.95333 89.4744 9.18C89.581 9.22 89.7144 9.24667 89.8744 9.26C90.0477 9.26 90.1877 9.23333 90.2944 9.18C90.2144 9.27333 90.101 9.36667 89.9544 9.46C89.821 9.54 89.6944 9.58 89.5744 9.58C89.7344 9.7 89.9477 9.8 90.2144 9.88C90.4944 9.94667 90.7344 9.96667 90.9344 9.94C90.8144 10.1 90.6277 10.2467 90.3744 10.38C90.121 10.5133 89.901 10.5933 89.7144 10.62C89.9144 10.8067 90.1944 10.9333 90.5544 11C90.9277 11.0667 91.2477 11.08 91.5144 11.04C91.301 11.2133 91.0144 11.3533 90.6544 11.46C90.2944 11.5533 89.981 11.5667 89.7144 11.5C89.8877 11.6467 90.121 11.7733 90.4144 11.88C90.7077 11.9867 90.9677 12.0333 91.1944 12.02C91.0744 12.14 90.901 12.2533 90.6744 12.36C90.461 12.4533 90.2477 12.5133 90.0344 12.54C90.3144 12.5667 90.5544 12.6467 90.7544 12.78C90.6077 12.74 90.4277 12.7467 90.2144 12.8C90.001 12.84 89.8344 12.9133 89.7144 13.02C89.9944 12.94 90.321 12.92 90.6944 12.96C91.081 13 91.3944 13.1 91.6344 13.26C91.3677 13.1667 91.041 13.1467 90.6544 13.2C90.2677 13.24 89.9544 13.34 89.7144 13.5C89.7944 13.5933 89.9144 13.68 90.0744 13.76C90.2477 13.84 90.3944 13.8867 90.5144 13.9C90.4744 13.9667 90.401 14.0267 90.2944 14.08C90.201 14.1333 90.1077 14.18 90.0144 14.22C90.281 14.18 90.5744 14.1867 90.8944 14.24C91.2144 14.2933 91.4744 14.3933 91.6744 14.54C91.3944 14.4733 91.061 14.46 90.6744 14.5C90.2877 14.54 89.9677 14.6333 89.7144 14.78C89.8477 14.74 90.0944 14.74 90.4544 14.78C90.8277 14.8067 91.2277 14.86 91.6544 14.94C92.0944 15.02 92.4877 15.1067 92.8344 15.2C93.1944 15.2933 93.4344 15.38 93.5544 15.46C93.421 15.42 93.1677 15.42 92.7944 15.46C92.421 15.4867 92.021 15.54 91.5944 15.62C91.1677 15.6867 90.7744 15.7667 90.4144 15.86C90.0677 15.9533 89.8344 16.0467 89.7144 16.14C89.781 16.26 89.8877 16.3933 90.0344 16.54C90.1944 16.6733 90.341 16.7667 90.4744 16.82C90.3544 16.8733 90.1877 16.9 89.9744 16.9C89.761 16.9 89.5877 16.8667 89.4544 16.8C89.3477 16.96 89.2544 17.1733 89.1744 17.44C89.1077 17.72 89.0877 17.96 89.1144 18.16C88.941 17.9333 88.821 17.6467 88.7544 17.3C88.7144 17.5667 88.6277 17.78 88.4944 17.94C88.5344 17.7667 88.5277 17.5667 88.4744 17.34C88.4344 17.1133 88.361 16.9333 88.2544 16.8C88.281 17.0533 88.221 17.3533 88.0744 17.7C87.941 18.0467 87.7744 18.3 87.5744 18.46C87.601 18.2067 87.541 17.9067 87.3944 17.56C87.2477 17.2267 87.0877 16.9733 86.9144 16.8C86.7544 16.9333 86.6144 17.14 86.4944 17.42C86.3744 17.7133 86.3144 17.96 86.3144 18.16C86.1677 18.0133 86.0344 17.8 85.9144 17.52C85.7944 17.24 85.7277 17 85.7144 16.8C85.6344 16.8533 85.5144 16.8933 85.3544 16.92C85.2077 16.9467 85.0877 16.9467 84.9944 16.92C85.061 16.8533 85.1144 16.7467 85.1544 16.6C85.1944 16.44 85.2144 16.3133 85.2144 16.22C85.121 16.22 85.0077 16.2 84.8744 16.16C84.7544 16.1067 84.661 16.0467 84.5944 15.98C84.6877 15.9933 84.801 15.98 84.9344 15.94C85.0677 15.8867 85.161 15.82 85.2144 15.74C85.1344 15.7 85.0277 15.6067 84.8944 15.46C84.761 15.3133 84.681 15.2 84.6544 15.12C84.7344 15.08 84.841 14.9867 84.9744 14.84C85.121 14.68 85.201 14.56 85.2144 14.48C85.0277 14.4667 84.8077 14.4067 84.5544 14.3C84.3144 14.18 84.1277 14.0533 83.9944 13.92C84.181 13.9333 84.401 13.88 84.6544 13.76C84.9077 13.64 85.0944 13.5133 85.2144 13.38C85.0544 13.3667 84.861 13.3067 84.6344 13.2C84.421 13.0933 84.261 12.98 84.1544 12.86C84.3144 12.8467 84.501 12.7933 84.7144 12.7C84.941 12.5933 85.1077 12.4733 85.2144 12.34C85.1877 12.26 85.0944 12.14 84.9344 11.98C84.7877 11.8067 84.6744 11.7 84.5944 11.66C84.621 11.58 84.7077 11.46 84.8544 11.3C85.0144 11.1267 85.1344 11.02 85.2144 10.98C85.1477 10.9267 85.0477 10.88 84.9144 10.84C84.781 10.8 84.661 10.78 84.5544 10.78C84.3677 11.1533 84.1677 11.44 83.9544 11.64C83.9944 11.4267 83.9877 11.1733 83.9344 10.88C83.881 10.5733 83.7944 10.3067 83.6744 10.08C83.781 10.32 83.821 10.5267 83.7944 10.7C83.7277 10.5933 83.6144 10.4933 83.4544 10.4C83.3077 10.2933 83.1744 10.2333 83.0544 10.22C83.0544 10.3 83.1077 10.4333 83.2144 10.62C83.3344 10.7933 83.4277 10.9067 83.4944 10.96C83.4677 11.04 83.3677 11.14 83.1944 11.26C83.021 11.38 82.8944 11.4533 82.8144 11.48C82.881 11.5733 82.9944 11.6933 83.1544 11.84C83.3277 11.9733 83.4744 12.0467 83.5944 12.06C83.5277 12.1667 83.4077 12.2867 83.2344 12.42C83.061 12.5533 82.921 12.6333 82.8144 12.66C82.921 12.7533 83.0677 12.82 83.2544 12.86C83.4544 12.8867 83.6277 12.8867 83.7744 12.86C83.641 12.94 83.481 13 83.2944 13.04C83.121 13.08 82.961 13.0867 82.8144 13.06C82.9344 13.0867 83.081 13.16 83.2544 13.28C83.441 13.4 83.5744 13.5133 83.6544 13.62C83.5344 13.6467 83.381 13.72 83.1944 13.84C83.0077 13.9467 82.881 14.0533 82.8144 14.16C82.961 14.1333 83.1344 14.1533 83.3344 14.22C83.5344 14.2733 83.6877 14.3467 83.7944 14.44C83.6477 14.4133 83.4744 14.4333 83.2744 14.5C83.0744 14.5533 82.921 14.6267 82.8144 14.72C83.0144 14.6933 83.2544 14.7333 83.5344 14.84C83.8144 14.9467 84.021 15.08 84.1544 15.24C83.9544 15.2267 83.7144 15.2733 83.4344 15.38C83.1677 15.4867 82.961 15.6067 82.8144 15.74C82.9744 15.8467 83.1477 16.0067 83.3344 16.22C83.521 16.4333 83.641 16.6333 83.6944 16.82C83.521 16.74 83.2877 16.6933 82.9944 16.68C82.7144 16.6667 82.4877 16.7067 82.3144 16.8C82.181 17.0133 82.081 17.2867 82.0144 17.62C81.9477 17.9667 81.9544 18.26 82.0344 18.5C81.9277 18.34 81.841 18.14 81.7744 17.9C81.721 17.66 81.701 17.4333 81.7144 17.22C81.661 17.4467 81.581 17.6733 81.4744 17.9C81.381 18.1267 81.2677 18.3 81.1344 18.42C81.1477 18.18 81.0877 17.8933 80.9544 17.56C80.821 17.2267 80.6677 16.9733 80.4944 16.8C80.5344 17.04 80.5344 17.32 80.4944 17.64C80.4544 17.9733 80.361 18.24 80.2144 18.44C80.2944 18.2 80.3077 17.9133 80.2544 17.58C80.201 17.2467 80.0944 16.9867 79.9344 16.8C79.761 16.9333 79.6144 17.16 79.4944 17.48C79.3744 17.8 79.3144 18.0733 79.3144 18.3C79.141 18.1533 78.9744 17.88 78.8144 17.48C78.6544 17.0933 78.4944 16.54 78.3344 15.82ZM84.1344 7C84.081 6.89333 84.041 6.75333 84.0144 6.58C83.9744 6.68667 83.9144 6.80667 83.8344 6.94C83.941 6.98 84.041 7 84.1344 7ZM95.5509 16.9C95.4709 17.02 95.3176 17.1533 95.0909 17.3C94.8776 17.46 94.7043 17.5533 94.5709 17.58C94.5576 17.4467 94.4976 17.2533 94.3909 17C94.2976 16.7467 94.1976 16.5733 94.0909 16.48C93.9709 16.6667 93.7643 16.8467 93.4709 17.02C93.1909 17.2067 92.9443 17.3133 92.7309 17.34C92.8376 17.1533 92.9176 16.8933 92.9709 16.56C93.0243 16.2267 93.0176 15.9533 92.9509 15.74C92.8443 15.8467 92.6976 15.94 92.5109 16.02C92.3243 16.0867 92.1576 16.12 92.0109 16.12C92.1176 16.04 92.2176 15.9067 92.3109 15.72C92.4043 15.5333 92.4509 15.3667 92.4509 15.22C92.2509 15.3933 91.9643 15.5267 91.5909 15.62C91.2176 15.7 90.8976 15.72 90.6309 15.68C90.8709 15.56 91.1243 15.3733 91.3909 15.12C91.6709 14.8533 91.8509 14.5867 91.9309 14.32C91.8109 14.24 91.6376 14.1867 91.4109 14.16C91.1843 14.1333 91.0043 14.1333 90.8709 14.16C90.9243 14.0267 91.0309 13.8867 91.1909 13.74C91.3509 13.58 91.4976 13.4733 91.6309 13.42C91.4176 13.2733 91.1309 13.1933 90.7709 13.18C90.4109 13.1533 90.1109 13.1867 89.8709 13.28C90.0309 13.08 90.2843 12.9267 90.6309 12.82C90.9643 12.7 91.2576 12.6333 91.5109 12.62C91.3909 12.4733 91.1976 12.3133 90.9309 12.14C90.6776 11.9667 90.4576 11.8667 90.2709 11.84C90.3776 11.68 90.5643 11.52 90.8309 11.36C91.0976 11.1867 91.3243 11.08 91.5109 11.04C91.2176 11.0267 90.8976 10.9467 90.5509 10.8C90.1909 10.64 89.9043 10.46 89.6909 10.26C89.9576 10.3933 90.2909 10.4467 90.6909 10.42C91.0909 10.3933 91.4176 10.3067 91.6709 10.16C91.6709 10.04 91.6109 9.86 91.4909 9.62C91.3843 9.38 91.2776 9.21333 91.1709 9.12C91.2643 9.04 91.4376 8.95333 91.6909 8.86C91.9443 8.76667 92.1376 8.73333 92.2709 8.76C92.1776 8.65333 92.0909 8.48 92.0109 8.24C91.9309 8 91.8976 7.80667 91.9109 7.66C92.0309 7.75333 92.2109 7.81333 92.4509 7.84C92.7043 7.86667 92.9043 7.86667 93.0509 7.84C93.1176 7.69333 93.1443 7.48667 93.1309 7.22C93.1176 6.95333 93.0643 6.75333 92.9709 6.62C93.1309 6.62 93.3309 6.68 93.5709 6.8C93.8109 6.92 93.9776 7.04667 94.0709 7.18C94.0043 7.07333 93.9576 6.92667 93.9309 6.74C93.9043 6.55333 93.9043 6.39333 93.9309 6.26C93.9709 6.39333 94.0443 6.54 94.1509 6.7C94.2709 6.84667 94.3909 6.94667 94.5109 7C94.4576 6.85333 94.4509 6.66667 94.4909 6.44C94.5309 6.21333 94.5909 6.04 94.6709 5.92C94.6976 6.06667 94.7843 6.22667 94.9309 6.4C95.0776 6.57333 95.2243 6.69333 95.3709 6.76C95.5176 6.56 95.6176 6.28 95.6709 5.92C95.7243 5.56 95.7043 5.26 95.6109 5.02C95.7843 5.16667 95.9376 5.38 96.0709 5.66C96.2043 5.94 96.2843 6.2 96.3109 6.44C96.3109 6.21333 96.3576 5.94667 96.4509 5.64C96.5576 5.32 96.6976 5.08 96.8709 4.92C96.8576 5.17333 96.9109 5.47333 97.0309 5.82C97.1509 6.15333 97.2909 6.42 97.4509 6.62C97.5976 6.51333 97.7509 6.34667 97.9109 6.12C98.0843 5.88 98.1843 5.66667 98.2109 5.48C98.3443 5.61333 98.4576 5.82 98.5509 6.1C98.6443 6.38 98.6776 6.60667 98.6509 6.78C98.7309 6.66 98.8709 6.52667 99.0709 6.38C99.2843 6.23333 99.4643 6.14667 99.6109 6.12C99.5843 6.26667 99.6043 6.46667 99.6709 6.72C99.7509 6.96 99.8376 7.13333 99.9309 7.24C100.038 7.28 100.218 7.28 100.471 7.24C100.738 7.18667 100.918 7.12667 101.011 7.06C101.064 7.16667 101.111 7.34667 101.151 7.6C101.191 7.85333 101.191 8.03333 101.151 8.14C101.244 8.20667 101.418 8.26667 101.671 8.32C101.938 8.37333 102.124 8.38 102.231 8.34C102.271 8.44667 102.258 8.63333 102.191 8.9C102.138 9.15333 102.071 9.32667 101.991 9.42C102.138 9.39333 102.344 9.44 102.611 9.56C102.878 9.66667 103.064 9.76667 103.171 9.86C103.038 9.92667 102.884 10.08 102.711 10.32C102.551 10.5467 102.451 10.7333 102.411 10.88C102.611 11.0533 102.898 11.2067 103.271 11.34C103.644 11.46 103.964 11.5 104.231 11.46C104.044 11.66 103.771 11.84 103.411 12C103.051 12.16 102.738 12.2333 102.471 12.22C102.564 12.38 102.711 12.5467 102.911 12.72C103.111 12.88 103.304 12.98 103.491 13.02C103.304 13.06 103.084 13.06 102.831 13.02C102.578 12.9667 102.371 12.8867 102.211 12.78C102.211 12.9533 102.151 13.1667 102.031 13.42C102.111 13.62 102.151 13.7867 102.151 13.92C102.391 13.9333 102.658 14.02 102.951 14.18C103.244 14.3267 103.471 14.4867 103.631 14.66C103.418 14.5533 103.138 14.52 102.791 14.56C102.458 14.5867 102.184 14.66 101.971 14.78C101.984 14.94 102.058 15.12 102.191 15.32C102.324 15.5067 102.451 15.6467 102.571 15.74C102.424 15.7667 102.231 15.7467 101.991 15.68C101.764 15.6133 101.598 15.5267 101.491 15.42C101.704 15.62 101.898 15.9067 102.071 16.28C102.258 16.6533 102.344 16.9867 102.331 17.28C102.184 17.0267 101.944 16.7733 101.611 16.52C101.278 16.2667 100.964 16.1133 100.671 16.06C100.578 16.2733 100.524 16.5667 100.511 16.94C100.511 17.3 100.544 17.5867 100.611 17.8C100.384 17.7467 100.131 17.6 99.8509 17.36C99.5709 17.12 99.3843 16.8933 99.2909 16.68C99.1976 16.9467 99.1776 17.2667 99.2309 17.64C99.2976 18.0267 99.4109 18.3333 99.5709 18.56C99.4109 18.4133 99.2709 18.2133 99.1509 17.96C99.0443 17.7067 98.9709 17.4533 98.9309 17.2C98.8909 17.48 98.8109 17.7133 98.6909 17.9C98.6643 17.74 98.5909 17.56 98.4709 17.36C98.3643 17.16 98.2443 17.02 98.1109 16.94C98.1109 17.1133 98.0576 17.3267 97.9509 17.58C97.8576 17.8467 97.7509 18.0467 97.6309 18.18C97.6176 18.06 97.5576 17.92 97.4509 17.76C97.3443 17.6 97.1443 17.44 96.8509 17.28C96.5576 17.1333 96.1243 17.0067 95.5509 16.9ZM96.8909 10.04C96.8909 10.1333 96.9309 10.2533 97.0109 10.4C97.0909 10.5333 97.1709 10.6267 97.2509 10.68C97.3443 10.6133 97.4176 10.4933 97.4709 10.32C97.4309 10.3067 97.3976 10.2933 97.3709 10.28C97.3843 10.2667 97.4309 10.2533 97.5109 10.24C97.5109 10.2 97.5176 10.1667 97.5309 10.14C97.3176 10.1 97.1376 10.0933 96.9909 10.12C97.0709 10 97.1976 9.89333 97.3709 9.8C97.5443 9.69333 97.7043 9.63333 97.8509 9.62C97.7443 9.60667 97.6109 9.62 97.4509 9.66C97.3043 9.7 97.1843 9.75333 97.0909 9.82C97.1309 9.71333 97.2043 9.60667 97.3109 9.5C97.4309 9.39333 97.5376 9.32 97.6309 9.28C97.5643 9.28 97.4776 9.31333 97.3709 9.38C97.2643 9.44667 97.1909 9.51333 97.1509 9.58C97.1509 9.58 97.1376 9.54 97.1109 9.46C97.0843 9.63333 97.0376 9.77333 96.9709 9.88C96.9843 9.76 96.9643 9.61333 96.9109 9.44C96.8576 9.26667 96.7909 9.13333 96.7109 9.04C96.6843 9.12 96.6843 9.23333 96.7109 9.38C96.7376 9.52667 96.7776 9.64 96.8309 9.72C96.7109 9.70667 96.5776 9.66667 96.4309 9.6C96.5643 9.72 96.6576 9.84 96.7109 9.96C96.6043 9.94667 96.4709 9.96 96.3109 10C96.1643 10.0267 96.0576 10.0667 95.9909 10.12C96.0576 10.1333 96.1509 10.18 96.2709 10.26C96.2709 10.26 96.2909 10.2333 96.3309 10.18C96.3309 10.22 96.3376 10.2667 96.3509 10.32C96.3776 10.36 96.4043 10.3933 96.4309 10.42C96.4309 10.42 96.4109 10.42 96.3709 10.42C96.4243 10.5267 96.4776 10.6133 96.5309 10.68C96.5309 10.5867 96.5709 10.4733 96.6509 10.34C96.7443 10.1933 96.8243 10.0933 96.8909 10.04ZM97.9709 10.28C97.8776 10.2267 97.7709 10.1867 97.6509 10.16C97.6643 10.1733 97.6776 10.1933 97.6909 10.22C97.7976 10.22 97.8909 10.24 97.9709 10.28ZM96.1309 10.68C96.1309 10.6667 96.1309 10.6333 96.1309 10.58C96.1309 10.58 96.1309 10.6133 96.1309 10.68ZM101.011 12.78C101.024 12.9 100.998 13.0467 100.931 13.22C100.878 13.3933 100.811 13.54 100.731 13.66C100.758 13.74 100.778 13.8067 100.791 13.86C100.964 13.7133 101.138 13.48 101.311 13.16C101.218 13 101.118 12.8733 101.011 12.78ZM99.0909 13.02C99.1976 13.0867 99.2909 13.2133 99.3709 13.4C99.4643 13.5867 99.5176 13.74 99.5309 13.86C99.6509 13.78 99.7843 13.64 99.9309 13.44C100.078 13.2267 100.151 13.0467 100.151 12.9C100.218 12.94 100.291 13 100.371 13.08C100.304 12.9467 100.231 12.8467 100.151 12.78C100.138 12.9133 100.064 13.08 99.9309 13.28C99.7976 13.48 99.6709 13.6067 99.5509 13.66C99.5243 13.5267 99.4443 13.3667 99.3109 13.18C99.1776 12.98 99.0576 12.8467 98.9509 12.78C98.8443 12.9 98.7643 13.0667 98.7109 13.28C98.6576 13.4933 98.6443 13.6733 98.6709 13.82C98.4976 13.6333 98.3976 13.36 98.3709 13C98.3309 13.2267 98.2509 13.4067 98.1309 13.54C98.3309 13.7133 98.5109 13.82 98.6709 13.86C98.7643 13.7933 98.8509 13.6667 98.9309 13.48C99.0243 13.2933 99.0776 13.14 99.0909 13.02ZM97.0509 12.78C97.0776 12.9 97.0843 13.0533 97.0709 13.24C97.0709 13.4267 97.0443 13.6 96.9909 13.76C97.0576 13.8667 97.1376 13.9733 97.2309 14.08C97.3376 14.1733 97.4243 14.2333 97.4909 14.26C97.4509 14.1133 97.4576 13.9133 97.5109 13.66C97.5776 13.4067 97.6576 13.22 97.7509 13.1C97.8043 13.2333 97.9243 13.38 98.1109 13.54C98.1376 13.4333 98.1176 13.3067 98.0509 13.16C97.9843 13 97.9109 12.8733 97.8309 12.78C97.7643 12.82 97.6843 12.9067 97.5909 13.04C97.4976 13.16 97.4509 13.26 97.4509 13.34C97.3709 13.3 97.2843 13.22 97.1909 13.1C97.0976 12.9667 97.0509 12.86 97.0509 12.78ZM96.2909 14.26C96.3043 14.1933 96.3443 14.1133 96.4109 14.02C96.4909 13.9267 96.5709 13.84 96.6509 13.76L96.6309 13.72C96.4443 13.92 96.3309 14.1 96.2909 14.26Z" fill="#45624E"/>
</svg>
