<svg width="26" height="53" viewBox="0 0 26 53" fill="none" xmlns="http://www.w3.org/2000/svg">
<path d="M2.376 16.632C2.03467 16.6107 1.608 16.472 1.096 16.216C0.605333 15.9813 0.253333 15.7253 0.04 15.448C0.381333 15.4267 0.797333 15.288 1.288 15.032C1.8 14.776 2.16267 14.5093 2.376 14.232C2.29067 14.0613 2.10933 13.8587 1.832 13.624C1.55467 13.3893 1.33067 13.24 1.16 13.176C1.24533 13.0053 1.448 12.8347 1.768 12.664C2.088 12.472 2.344 12.3653 2.536 12.344C2.70667 12.152 2.84533 11.864 2.952 11.48C3.05867 11.096 3.09067 10.776 3.048 10.52C3.21867 10.648 3.37867 10.8507 3.528 11.128C3.69867 11.384 3.816 11.64 3.88 11.896C3.85867 11.5973 3.88 11.288 3.944 10.968C4.02933 10.6267 4.15733 10.3493 4.328 10.136C4.264 10.4347 4.264 10.7867 4.328 11.192C4.392 11.5973 4.52 11.928 4.712 12.184C4.86133 12.0773 5.032 11.8853 5.224 11.608C5.416 11.3307 5.52267 11.096 5.544 10.904C5.69333 11.0107 5.85333 11.2027 6.024 11.48C6.216 11.7573 6.32267 11.992 6.344 12.184C6.664 11.9493 6.93067 11.5653 7.144 11.032C7.35733 10.4987 7.47467 10.04 7.496 9.656C7.79467 9.89067 8.06133 10.2747 8.296 10.808C8.53067 11.3413 8.648 11.8 8.648 12.184C8.62667 11.864 8.72267 11.4907 8.936 11.064C9.14933 10.6373 9.37333 10.3173 9.608 10.104C9.608 10.424 9.704 10.7973 9.896 11.224C10.1093 11.6507 10.3333 11.9707 10.568 12.184C10.504 11.8853 10.504 11.544 10.568 11.16C10.632 10.7547 10.76 10.4347 10.952 10.2C10.9093 10.4987 10.92 10.84 10.984 11.224C11.048 11.608 11.1653 11.928 11.336 12.184C11.4853 12.056 11.6133 11.864 11.72 11.608C11.848 11.3307 11.912 11.096 11.912 10.904C12.1467 11.096 12.3173 11.4053 12.424 11.832C12.4027 11.5547 12.4453 11.2453 12.552 10.904C12.6587 10.5627 12.776 10.2853 12.904 10.072C12.84 10.3707 12.8507 10.7333 12.936 11.16C13.0213 11.5867 13.16 11.928 13.352 12.184C13.352 11.9067 13.416 11.576 13.544 11.192C13.6933 10.7867 13.864 10.488 14.056 10.296C14.0347 10.5733 14.0987 10.9147 14.248 11.32C14.3973 11.704 14.568 11.992 14.76 12.184C14.6533 11.7787 14.632 11.2987 14.696 10.744C14.7813 10.168 14.9307 9.69867 15.144 9.336C14.9947 9.74133 14.9627 10.232 15.048 10.808C15.1547 11.3627 15.3147 11.8213 15.528 12.184C15.4213 11.8 15.432 11.3413 15.56 10.808C15.688 10.2747 15.8693 9.83733 16.104 9.496C16.0187 9.88 16.0293 10.3493 16.136 10.904C16.264 11.4373 16.4453 11.864 16.68 12.184C16.936 11.9067 17.1707 11.5013 17.384 10.968C17.5973 10.4347 17.6827 9.976 17.64 9.592C17.896 9.82667 18.0987 10.168 18.248 10.616C18.4187 11.064 18.5253 11.4907 18.568 11.896C18.5893 11.512 18.6533 11.128 18.76 10.744C18.888 10.3387 19.0373 10.008 19.208 9.752C19.1227 10.1147 19.144 10.5413 19.272 11.032C19.4213 11.5227 19.6133 11.9067 19.848 12.184C19.8907 11.864 20.0293 11.48 20.264 11.032C20.52 10.584 20.7653 10.2533 21 10.04C21.0427 10.36 21.1813 10.7547 21.416 11.224C21.6507 11.672 21.896 11.992 22.152 12.184C22.3867 12.0987 22.6853 12.056 23.048 12.056C23.432 12.0347 23.7413 12.088 23.976 12.216C23.7627 12.3227 23.528 12.5253 23.272 12.824C23.0373 13.1227 22.888 13.3893 22.824 13.624C23.208 13.496 23.6667 13.464 24.2 13.528C24.7333 13.592 25.16 13.7413 25.48 13.976C25.096 13.8907 24.6373 13.88 24.104 13.944C23.592 14.008 23.1653 14.1467 22.824 14.36C23.016 14.5733 23.304 14.7547 23.688 14.904C24.0933 15.0533 24.4347 15.128 24.712 15.128C24.52 15.3413 24.2213 15.5227 23.816 15.672C23.432 15.8213 23.1013 15.896 22.824 15.896C23.0373 16.0027 23.272 16.2267 23.528 16.568C23.784 16.9307 23.9227 17.24 23.944 17.496C23.7093 17.432 23.3787 17.432 22.952 17.496C22.5467 17.5813 22.2373 17.688 22.024 17.816C22.024 18.2853 21.9173 18.84 21.704 19.48C21.4907 20.12 21.2133 20.6107 20.872 20.952C20.9573 20.4827 20.8613 19.928 20.584 19.288C20.328 18.6693 20.04 18.1787 19.72 17.816C19.8053 18.2853 19.784 18.8293 19.656 19.448C19.5493 20.0667 19.3573 20.5787 19.08 20.984C19.1653 20.5147 19.1547 19.96 19.048 19.32C18.9413 18.7013 18.7493 18.2 18.472 17.816C18.1947 18.1573 17.992 18.616 17.864 19.192C17.736 19.7893 17.7253 20.3013 17.832 20.728C17.5973 20.4507 17.416 20.0773 17.288 19.608C17.1813 19.16 17.128 18.7547 17.128 18.392C17.0427 18.6907 16.9147 18.936 16.744 19.128C16.7653 18.936 16.7227 18.7013 16.616 18.424C16.5307 18.168 16.424 17.9653 16.296 17.816C16.3173 18.0933 16.2747 18.4133 16.168 18.776C16.0827 19.1387 15.9547 19.4373 15.784 19.672C15.8267 19.3947 15.7947 19.064 15.688 18.68C15.6027 18.296 15.464 18.008 15.272 17.816C15.2293 18.0507 15.0693 18.3387 14.792 18.68C14.5147 19.0427 14.2693 19.2773 14.056 19.384C13.992 19.1493 13.8213 18.8507 13.544 18.488C13.288 18.1467 13.0533 17.9227 12.84 17.816C12.6907 17.9227 12.52 18.1147 12.328 18.392C12.1573 18.6693 12.0613 18.904 12.04 19.096C11.8907 19.0107 11.7307 18.8507 11.56 18.616C11.3893 18.3813 11.2827 18.168 11.24 17.976C11.304 18.3813 11.2613 18.84 11.112 19.352C10.9627 19.8853 10.76 20.312 10.504 20.632C10.568 20.2053 10.536 19.704 10.408 19.128C10.28 18.552 10.0773 18.1147 9.8 17.816C9.56533 18.072 9.36267 18.4347 9.192 18.904C9.02133 19.3733 8.968 19.7787 9.032 20.12C8.81867 19.8427 8.63733 19.4693 8.488 19C8.33867 18.552 8.264 18.1573 8.264 17.816C8.22133 18.0507 8.08267 18.3387 7.848 18.68C7.61333 19.0213 7.38933 19.256 7.176 19.384C7.13333 19.1493 6.99467 18.8613 6.76 18.52C6.52533 18.1787 6.312 17.944 6.12 17.816C5.864 18.136 5.65067 18.5627 5.48 19.096C5.33067 19.6507 5.30933 20.1307 5.416 20.536C5.13867 20.2373 4.936 19.8107 4.808 19.256C4.68 18.7013 4.648 18.2427 4.712 17.88C4.66933 18.0933 4.552 18.3493 4.36 18.648C4.168 18.9467 3.98667 19.1493 3.816 19.256C3.73067 18.872 3.25067 17.9973 2.376 16.632Z" fill="#45624E"/>
<path d="M2.376 31.632C2.03467 31.6107 1.608 31.472 1.096 31.216C0.605333 30.9813 0.253333 30.7253 0.04 30.448C0.381333 30.4267 0.797333 30.288 1.288 30.032C1.8 29.776 2.16267 29.5093 2.376 29.232C2.29067 29.0613 2.10933 28.8587 1.832 28.624C1.55467 28.3893 1.33067 28.24 1.16 28.176C1.24533 28.0053 1.448 27.8347 1.768 27.664C2.088 27.472 2.344 27.3653 2.536 27.344C2.70667 27.152 2.84533 26.864 2.952 26.48C3.05867 26.096 3.09067 25.776 3.048 25.52C3.21867 25.648 3.37867 25.8507 3.528 26.128C3.69867 26.384 3.816 26.64 3.88 26.896C3.85867 26.5973 3.88 26.288 3.944 25.968C4.02933 25.6267 4.15733 25.3493 4.328 25.136C4.264 25.4347 4.264 25.7867 4.328 26.192C4.392 26.5973 4.52 26.928 4.712 27.184C4.86133 27.0773 5.032 26.8853 5.224 26.608C5.416 26.3307 5.52267 26.096 5.544 25.904C5.69333 26.0107 5.85333 26.2027 6.024 26.48C6.216 26.7573 6.32267 26.992 6.344 27.184C6.664 26.9493 6.93067 26.5653 7.144 26.032C7.35733 25.4987 7.47467 25.04 7.496 24.656C7.79467 24.8907 8.06133 25.2747 8.296 25.808C8.53067 26.3413 8.648 26.8 8.648 27.184C8.62667 26.864 8.72267 26.4907 8.936 26.064C9.14933 25.6373 9.37333 25.3173 9.608 25.104C9.608 25.424 9.704 25.7973 9.896 26.224C10.1093 26.6507 10.3333 26.9707 10.568 27.184C10.504 26.8853 10.504 26.544 10.568 26.16C10.632 25.7547 10.76 25.4347 10.952 25.2C10.9093 25.4987 10.92 25.84 10.984 26.224C11.048 26.608 11.1653 26.928 11.336 27.184C11.4853 27.056 11.6133 26.864 11.72 26.608C11.848 26.3307 11.912 26.096 11.912 25.904C12.1467 26.096 12.3173 26.4053 12.424 26.832C12.4027 26.5547 12.4453 26.2453 12.552 25.904C12.6587 25.5627 12.776 25.2853 12.904 25.072C12.84 25.3707 12.8507 25.7333 12.936 26.16C13.0213 26.5867 13.16 26.928 13.352 27.184C13.352 26.9067 13.416 26.576 13.544 26.192C13.6933 25.7867 13.864 25.488 14.056 25.296C14.0347 25.5733 14.0987 25.9147 14.248 26.32C14.3973 26.704 14.568 26.992 14.76 27.184C14.6533 26.7787 14.632 26.2987 14.696 25.744C14.7813 25.168 14.9307 24.6987 15.144 24.336C14.9947 24.7413 14.9627 25.232 15.048 25.808C15.1547 26.3627 15.3147 26.8213 15.528 27.184C15.4213 26.8 15.432 26.3413 15.56 25.808C15.688 25.2747 15.8693 24.8373 16.104 24.496C16.0187 24.88 16.0293 25.3493 16.136 25.904C16.264 26.4373 16.4453 26.864 16.68 27.184C16.936 26.9067 17.1707 26.5013 17.384 25.968C17.5973 25.4347 17.6827 24.976 17.64 24.592C17.896 24.8267 18.0987 25.168 18.248 25.616C18.4187 26.064 18.5253 26.4907 18.568 26.896C18.5893 26.512 18.6533 26.128 18.76 25.744C18.888 25.3387 19.0373 25.008 19.208 24.752C19.1227 25.1147 19.144 25.5413 19.272 26.032C19.4213 26.5227 19.6133 26.9067 19.848 27.184C19.8907 26.864 20.0293 26.48 20.264 26.032C20.52 25.584 20.7653 25.2533 21 25.04C21.0427 25.36 21.1813 25.7547 21.416 26.224C21.6507 26.672 21.896 26.992 22.152 27.184C22.3867 27.0987 22.6853 27.056 23.048 27.056C23.432 27.0347 23.7413 27.088 23.976 27.216C23.7627 27.3227 23.528 27.5253 23.272 27.824C23.0373 28.1227 22.888 28.3893 22.824 28.624C23.208 28.496 23.6667 28.464 24.2 28.528C24.7333 28.592 25.16 28.7413 25.48 28.976C25.096 28.8907 24.6373 28.88 24.104 28.944C23.592 29.008 23.1653 29.1467 22.824 29.36C23.016 29.5733 23.304 29.7547 23.688 29.904C24.0933 30.0533 24.4347 30.128 24.712 30.128C24.52 30.3413 24.2213 30.5227 23.816 30.672C23.432 30.8213 23.1013 30.896 22.824 30.896C23.0373 31.0027 23.272 31.2267 23.528 31.568C23.784 31.9307 23.9227 32.24 23.944 32.496C23.7093 32.432 23.3787 32.432 22.952 32.496C22.5467 32.5813 22.2373 32.688 22.024 32.816C22.024 33.2853 21.9173 33.84 21.704 34.48C21.4907 35.12 21.2133 35.6107 20.872 35.952C20.9573 35.4827 20.8613 34.928 20.584 34.288C20.328 33.6693 20.04 33.1787 19.72 32.816C19.8053 33.2853 19.784 33.8293 19.656 34.448C19.5493 35.0667 19.3573 35.5787 19.08 35.984C19.1653 35.5147 19.1547 34.96 19.048 34.32C18.9413 33.7013 18.7493 33.2 18.472 32.816C18.1947 33.1573 17.992 33.616 17.864 34.192C17.736 34.7893 17.7253 35.3013 17.832 35.728C17.5973 35.4507 17.416 35.0773 17.288 34.608C17.1813 34.16 17.128 33.7547 17.128 33.392C17.0427 33.6907 16.9147 33.936 16.744 34.128C16.7653 33.936 16.7227 33.7013 16.616 33.424C16.5307 33.168 16.424 32.9653 16.296 32.816C16.3173 33.0933 16.2747 33.4133 16.168 33.776C16.0827 34.1387 15.9547 34.4373 15.784 34.672C15.8267 34.3947 15.7947 34.064 15.688 33.68C15.6027 33.296 15.464 33.008 15.272 32.816C15.2293 33.0507 15.0693 33.3387 14.792 33.68C14.5147 34.0427 14.2693 34.2773 14.056 34.384C13.992 34.1493 13.8213 33.8507 13.544 33.488C13.288 33.1467 13.0533 32.9227 12.84 32.816C12.6907 32.9227 12.52 33.1147 12.328 33.392C12.1573 33.6693 12.0613 33.904 12.04 34.096C11.8907 34.0107 11.7307 33.8507 11.56 33.616C11.3893 33.3813 11.2827 33.168 11.24 32.976C11.304 33.3813 11.2613 33.84 11.112 34.352C10.9627 34.8853 10.76 35.312 10.504 35.632C10.568 35.2053 10.536 34.704 10.408 34.128C10.28 33.552 10.0773 33.1147 9.8 32.816C9.56533 33.072 9.36267 33.4347 9.192 33.904C9.02133 34.3733 8.968 34.7787 9.032 35.12C8.81867 34.8427 8.63733 34.4693 8.488 34C8.33867 33.552 8.264 33.1573 8.264 32.816C8.22133 33.0507 8.08267 33.3387 7.848 33.68C7.61333 34.0213 7.38933 34.256 7.176 34.384C7.13333 34.1493 6.99467 33.8613 6.76 33.52C6.52533 33.1787 6.312 32.944 6.12 32.816C5.864 33.136 5.65067 33.5627 5.48 34.096C5.33067 34.6507 5.30933 35.1307 5.416 35.536C5.13867 35.2373 4.936 34.8107 4.808 34.256C4.68 33.7013 4.648 33.2427 4.712 32.88C4.66933 33.0933 4.552 33.3493 4.36 33.648C4.168 33.9467 3.98667 34.1493 3.816 34.256C3.73067 33.872 3.25067 32.9973 2.376 31.632Z" fill="#45624E"/>
<path d="M2.376 46.632C2.03467 46.6107 1.608 46.472 1.096 46.216C0.605333 45.9813 0.253333 45.7253 0.04 45.448C0.381333 45.4267 0.797333 45.288 1.288 45.032C1.8 44.776 2.16267 44.5093 2.376 44.232C2.29067 44.0613 2.10933 43.8587 1.832 43.624C1.55467 43.3893 1.33067 43.24 1.16 43.176C1.24533 43.0053 1.448 42.8347 1.768 42.664C2.088 42.472 2.344 42.3653 2.536 42.344C2.70667 42.152 2.84533 41.864 2.952 41.48C3.05867 41.096 3.09067 40.776 3.048 40.52C3.21867 40.648 3.37867 40.8507 3.528 41.128C3.69867 41.384 3.816 41.64 3.88 41.896C3.85867 41.5973 3.88 41.288 3.944 40.968C4.02933 40.6267 4.15733 40.3493 4.328 40.136C4.264 40.4347 4.264 40.7867 4.328 41.192C4.392 41.5973 4.52 41.928 4.712 42.184C4.86133 42.0773 5.032 41.8853 5.224 41.608C5.416 41.3307 5.52267 41.096 5.544 40.904C5.69333 41.0107 5.85333 41.2027 6.024 41.48C6.216 41.7573 6.32267 41.992 6.344 42.184C6.664 41.9493 6.93067 41.5653 7.144 41.032C7.35733 40.4987 7.47467 40.04 7.496 39.656C7.79467 39.8907 8.06133 40.2747 8.296 40.808C8.53067 41.3413 8.648 41.8 8.648 42.184C8.62667 41.864 8.72267 41.4907 8.936 41.064C9.14933 40.6373 9.37333 40.3173 9.608 40.104C9.608 40.424 9.704 40.7973 9.896 41.224C10.1093 41.6507 10.3333 41.9707 10.568 42.184C10.504 41.8853 10.504 41.544 10.568 41.16C10.632 40.7547 10.76 40.4347 10.952 40.2C10.9093 40.4987 10.92 40.84 10.984 41.224C11.048 41.608 11.1653 41.928 11.336 42.184C11.4853 42.056 11.6133 41.864 11.72 41.608C11.848 41.3307 11.912 41.096 11.912 40.904C12.1467 41.096 12.3173 41.4053 12.424 41.832C12.4027 41.5547 12.4453 41.2453 12.552 40.904C12.6587 40.5627 12.776 40.2853 12.904 40.072C12.84 40.3707 12.8507 40.7333 12.936 41.16C13.0213 41.5867 13.16 41.928 13.352 42.184C13.352 41.9067 13.416 41.576 13.544 41.192C13.6933 40.7867 13.864 40.488 14.056 40.296C14.0347 40.5733 14.0987 40.9147 14.248 41.32C14.3973 41.704 14.568 41.992 14.76 42.184C14.6533 41.7787 14.632 41.2987 14.696 40.744C14.7813 40.168 14.9307 39.6987 15.144 39.336C14.9947 39.7413 14.9627 40.232 15.048 40.808C15.1547 41.3627 15.3147 41.8213 15.528 42.184C15.4213 41.8 15.432 41.3413 15.56 40.808C15.688 40.2747 15.8693 39.8373 16.104 39.496C16.0187 39.88 16.0293 40.3493 16.136 40.904C16.264 41.4373 16.4453 41.864 16.68 42.184C16.936 41.9067 17.1707 41.5013 17.384 40.968C17.5973 40.4347 17.6827 39.976 17.64 39.592C17.896 39.8267 18.0987 40.168 18.248 40.616C18.4187 41.064 18.5253 41.4907 18.568 41.896C18.5893 41.512 18.6533 41.128 18.76 40.744C18.888 40.3387 19.0373 40.008 19.208 39.752C19.1227 40.1147 19.144 40.5413 19.272 41.032C19.4213 41.5227 19.6133 41.9067 19.848 42.184C19.8907 41.864 20.0293 41.48 20.264 41.032C20.52 40.584 20.7653 40.2533 21 40.04C21.0427 40.36 21.1813 40.7547 21.416 41.224C21.6507 41.672 21.896 41.992 22.152 42.184C22.3867 42.0987 22.6853 42.056 23.048 42.056C23.432 42.0347 23.7413 42.088 23.976 42.216C23.7627 42.3227 23.528 42.5253 23.272 42.824C23.0373 43.1227 22.888 43.3893 22.824 43.624C23.208 43.496 23.6667 43.464 24.2 43.528C24.7333 43.592 25.16 43.7413 25.48 43.976C25.096 43.8907 24.6373 43.88 24.104 43.944C23.592 44.008 23.1653 44.1467 22.824 44.36C23.016 44.5733 23.304 44.7547 23.688 44.904C24.0933 45.0533 24.4347 45.128 24.712 45.128C24.52 45.3413 24.2213 45.5227 23.816 45.672C23.432 45.8213 23.1013 45.896 22.824 45.896C23.0373 46.0027 23.272 46.2267 23.528 46.568C23.784 46.9307 23.9227 47.24 23.944 47.496C23.7093 47.432 23.3787 47.432 22.952 47.496C22.5467 47.5813 22.2373 47.688 22.024 47.816C22.024 48.2853 21.9173 48.84 21.704 49.48C21.4907 50.12 21.2133 50.6107 20.872 50.952C20.9573 50.4827 20.8613 49.928 20.584 49.288C20.328 48.6693 20.04 48.1787 19.72 47.816C19.8053 48.2853 19.784 48.8293 19.656 49.448C19.5493 50.0667 19.3573 50.5787 19.08 50.984C19.1653 50.5147 19.1547 49.96 19.048 49.32C18.9413 48.7013 18.7493 48.2 18.472 47.816C18.1947 48.1573 17.992 48.616 17.864 49.192C17.736 49.7893 17.7253 50.3013 17.832 50.728C17.5973 50.4507 17.416 50.0773 17.288 49.608C17.1813 49.16 17.128 48.7547 17.128 48.392C17.0427 48.6907 16.9147 48.936 16.744 49.128C16.7653 48.936 16.7227 48.7013 16.616 48.424C16.5307 48.168 16.424 47.9653 16.296 47.816C16.3173 48.0933 16.2747 48.4133 16.168 48.776C16.0827 49.1387 15.9547 49.4373 15.784 49.672C15.8267 49.3947 15.7947 49.064 15.688 48.68C15.6027 48.296 15.464 48.008 15.272 47.816C15.2293 48.0507 15.0693 48.3387 14.792 48.68C14.5147 49.0427 14.2693 49.2773 14.056 49.384C13.992 49.1493 13.8213 48.8507 13.544 48.488C13.288 48.1467 13.0533 47.9227 12.84 47.816C12.6907 47.9227 12.52 48.1147 12.328 48.392C12.1573 48.6693 12.0613 48.904 12.04 49.096C11.8907 49.0107 11.7307 48.8507 11.56 48.616C11.3893 48.3813 11.2827 48.168 11.24 47.976C11.304 48.3813 11.2613 48.84 11.112 49.352C10.9627 49.8853 10.76 50.312 10.504 50.632C10.568 50.2053 10.536 49.704 10.408 49.128C10.28 48.552 10.0773 48.1147 9.8 47.816C9.56533 48.072 9.36267 48.4347 9.192 48.904C9.02133 49.3733 8.968 49.7787 9.032 50.12C8.81867 49.8427 8.63733 49.4693 8.488 49C8.33867 48.552 8.264 48.1573 8.264 47.816C8.22133 48.0507 8.08267 48.3387 7.848 48.68C7.61333 49.0213 7.38933 49.256 7.176 49.384C7.13333 49.1493 6.99467 48.8613 6.76 48.52C6.52533 48.1787 6.312 47.944 6.12 47.816C5.864 48.136 5.65067 48.5627 5.48 49.096C5.33067 49.6507 5.30933 50.1307 5.416 50.536C5.13867 50.2373 4.936 49.8107 4.808 49.256C4.68 48.7013 4.648 48.2427 4.712 47.88C4.66933 48.0933 4.552 48.3493 4.36 48.648C4.168 48.9467 3.98667 49.1493 3.816 49.256C3.73067 48.872 3.25067 47.9973 2.376 46.632Z" fill="#45624E"/>
</svg>
